STARTFONT 2.1
FONT -FontForge-MingLiU98-Book-R-Normal--15-140-75-75-P-147-ISO10646-1
SIZE 14 75 75
FONTBOUNDINGBOX 15 15 0 -2
COMMENT "Generated by fontforge, http://fontforge.sourceforge.net"
COMMENT "(c) Copyright DynaComware Corp. 1998"
STARTPROPERTIES 40
FOUNDRY "FontForge"
FAMILY_NAME "MingLiU98"
WEIGHT_NAME "Book"
SLANT "R"
SETWIDTH_NAME "Normal"
ADD_STYLE_NAME ""
PIXEL_SIZE 15
POINT_SIZE 140
RESOLUTION_X 75
RESOLUTION_Y 75
SPACING "P"
AVERAGE_WIDTH 147
CHARSET_REGISTRY "ISO10646"
CHARSET_ENCODING "1"
FONTNAME_REGISTRY ""
CHARSET_COLLECTIONS "ASCII ISOLatin1Encoding JISX0208.1997 GB2312.1980 BIG5 ISO10646-1"
FONT_NAME "MingLiU-98"
FACE_NAME "MingLiU-98"
COPYRIGHT "(c) Copyright DynaComware Corp. 1998"
FONT_VERSION "1.00"
FONT_ASCENT 12
FONT_DESCENT 3
UNDERLINE_POSITION -2
UNDERLINE_THICKNESS 1
X_HEIGHT 5
CAP_HEIGHT 9
RAW_ASCENT 800
RAW_DESCENT 199
NORM_SPACE 7
RELATIVE_WEIGHT 40
RELATIVE_SETWIDTH 50
SUPERSCRIPT_X 0
SUPERSCRIPT_Y 7
SUPERSCRIPT_SIZE 7
SUBSCRIPT_X 0
SUBSCRIPT_Y 0
SUBSCRIPT_SIZE 7
FIGURE_WIDTH 7
AVG_LOWERCASE_WIDTH 106
AVG_UPPERCASE_WIDTH 107
ENDPROPERTIES
CHARS 22454
STARTCHAR uni0001
ENCODING 1
SWIDTH 500 0
DWIDTH 7 0
BBX 0 0 0 0
BITMAP
ENDCHAR
STARTCHAR uni0002
ENCODING 2
SWIDTH 500 0
DWIDTH 7 0
BBX 0 0 0 0
BITMAP
ENDCHAR
STARTCHAR uni0003
ENCODING 3
SWIDTH 500 0
DWIDTH 7 0
BBX 0 0 0 0
BITMAP
ENDCHAR
STARTCHAR uni0004
ENCODING 4
SWIDTH 500 0
DWIDTH 7 0
BBX 0 0 0 0
BITMAP
ENDCHAR
STARTCHAR uni0005
ENCODING 5
SWIDTH 500 0
DWIDTH 7 0
BBX 0 0 0 0
BITMAP
ENDCHAR
STARTCHAR uni0006
ENCODING 6
SWIDTH 500 0
DWIDTH 7 0
BBX 0 0 0 0
BITMAP
ENDCHAR
STARTCHAR uni0007
ENCODING 7
SWIDTH 500 0
DWIDTH 7 0
BBX 0 0 0 0
BITMAP
ENDCHAR
STARTCHAR uni0008
ENCODING 8
SWIDTH 500 0
DWIDTH 7 0
BBX 0 0 0 0
BITMAP
ENDCHAR
STARTCHAR uni0009
ENCODING 9
SWIDTH 500 0
DWIDTH 7 0
BBX 0 0 0 0
BITMAP
ENDCHAR
STARTCHAR uni000A
ENCODING 10
SWIDTH 500 0
DWIDTH 7 0
BBX 0 0 0 0
BITMAP
ENDCHAR
STARTCHAR uni000B
ENCODING 11
SWIDTH 500 0
DWIDTH 7 0
BBX 0 0 0 0
BITMAP
ENDCHAR
STARTCHAR uni000C
ENCODING 12
SWIDTH 500 0
DWIDTH 7 0
BBX 0 0 0 0
BITMAP
ENDCHAR
STARTCHAR uni000D
ENCODING 13
SWIDTH 500 0
DWIDTH 7 0
BBX 0 0 0 0
BITMAP
ENDCHAR
STARTCHAR uni000E
ENCODING 14
SWIDTH 500 0
DWIDTH 7 0
BBX 0 0 0 0
BITMAP
ENDCHAR
STARTCHAR uni000F
ENCODING 15
SWIDTH 500 0
DWIDTH 7 0
BBX 0 0 0 0
BITMAP
ENDCHAR
STARTCHAR uni0010
ENCODING 16
SWIDTH 500 0
DWIDTH 7 0
BBX 0 0 0 0
BITMAP
ENDCHAR
STARTCHAR uni0011
ENCODING 17
SWIDTH 500 0
DWIDTH 7 0
BBX 0 0 0 0
BITMAP
ENDCHAR
STARTCHAR uni0012
ENCODING 18
SWIDTH 500 0
DWIDTH 7 0
BBX 0 0 0 0
BITMAP
ENDCHAR
STARTCHAR uni0013
ENCODING 19
SWIDTH 500 0
DWIDTH 7 0
BBX 0 0 0 0
BITMAP
ENDCHAR
STARTCHAR uni0014
ENCODING 20
SWIDTH 500 0
DWIDTH 7 0
BBX 0 0 0 0
BITMAP
ENDCHAR
STARTCHAR uni0015
ENCODING 21
SWIDTH 500 0
DWIDTH 7 0
BBX 0 0 0 0
BITMAP
ENDCHAR
STARTCHAR uni0016
ENCODING 22
SWIDTH 500 0
DWIDTH 7 0
BBX 0 0 0 0
BITMAP
ENDCHAR
STARTCHAR uni0017
ENCODING 23
SWIDTH 500 0
DWIDTH 7 0
BBX 0 0 0 0
BITMAP
ENDCHAR
STARTCHAR uni0018
ENCODING 24
SWIDTH 500 0
DWIDTH 7 0
BBX 0 0 0 0
BITMAP
ENDCHAR
STARTCHAR uni0019
ENCODING 25
SWIDTH 500 0
DWIDTH 7 0
BBX 0 0 0 0
BITMAP
ENDCHAR
STARTCHAR uni001A
ENCODING 26
SWIDTH 500 0
DWIDTH 7 0
BBX 0 0 0 0
BITMAP
ENDCHAR
STARTCHAR uni001B
ENCODING 27
SWIDTH 500 0
DWIDTH 7 0
BBX 0 0 0 0
BITMAP
ENDCHAR
STARTCHAR uni001C
ENCODING 28
SWIDTH 500 0
DWIDTH 7 0
BBX 0 0 0 0
BITMAP
ENDCHAR
STARTCHAR uni001D
ENCODING 29
SWIDTH 500 0
DWIDTH 7 0
BBX 0 0 0 0
BITMAP
ENDCHAR
STARTCHAR uni001E
ENCODING 30
SWIDTH 500 0
DWIDTH 7 0
BBX 0 0 0 0
BITMAP
ENDCHAR
STARTCHAR uni001F
ENCODING 31
SWIDTH 500 0
DWIDTH 7 0
BBX 0 0 0 0
BITMAP
ENDCHAR
STARTCHAR space
ENCODING 32
SWIDTH 500 0
DWIDTH 7 0
BBX 0 0 0 0
BITMAP
ENDCHAR
STARTCHAR exclam
ENCODING 33
SWIDTH 500 0
DWIDTH 7 0
BBX 1 11 3 -1
BITMAP
80
80
80
80
80
80
80
80
00
80
80
ENDCHAR
STARTCHAR quotedbl
ENCODING 34
SWIDTH 500 0
DWIDTH 7 0
BBX 3 4 2 6
BITMAP
A0
A0
A0
A0
ENDCHAR
STARTCHAR numbersign
ENCODING 35
SWIDTH 500 0
DWIDTH 7 0
BBX 7 11 0 -1
BITMAP
0A
0A
14
14
7E
28
FC
50
50
A0
A0
ENDCHAR
STARTCHAR dollar
ENCODING 36
SWIDTH 500 0
DWIDTH 7 0
BBX 5 12 1 -2
BITMAP
20
70
A8
A8
A0
60
30
28
A8
A8
70
20
ENDCHAR
STARTCHAR percent
ENCODING 37
SWIDTH 500 0
DWIDTH 7 0
BBX 7 11 0 -1
BITMAP
44
BC
A4
A8
48
10
14
2A
2A
4A
44
ENDCHAR
STARTCHAR ampersand
ENCODING 38
SWIDTH 500 0
DWIDTH 7 0
BBX 7 11 0 -1
BITMAP
30
48
48
50
36
24
54
94
88
9A
66
ENDCHAR
STARTCHAR quotesingle
ENCODING 39
SWIDTH 500 0
DWIDTH 7 0
BBX 1 4 3 6
BITMAP
80
80
80
80
ENDCHAR
STARTCHAR parenleft
ENCODING 40
SWIDTH 500 0
DWIDTH 7 0
BBX 4 13 2 -3
BITMAP
10
20
40
40
80
80
80
80
80
40
40
20
10
ENDCHAR
STARTCHAR parenright
ENCODING 41
SWIDTH 500 0
DWIDTH 7 0
BBX 4 13 2 -3
BITMAP
80
40
20
20
10
10
10
10
10
20
20
40
80
ENDCHAR
STARTCHAR asterisk
ENCODING 42
SWIDTH 500 0
DWIDTH 7 0
BBX 5 7 1 3
BITMAP
20
A8
70
20
70
A8
20
ENDCHAR
STARTCHAR plus
ENCODING 43
SWIDTH 500 0
DWIDTH 7 0
BBX 7 9 0 -1
BITMAP
10
10
10
10
FE
10
10
10
10
ENDCHAR
STARTCHAR comma
ENCODING 44
SWIDTH 500 0
DWIDTH 7 0
BBX 2 4 3 -3
BITMAP
C0
C0
40
80
ENDCHAR
STARTCHAR hyphen
ENCODING 45
SWIDTH 500 0
DWIDTH 7 0
BBX 4 1 2 2
BITMAP
F0
ENDCHAR
STARTCHAR period
ENCODING 46
SWIDTH 500 0
DWIDTH 7 0
BBX 2 2 3 -1
BITMAP
C0
C0
ENDCHAR
STARTCHAR slash
ENCODING 47
SWIDTH 500 0
DWIDTH 7 0
BBX 4 12 2 -1
BITMAP
10
10
10
20
20
20
40
40
40
80
80
80
ENDCHAR
STARTCHAR zero
ENCODING 48
SWIDTH 500 0
DWIDTH 7 0
BBX 6 11 0 -1
BITMAP
30
48
84
84
84
84
84
84
84
48
30
ENDCHAR
STARTCHAR one
ENCODING 49
SWIDTH 500 0
DWIDTH 7 0
BBX 3 11 2 -1
BITMAP
40
C0
40
40
40
40
40
40
40
40
E0
ENDCHAR
STARTCHAR two
ENCODING 50
SWIDTH 500 0
DWIDTH 7 0
BBX 7 11 0 -1
BITMAP
38
44
84
04
08
08
10
20
42
84
FC
ENDCHAR
STARTCHAR three
ENCODING 51
SWIDTH 500 0
DWIDTH 7 0
BBX 6 11 0 -1
BITMAP
38
44
04
08
30
08
04
04
04
88
70
ENDCHAR
STARTCHAR four
ENCODING 52
SWIDTH 500 0
DWIDTH 7 0
BBX 6 11 0 -1
BITMAP
08
18
28
28
48
48
88
FC
08
08
08
ENDCHAR
STARTCHAR five
ENCODING 53
SWIDTH 500 0
DWIDTH 7 0
BBX 6 11 0 -1
BITMAP
7C
40
40
70
08
04
04
04
04
88
70
ENDCHAR
STARTCHAR six
ENCODING 54
SWIDTH 500 0
DWIDTH 7 0
BBX 6 11 0 -1
BITMAP
3C
40
80
B0
C8
84
84
84
84
48
30
ENDCHAR
STARTCHAR seven
ENCODING 55
SWIDTH 500 0
DWIDTH 7 0
BBX 6 11 0 -1
BITMAP
FC
84
88
08
08
10
10
10
20
20
20
ENDCHAR
STARTCHAR eight
ENCODING 56
SWIDTH 500 0
DWIDTH 7 0
BBX 6 11 0 -1
BITMAP
30
48
84
84
48
30
48
84
84
48
30
ENDCHAR
STARTCHAR nine
ENCODING 57
SWIDTH 500 0
DWIDTH 7 0
BBX 6 11 0 -1
BITMAP
30
48
84
84
84
84
4C
34
08
10
E0
ENDCHAR
STARTCHAR colon
ENCODING 58
SWIDTH 500 0
DWIDTH 7 0
BBX 2 7 3 -1
BITMAP
C0
C0
00
00
00
C0
C0
ENDCHAR
STARTCHAR semicolon
ENCODING 59
SWIDTH 500 0
DWIDTH 7 0
BBX 2 9 3 -3
BITMAP
C0
C0
00
00
00
C0
C0
40
80
ENDCHAR
STARTCHAR less
ENCODING 60
SWIDTH 500 0
DWIDTH 7 0
BBX 7 7 0 0
BITMAP
02
0C
30
C0
30
0C
02
ENDCHAR
STARTCHAR equal
ENCODING 61
SWIDTH 500 0
DWIDTH 7 0
BBX 6 4 0 1
BITMAP
FC
00
00
FC
ENDCHAR
STARTCHAR greater
ENCODING 62
SWIDTH 500 0
DWIDTH 7 0
BBX 7 7 0 0
BITMAP
80
60
18
06
18
60
80
ENDCHAR
STARTCHAR question
ENCODING 63
SWIDTH 500 0
DWIDTH 7 0
BBX 5 11 1 -1
BITMAP
70
88
88
08
10
10
20
20
00
20
20
ENDCHAR
STARTCHAR at
ENCODING 64
SWIDTH 500 0
DWIDTH 7 0
BBX 7 11 0 -1
BITMAP
38
44
82
9A
AA
AA
AA
AA
9C
42
3C
ENDCHAR
STARTCHAR A
ENCODING 65
SWIDTH 500 0
DWIDTH 7 0
BBX 7 11 0 -1
BITMAP
10
10
10
28
28
28
38
44
44
44
EE
ENDCHAR
STARTCHAR B
ENCODING 66
SWIDTH 500 0
DWIDTH 7 0
BBX 6 11 0 -1
BITMAP
F8
44
44
44
44
78
44
44
44
44
F8
ENDCHAR
STARTCHAR C
ENCODING 67
SWIDTH 500 0
DWIDTH 7 0
BBX 6 11 0 -1
BITMAP
34
4C
84
80
80
80
80
80
80
44
38
ENDCHAR
STARTCHAR D
ENCODING 68
SWIDTH 500 0
DWIDTH 7 0
BBX 6 11 0 -1
BITMAP
F0
48
44
44
44
44
44
44
44
48
F0
ENDCHAR
STARTCHAR E
ENCODING 69
SWIDTH 500 0
DWIDTH 7 0
BBX 6 11 0 -1
BITMAP
FC
44
44
40
48
78
48
40
44
44
FC
ENDCHAR
STARTCHAR F
ENCODING 70
SWIDTH 500 0
DWIDTH 7 0
BBX 6 11 0 -1
BITMAP
FC
44
44
40
48
78
48
40
40
40
E0
ENDCHAR
STARTCHAR G
ENCODING 71
SWIDTH 500 0
DWIDTH 7 0
BBX 6 11 0 -1
BITMAP
68
98
88
80
80
9C
88
88
88
88
70
ENDCHAR
STARTCHAR H
ENCODING 72
SWIDTH 500 0
DWIDTH 7 0
BBX 6 11 0 -1
BITMAP
CC
48
48
48
48
78
48
48
48
48
CC
ENDCHAR
STARTCHAR I
ENCODING 73
SWIDTH 500 0
DWIDTH 7 0
BBX 3 11 2 -1
BITMAP
E0
40
40
40
40
40
40
40
40
40
E0
ENDCHAR
STARTCHAR J
ENCODING 74
SWIDTH 500 0
DWIDTH 7 0
BBX 5 11 1 -1
BITMAP
38
10
10
10
10
10
10
10
10
90
60
ENDCHAR
STARTCHAR K
ENCODING 75
SWIDTH 500 0
DWIDTH 7 0
BBX 6 11 0 -1
BITMAP
EC
48
50
50
60
60
50
50
48
48
EC
ENDCHAR
STARTCHAR L
ENCODING 76
SWIDTH 500 0
DWIDTH 7 0
BBX 6 11 0 -1
BITMAP
E0
40
40
40
40
40
40
40
44
48
F8
ENDCHAR
STARTCHAR M
ENCODING 77
SWIDTH 500 0
DWIDTH 7 0
BBX 5 11 0 -1
BITMAP
88
88
D8
D8
D8
D8
A8
A8
A8
A8
88
ENDCHAR
STARTCHAR N
ENCODING 78
SWIDTH 500 0
DWIDTH 7 0
BBX 6 11 0 -1
BITMAP
DC
48
68
68
68
68
58
58
58
48
E8
ENDCHAR
STARTCHAR O
ENCODING 79
SWIDTH 500 0
DWIDTH 7 0
BBX 6 11 0 -1
BITMAP
30
48
84
84
84
84
84
84
84
48
30
ENDCHAR
STARTCHAR P
ENCODING 80
SWIDTH 500 0
DWIDTH 7 0
BBX 6 11 0 -1
BITMAP
F8
44
44
44
44
78
40
40
40
40
E0
ENDCHAR
STARTCHAR Q
ENCODING 81
SWIDTH 500 0
DWIDTH 7 0
BBX 6 13 0 -3
BITMAP
30
48
84
84
84
84
84
84
84
48
30
10
0C
ENDCHAR
STARTCHAR R
ENCODING 82
SWIDTH 500 0
DWIDTH 7 0
BBX 7 11 0 -1
BITMAP
F8
44
44
44
44
78
50
48
48
44
E6
ENDCHAR
STARTCHAR S
ENCODING 83
SWIDTH 500 0
DWIDTH 7 0
BBX 6 11 0 -1
BITMAP
34
4C
84
80
40
30
08
04
84
C4
B8
ENDCHAR
STARTCHAR T
ENCODING 84
SWIDTH 500 0
DWIDTH 7 0
BBX 7 11 0 -1
BITMAP
FE
92
10
10
10
10
10
10
10
10
38
ENDCHAR
STARTCHAR U
ENCODING 85
SWIDTH 500 0
DWIDTH 7 0
BBX 6 11 0 -1
BITMAP
CC
48
48
48
48
48
48
48
48
48
30
ENDCHAR
STARTCHAR V
ENCODING 86
SWIDTH 500 0
DWIDTH 7 0
BBX 7 11 0 -1
BITMAP
EE
44
44
44
28
28
28
28
10
10
10
ENDCHAR
STARTCHAR W
ENCODING 87
SWIDTH 500 0
DWIDTH 7 0
BBX 6 11 0 -1
BITMAP
CC
88
A8
A8
A8
A8
A8
50
50
50
50
ENDCHAR
STARTCHAR X
ENCODING 88
SWIDTH 500 0
DWIDTH 7 0
BBX 6 11 0 -1
BITMAP
CC
48
48
48
30
30
30
48
48
48
CC
ENDCHAR
STARTCHAR Y
ENCODING 89
SWIDTH 500 0
DWIDTH 7 0
BBX 7 11 0 -1
BITMAP
EE
44
44
28
28
10
10
10
10
10
38
ENDCHAR
STARTCHAR Z
ENCODING 90
SWIDTH 500 0
DWIDTH 7 0
BBX 6 11 0 -1
BITMAP
FC
84
88
08
10
10
20
20
44
84
FC
ENDCHAR
STARTCHAR bracketleft
ENCODING 91
SWIDTH 500 0
DWIDTH 7 0
BBX 3 13 2 -3
BITMAP
E0
80
80
80
80
80
80
80
80
80
80
80
E0
ENDCHAR
STARTCHAR backslash
ENCODING 92
SWIDTH 500 0
DWIDTH 7 0
BBX 4 12 2 -1
BITMAP
80
80
80
40
40
40
20
20
20
10
10
10
ENDCHAR
STARTCHAR bracketright
ENCODING 93
SWIDTH 500 0
DWIDTH 7 0
BBX 3 13 2 -3
BITMAP
E0
20
20
20
20
20
20
20
20
20
20
20
E0
ENDCHAR
STARTCHAR asciicircum
ENCODING 94
SWIDTH 500 0
DWIDTH 7 0
BBX 5 6 1 4
BITMAP
20
20
50
50
88
88
ENDCHAR
STARTCHAR underscore
ENCODING 95
SWIDTH 500 0
DWIDTH 7 0
BBX 7 1 0 -3
BITMAP
FE
ENDCHAR
STARTCHAR grave
ENCODING 96
SWIDTH 500 0
DWIDTH 7 0
BBX 4 3 1 7
BITMAP
C0
60
10
ENDCHAR
STARTCHAR a
ENCODING 97
SWIDTH 500 0
DWIDTH 7 0
BBX 6 7 0 -1
BITMAP
70
88
38
48
88
98
6C
ENDCHAR
STARTCHAR b
ENCODING 98
SWIDTH 500 0
DWIDTH 7 0
BBX 6 11 0 -1
BITMAP
C0
40
40
40
58
64
44
44
44
44
38
ENDCHAR
STARTCHAR c
ENCODING 99
SWIDTH 500 0
DWIDTH 7 0
BBX 6 7 0 -1
BITMAP
38
44
80
80
80
44
38
ENDCHAR
STARTCHAR d
ENCODING 100
SWIDTH 500 0
DWIDTH 7 0
BBX 6 11 0 -1
BITMAP
18
08
08
08
68
98
88
88
88
88
74
ENDCHAR
STARTCHAR e
ENCODING 101
SWIDTH 500 0
DWIDTH 7 0
BBX 6 7 0 -1
BITMAP
30
48
84
FC
80
44
38
ENDCHAR
STARTCHAR f
ENCODING 102
SWIDTH 500 0
DWIDTH 7 0
BBX 6 11 0 -1
BITMAP
18
24
20
20
F8
20
20
20
20
20
70
ENDCHAR
STARTCHAR g
ENCODING 103
SWIDTH 500 0
DWIDTH 7 0
BBX 6 9 0 -3
BITMAP
34
48
48
48
30
40
F8
84
78
ENDCHAR
STARTCHAR h
ENCODING 104
SWIDTH 500 0
DWIDTH 7 0
BBX 6 11 0 -1
BITMAP
C0
40
40
40
70
48
48
48
48
48
EC
ENDCHAR
STARTCHAR i
ENCODING 105
SWIDTH 500 0
DWIDTH 7 0
BBX 3 11 2 -1
BITMAP
40
00
00
00
40
C0
40
40
40
40
E0
ENDCHAR
STARTCHAR j
ENCODING 106
SWIDTH 500 0
DWIDTH 7 0
BBX 4 13 1 -3
BITMAP
10
00
00
00
10
30
10
10
10
10
10
90
60
ENDCHAR
STARTCHAR k
ENCODING 107
SWIDTH 500 0
DWIDTH 7 0
BBX 7 11 0 -1
BITMAP
C0
40
40
40
4C
48
50
70
48
44
EE
ENDCHAR
STARTCHAR l
ENCODING 108
SWIDTH 500 0
DWIDTH 7 0
BBX 3 11 2 -1
BITMAP
C0
40
40
40
40
40
40
40
40
40
E0
ENDCHAR
STARTCHAR m
ENCODING 109
SWIDTH 500 0
DWIDTH 7 0
BBX 7 7 0 -1
BITMAP
A8
54
54
54
54
54
D6
ENDCHAR
STARTCHAR n
ENCODING 110
SWIDTH 500 0
DWIDTH 7 0
BBX 7 7 0 -1
BITMAP
B8
44
44
44
44
44
EE
ENDCHAR
STARTCHAR o
ENCODING 111
SWIDTH 500 0
DWIDTH 7 0
BBX 5 7 1 -1
BITMAP
70
88
88
88
88
88
70
ENDCHAR
STARTCHAR p
ENCODING 112
SWIDTH 500 0
DWIDTH 7 0
BBX 6 9 0 -3
BITMAP
B0
48
44
44
44
48
70
40
E0
ENDCHAR
STARTCHAR q
ENCODING 113
SWIDTH 500 0
DWIDTH 7 0
BBX 6 9 0 -3
BITMAP
34
48
88
88
88
48
38
08
1C
ENDCHAR
STARTCHAR r
ENCODING 114
SWIDTH 500 0
DWIDTH 7 0
BBX 4 7 2 -1
BITMAP
B0
40
40
40
40
40
E0
ENDCHAR
STARTCHAR s
ENCODING 115
SWIDTH 500 0
DWIDTH 7 0
BBX 5 7 1 -1
BITMAP
70
88
80
70
08
88
70
ENDCHAR
STARTCHAR t
ENCODING 116
SWIDTH 500 0
DWIDTH 7 0
BBX 5 9 1 -1
BITMAP
20
20
F8
20
20
20
20
28
10
ENDCHAR
STARTCHAR u
ENCODING 117
SWIDTH 500 0
DWIDTH 7 0
BBX 6 7 0 -1
BITMAP
D8
48
48
48
48
48
34
ENDCHAR
STARTCHAR v
ENCODING 118
SWIDTH 500 0
DWIDTH 7 0
BBX 7 7 0 -1
BITMAP
EE
44
44
28
28
10
10
ENDCHAR
STARTCHAR w
ENCODING 119
SWIDTH 500 0
DWIDTH 7 0
BBX 7 7 0 -1
BITMAP
D6
54
54
54
28
28
28
ENDCHAR
STARTCHAR x
ENCODING 120
SWIDTH 500 0
DWIDTH 7 0
BBX 6 7 0 -1
BITMAP
CC
48
30
30
30
48
CC
ENDCHAR
STARTCHAR y
ENCODING 121
SWIDTH 500 0
DWIDTH 7 0
BBX 7 9 0 -3
BITMAP
EE
44
44
28
28
10
10
20
C0
ENDCHAR
STARTCHAR z
ENCODING 122
SWIDTH 500 0
DWIDTH 7 0
BBX 5 7 1 -1
BITMAP
F8
88
10
20
40
88
F8
ENDCHAR
STARTCHAR braceleft
ENCODING 123
SWIDTH 500 0
DWIDTH 7 0
BBX 3 12 2 -3
BITMAP
20
40
40
40
40
80
80
40
40
40
40
20
ENDCHAR
STARTCHAR bar
ENCODING 124
SWIDTH 500 0
DWIDTH 7 0
BBX 1 11 3 -1
BITMAP
80
80
80
80
80
80
80
80
80
80
80
ENDCHAR
STARTCHAR braceright
ENCODING 125
SWIDTH 500 0
DWIDTH 7 0
BBX 3 12 3 -3
BITMAP
80
40
40
40
40
20
20
40
40
40
40
80
ENDCHAR
STARTCHAR asciitilde
ENCODING 126
SWIDTH 500 0
DWIDTH 7 0
BBX 7 2 0 2
BITMAP
72
9C
ENDCHAR
STARTCHAR uni007F
ENCODING 127
SWIDTH 500 0
DWIDTH 7 0
BBX 0 0 0 0
BITMAP
ENDCHAR
STARTCHAR uni0080
ENCODING 128
SWIDTH 500 0
DWIDTH 7 0
BBX 0 0 0 0
BITMAP
ENDCHAR
STARTCHAR uni0081
ENCODING 129
SWIDTH 500 0
DWIDTH 7 0
BBX 0 0 0 0
BITMAP
ENDCHAR
STARTCHAR uni0082
ENCODING 130
SWIDTH 500 0
DWIDTH 7 0
BBX 2 4 3 -3
BITMAP
C0
C0
40
80
ENDCHAR
STARTCHAR uni0083
ENCODING 131
SWIDTH 500 0
DWIDTH 7 0
BBX 7 13 0 -3
BITMAP
06
0A
08
10
3C
10
10
10
10
10
10
20
C0
ENDCHAR
STARTCHAR uni0084
ENCODING 132
SWIDTH 500 0
DWIDTH 7 0
BBX 5 4 1 -3
BITMAP
D8
D8
48
90
ENDCHAR
STARTCHAR uni0085
ENCODING 133
SWIDTH 500 0
DWIDTH 7 0
BBX 7 1 0 -1
BITMAP
92
ENDCHAR
STARTCHAR uni0086
ENCODING 134
SWIDTH 500 0
DWIDTH 7 0
BBX 5 13 1 -3
BITMAP
20
20
20
F8
20
20
70
20
20
20
20
20
20
ENDCHAR
STARTCHAR uni0087
ENCODING 135
SWIDTH 500 0
DWIDTH 7 0
BBX 5 13 1 -3
BITMAP
20
20
20
F8
20
20
70
20
20
F8
20
20
20
ENDCHAR
STARTCHAR uni0088
ENCODING 136
SWIDTH 500 0
DWIDTH 7 0
BBX 4 2 2 10
BITMAP
60
90
ENDCHAR
STARTCHAR uni0089
ENCODING 137
SWIDTH 500 0
DWIDTH 7 0
BBX 7 10 0 -1
BITMAP
08
78
A8
B0
D0
20
36
2A
6A
54
ENDCHAR
STARTCHAR uni008A
ENCODING 138
SWIDTH 500 0
DWIDTH 7 0
BBX 6 13 1 -1
BITMAP
50
20
00
74
8C
84
40
30
08
04
84
C4
B8
ENDCHAR
STARTCHAR uni008B
ENCODING 139
SWIDTH 500 0
DWIDTH 7 0
BBX 3 5 2 0
BITMAP
20
40
80
40
20
ENDCHAR
STARTCHAR uni008C
ENCODING 140
SWIDTH 500 0
DWIDTH 7 0
BBX 7 9 0 -1
BITMAP
7E
92
90
94
9C
94
90
92
7E
ENDCHAR
STARTCHAR uni008D
ENCODING 141
SWIDTH 500 0
DWIDTH 7 0
BBX 0 0 0 0
BITMAP
ENDCHAR
STARTCHAR uni008E
ENCODING 142
SWIDTH 500 0
DWIDTH 7 0
BBX 0 0 0 0
BITMAP
ENDCHAR
STARTCHAR uni008F
ENCODING 143
SWIDTH 500 0
DWIDTH 7 0
BBX 0 0 0 0
BITMAP
ENDCHAR
STARTCHAR uni0090
ENCODING 144
SWIDTH 500 0
DWIDTH 7 0
BBX 0 0 0 0
BITMAP
ENDCHAR
STARTCHAR uni0091
ENCODING 145
SWIDTH 500 0
DWIDTH 7 0
BBX 2 4 5 6
BITMAP
40
80
C0
C0
ENDCHAR
STARTCHAR uni0092
ENCODING 146
SWIDTH 500 0
DWIDTH 7 0
BBX 2 4 1 6
BITMAP
C0
C0
40
80
ENDCHAR
STARTCHAR uni0093
ENCODING 147
SWIDTH 500 0
DWIDTH 7 0
BBX 5 4 2 6
BITMAP
48
90
D8
D8
ENDCHAR
STARTCHAR uni0094
ENCODING 148
SWIDTH 500 0
DWIDTH 7 0
BBX 5 4 1 6
BITMAP
D8
D8
48
90
ENDCHAR
STARTCHAR uni0095
ENCODING 149
SWIDTH 500 0
DWIDTH 7 0
BBX 0 0 0 0
BITMAP
ENDCHAR
STARTCHAR uni0096
ENCODING 150
SWIDTH 500 0
DWIDTH 7 0
BBX 3 1 0 2
BITMAP
E0
ENDCHAR
STARTCHAR uni0097
ENCODING 151
SWIDTH 500 0
DWIDTH 7 0
BBX 7 1 0 4
BITMAP
FE
ENDCHAR
STARTCHAR uni0098
ENCODING 152
SWIDTH 500 0
DWIDTH 7 0
BBX 5 2 1 9
BITMAP
68
B0
ENDCHAR
STARTCHAR uni0099
ENCODING 153
SWIDTH 500 0
DWIDTH 7 0
BBX 7 6 0 3
BITMAP
F2
56
5E
5A
52
52
ENDCHAR
STARTCHAR uni009A
ENCODING 154
SWIDTH 500 0
DWIDTH 7 0
BBX 4 10 2 -1
BITMAP
90
60
00
70
90
40
20
90
D0
A0
ENDCHAR
STARTCHAR uni009B
ENCODING 155
SWIDTH 500 0
DWIDTH 7 0
BBX 4 7 2 -1
BITMAP
80
40
20
10
20
40
80
ENDCHAR
STARTCHAR uni009C
ENCODING 156
SWIDTH 500 0
DWIDTH 7 0
BBX 7 7 0 -1
BITMAP
6C
92
9E
90
90
92
6C
ENDCHAR
STARTCHAR uni009D
ENCODING 157
SWIDTH 500 0
DWIDTH 7 0
BBX 0 0 0 0
BITMAP
ENDCHAR
STARTCHAR uni009E
ENCODING 158
SWIDTH 500 0
DWIDTH 7 0
BBX 0 0 0 0
BITMAP
ENDCHAR
STARTCHAR uni009F
ENCODING 159
SWIDTH 500 0
DWIDTH 7 0
BBX 7 13 0 -1
BITMAP
24
00
EE
44
44
28
28
10
10
10
10
10
38
ENDCHAR
STARTCHAR uni00A0
ENCODING 160
SWIDTH 500 0
DWIDTH 7 0
BBX 0 0 0 0
BITMAP
ENDCHAR
STARTCHAR exclamdown
ENCODING 161
SWIDTH 500 0
DWIDTH 7 0
BBX 1 10 3 -3
BITMAP
80
80
00
80
80
80
80
80
80
80
ENDCHAR
STARTCHAR cent
ENCODING 162
SWIDTH 500 0
DWIDTH 7 0
BBX 6 11 1 -3
BITMAP
10
10
38
54
90
90
90
54
38
10
10
ENDCHAR
STARTCHAR sterling
ENCODING 163
SWIDTH 500 0
DWIDTH 7 0
BBX 7 11 0 -1
BITMAP
0C
12
22
20
20
FC
10
10
D0
B2
6C
ENDCHAR
STARTCHAR currency
ENCODING 164
SWIDTH 500 0
DWIDTH 7 0
BBX 7 9 0 0
BITMAP
82
7C
44
44
44
44
44
7C
82
ENDCHAR
STARTCHAR yen
ENCODING 165
SWIDTH 500 0
DWIDTH 7 0
BBX 7 11 0 -1
BITMAP
EE
44
28
28
10
7C
10
7C
10
10
38
ENDCHAR
STARTCHAR brokenbar
ENCODING 166
SWIDTH 500 0
DWIDTH 7 0
BBX 1 11 1 -1
BITMAP
80
80
80
80
00
00
00
80
80
80
80
ENDCHAR
STARTCHAR section
ENCODING 167
SWIDTH 500 0
DWIDTH 7 0
BBX 5 13 1 -3
BITMAP
70
88
88
40
60
90
88
48
30
10
88
88
70
ENDCHAR
STARTCHAR dieresis
ENCODING 168
SWIDTH 500 0
DWIDTH 7 0
BBX 4 1 0 9
BITMAP
90
ENDCHAR
STARTCHAR copyright
ENCODING 169
SWIDTH 500 0
DWIDTH 7 0
BBX 7 7 0 3
BITMAP
38
44
9A
A2
A2
5C
38
ENDCHAR
STARTCHAR ordfeminine
ENCODING 170
SWIDTH 500 0
DWIDTH 7 0
BBX 4 7 2 3
BITMAP
40
A0
60
A0
70
00
F0
ENDCHAR
STARTCHAR guillemotleft
ENCODING 171
SWIDTH 500 0
DWIDTH 7 0
BBX 7 7 0 -1
BITMAP
12
24
48
90
48
24
12
ENDCHAR
STARTCHAR logicalnot
ENCODING 172
SWIDTH 500 0
DWIDTH 7 0
BBX 7 4 0 1
BITMAP
FE
02
02
02
ENDCHAR
STARTCHAR uni00AD
ENCODING 173
SWIDTH 500 0
DWIDTH 7 0
BBX 4 1 2 2
BITMAP
F0
ENDCHAR
STARTCHAR registered
ENCODING 174
SWIDTH 500 0
DWIDTH 7 0
BBX 7 7 0 3
BITMAP
38
44
B2
AA
B2
6C
38
ENDCHAR
STARTCHAR macron
ENCODING 175
SWIDTH 500 0
DWIDTH 7 0
BBX 5 1 1 9
BITMAP
F8
ENDCHAR
STARTCHAR degree
ENCODING 176
SWIDTH 500 0
DWIDTH 7 0
BBX 3 3 2 8
BITMAP
E0
A0
E0
ENDCHAR
STARTCHAR plusminus
ENCODING 177
SWIDTH 500 0
DWIDTH 7 0
BBX 7 11 0 0
BITMAP
10
10
10
10
FE
10
10
10
10
00
FE
ENDCHAR
STARTCHAR uni00B2
ENCODING 178
SWIDTH 500 0
DWIDTH 7 0
BBX 4 7 2 3
BITMAP
60
90
10
20
40
90
F0
ENDCHAR
STARTCHAR uni00B3
ENCODING 179
SWIDTH 500 0
DWIDTH 7 0
BBX 5 7 1 3
BITMAP
70
88
08
30
08
88
70
ENDCHAR
STARTCHAR acute
ENCODING 180
SWIDTH 500 0
DWIDTH 7 0
BBX 4 3 2 9
BITMAP
30
60
80
ENDCHAR
STARTCHAR mu
ENCODING 181
SWIDTH 500 0
DWIDTH 7 0
BBX 6 9 1 -3
BITMAP
88
88
88
88
88
88
F4
80
80
ENDCHAR
STARTCHAR paragraph
ENCODING 182
SWIDTH 500 0
DWIDTH 7 0
BBX 7 11 0 -1
BITMAP
7E
F4
F4
F4
F4
F4
74
14
14
14
36
ENDCHAR
STARTCHAR periodcentered
ENCODING 183
SWIDTH 500 0
DWIDTH 7 0
BBX 1 2 3 2
BITMAP
80
80
ENDCHAR
STARTCHAR cedilla
ENCODING 184
SWIDTH 500 0
DWIDTH 7 0
BBX 3 4 2 -3
BITMAP
40
60
20
C0
ENDCHAR
STARTCHAR uni00B9
ENCODING 185
SWIDTH 500 0
DWIDTH 7 0
BBX 3 7 2 3
BITMAP
40
C0
40
40
40
40
E0
ENDCHAR
STARTCHAR ordmasculine
ENCODING 186
SWIDTH 500 0
DWIDTH 7 0
BBX 4 7 0 3
BITMAP
60
90
90
90
60
00
F0
ENDCHAR
STARTCHAR guillemotright
ENCODING 187
SWIDTH 500 0
DWIDTH 7 0
BBX 7 7 0 -1
BITMAP
90
48
24
12
24
48
90
ENDCHAR
STARTCHAR onequarter
ENCODING 188
SWIDTH 500 0
DWIDTH 7 0
BBX 7 11 0 -1
BITMAP
42
C2
44
44
4A
EE
16
1A
2E
22
42
ENDCHAR
STARTCHAR onehalf
ENCODING 189
SWIDTH 500 0
DWIDTH 7 0
BBX 7 11 0 -1
BITMAP
42
C2
44
44
48
EC
12
12
24
2A
4E
ENDCHAR
STARTCHAR threequarters
ENCODING 190
SWIDTH 500 0
DWIDTH 7 0
BBX 7 11 0 -1
BITMAP
C2
22
44
24
2A
2E
D6
1A
2E
22
42
ENDCHAR
STARTCHAR questiondown
ENCODING 191
SWIDTH 500 0
DWIDTH 7 0
BBX 5 11 1 -3
BITMAP
20
20
00
20
20
40
40
80
88
88
70
ENDCHAR
STARTCHAR Agrave
ENCODING 192
SWIDTH 500 0
DWIDTH 7 0
BBX 7 13 0 -1
BITMAP
30
08
00
10
10
28
28
28
38
44
44
44
EE
ENDCHAR
STARTCHAR Aacute
ENCODING 193
SWIDTH 500 0
DWIDTH 7 0
BBX 7 13 0 -1
BITMAP
18
20
00
10
10
28
28
28
38
44
44
44
EE
ENDCHAR
STARTCHAR Acircumflex
ENCODING 194
SWIDTH 500 0
DWIDTH 7 0
BBX 7 13 0 -1
BITMAP
10
28
00
10
10
28
28
28
38
44
44
44
EE
ENDCHAR
STARTCHAR Atilde
ENCODING 195
SWIDTH 500 0
DWIDTH 7 0
BBX 7 13 0 -1
BITMAP
34
58
00
10
10
28
28
28
38
44
44
44
EE
ENDCHAR
STARTCHAR Adieresis
ENCODING 196
SWIDTH 500 0
DWIDTH 7 0
BBX 7 13 0 -1
BITMAP
24
00
00
10
10
28
28
28
38
44
44
44
EE
ENDCHAR
STARTCHAR Aring
ENCODING 197
SWIDTH 500 0
DWIDTH 7 0
BBX 7 13 0 -1
BITMAP
38
28
38
10
10
28
28
28
38
44
44
44
EE
ENDCHAR
STARTCHAR AE
ENCODING 198
SWIDTH 500 0
DWIDTH 7 0
BBX 7 10 0 -1
BITMAP
7E
32
30
54
5C
74
50
50
52
DE
ENDCHAR
STARTCHAR Ccedilla
ENCODING 199
SWIDTH 500 0
DWIDTH 7 0
BBX 7 14 0 -3
BITMAP
3A
46
82
80
80
80
80
80
80
42
3C
08
04
18
ENDCHAR
STARTCHAR Egrave
ENCODING 200
SWIDTH 500 0
DWIDTH 7 0
BBX 7 13 0 -1
BITMAP
30
08
00
FE
42
40
44
7C
44
40
42
42
FE
ENDCHAR
STARTCHAR Eacute
ENCODING 201
SWIDTH 500 0
DWIDTH 7 0
BBX 7 13 0 -1
BITMAP
18
20
00
FE
42
40
44
7C
44
40
42
42
FE
ENDCHAR
STARTCHAR Ecircumflex
ENCODING 202
SWIDTH 500 0
DWIDTH 7 0
BBX 7 13 0 -1
BITMAP
18
24
00
FE
42
40
44
7C
44
40
42
42
FE
ENDCHAR
STARTCHAR Edieresis
ENCODING 203
SWIDTH 500 0
DWIDTH 7 0
BBX 7 13 0 -1
BITMAP
28
00
00
FE
42
40
44
7C
44
40
42
42
FE
ENDCHAR
STARTCHAR Igrave
ENCODING 204
SWIDTH 500 0
DWIDTH 7 0
BBX 5 13 1 -1
BITMAP
60
10
00
F8
20
20
20
20
20
20
20
20
F8
ENDCHAR
STARTCHAR Iacute
ENCODING 205
SWIDTH 500 0
DWIDTH 7 0
BBX 5 13 1 -1
BITMAP
18
20
00
F8
20
20
20
20
20
20
20
20
F8
ENDCHAR
STARTCHAR Icircumflex
ENCODING 206
SWIDTH 500 0
DWIDTH 7 0
BBX 5 13 1 -1
BITMAP
20
50
00
F8
20
20
20
20
20
20
20
20
F8
ENDCHAR
STARTCHAR Idieresis
ENCODING 207
SWIDTH 500 0
DWIDTH 7 0
BBX 5 13 1 -1
BITMAP
50
00
00
F8
20
20
20
20
20
20
20
20
F8
ENDCHAR
STARTCHAR Eth
ENCODING 208
SWIDTH 500 0
DWIDTH 7 0
BBX 7 11 0 -1
BITMAP
F8
44
42
42
42
E2
42
42
42
44
F8
ENDCHAR
STARTCHAR Ntilde
ENCODING 209
SWIDTH 500 0
DWIDTH 7 0
BBX 7 13 0 -1
BITMAP
34
58
00
CE
64
64
54
54
54
4C
4C
44
E4
ENDCHAR
STARTCHAR Ograve
ENCODING 210
SWIDTH 500 0
DWIDTH 7 0
BBX 7 13 0 -1
BITMAP
30
08
00
38
44
82
82
82
82
82
82
44
38
ENDCHAR
STARTCHAR Oacute
ENCODING 211
SWIDTH 500 0
DWIDTH 7 0
BBX 7 13 0 -1
BITMAP
18
20
00
38
44
82
82
82
82
82
82
44
38
ENDCHAR
STARTCHAR Ocircumflex
ENCODING 212
SWIDTH 500 0
DWIDTH 7 0
BBX 7 13 0 -1
BITMAP
10
28
00
38
44
82
82
82
82
82
82
44
38
ENDCHAR
STARTCHAR Otilde
ENCODING 213
SWIDTH 500 0
DWIDTH 7 0
BBX 7 13 0 -1
BITMAP
34
58
00
38
44
82
82
82
82
82
82
44
38
ENDCHAR
STARTCHAR Odieresis
ENCODING 214
SWIDTH 500 0
DWIDTH 7 0
BBX 7 13 0 -1
BITMAP
44
00
00
38
44
82
82
82
82
82
82
44
38
ENDCHAR
STARTCHAR multiply
ENCODING 215
SWIDTH 500 0
DWIDTH 7 0
BBX 7 7 0 0
BITMAP
82
44
28
10
28
44
82
ENDCHAR
STARTCHAR Oslash
ENCODING 216
SWIDTH 500 0
DWIDTH 7 0
BBX 7 13 0 -2
BITMAP
02
3A
44
46
8A
8A
92
A2
A2
C4
44
B8
80
ENDCHAR
STARTCHAR Ugrave
ENCODING 217
SWIDTH 500 0
DWIDTH 7 0
BBX 7 13 0 -1
BITMAP
30
08
00
EE
44
44
44
44
44
44
44
44
38
ENDCHAR
STARTCHAR Uacute
ENCODING 218
SWIDTH 500 0
DWIDTH 7 0
BBX 7 13 0 -1
BITMAP
18
20
00
EE
44
44
44
44
44
44
44
44
38
ENDCHAR
STARTCHAR Ucircumflex
ENCODING 219
SWIDTH 500 0
DWIDTH 7 0
BBX 7 13 0 -1
BITMAP
10
28
00
EE
44
44
44
44
44
44
44
44
38
ENDCHAR
STARTCHAR Udieresis
ENCODING 220
SWIDTH 500 0
DWIDTH 7 0
BBX 7 13 0 -1
BITMAP
24
24
00
EE
44
44
44
44
44
44
44
44
38
ENDCHAR
STARTCHAR Yacute
ENCODING 221
SWIDTH 500 0
DWIDTH 7 0
BBX 7 13 0 -1
BITMAP
18
20
00
EE
44
28
28
10
10
10
10
10
38
ENDCHAR
STARTCHAR Thorn
ENCODING 222
SWIDTH 500 0
DWIDTH 7 0
BBX 6 10 1 -1
BITMAP
E0
40
78
44
44
44
78
40
40
E0
ENDCHAR
STARTCHAR germandbls
ENCODING 223
SWIDTH 500 0
DWIDTH 7 0
BBX 7 11 0 -1
BITMAP
38
44
44
44
58
44
42
42
42
52
DC
ENDCHAR
STARTCHAR agrave
ENCODING 224
SWIDTH 500 0
DWIDTH 7 0
BBX 5 10 1 -1
BITMAP
60
18
00
60
90
10
70
90
90
78
ENDCHAR
STARTCHAR aacute
ENCODING 225
SWIDTH 500 0
DWIDTH 7 0
BBX 5 10 1 -1
BITMAP
30
C0
00
60
90
10
70
90
90
78
ENDCHAR
STARTCHAR acircumflex
ENCODING 226
SWIDTH 500 0
DWIDTH 7 0
BBX 5 10 1 -1
BITMAP
20
50
00
60
90
10
70
90
90
78
ENDCHAR
STARTCHAR atilde
ENCODING 227
SWIDTH 500 0
DWIDTH 7 0
BBX 5 10 1 -1
BITMAP
68
B0
00
60
90
10
70
90
90
78
ENDCHAR
STARTCHAR adieresis
ENCODING 228
SWIDTH 500 0
DWIDTH 7 0
BBX 5 10 1 -1
BITMAP
50
50
00
60
90
10
70
90
90
78
ENDCHAR
STARTCHAR aring
ENCODING 229
SWIDTH 500 0
DWIDTH 7 0
BBX 5 11 1 -1
BITMAP
70
50
70
00
60
90
10
70
90
90
78
ENDCHAR
STARTCHAR ae
ENCODING 230
SWIDTH 500 0
DWIDTH 7 0
BBX 7 7 0 -1
BITMAP
6C
92
1E
70
90
92
6C
ENDCHAR
STARTCHAR ccedilla
ENCODING 231
SWIDTH 500 0
DWIDTH 7 0
BBX 6 11 1 -3
BITMAP
30
48
80
80
80
84
48
30
20
10
30
ENDCHAR
STARTCHAR egrave
ENCODING 232
SWIDTH 500 0
DWIDTH 7 0
BBX 5 10 1 -1
BITMAP
60
18
00
70
88
F8
80
80
88
70
ENDCHAR
STARTCHAR eacute
ENCODING 233
SWIDTH 500 0
DWIDTH 7 0
BBX 5 10 1 -1
BITMAP
18
60
00
70
88
F8
80
80
88
70
ENDCHAR
STARTCHAR ecircumflex
ENCODING 234
SWIDTH 500 0
DWIDTH 7 0
BBX 5 10 1 -1
BITMAP
20
50
00
70
88
88
F8
80
88
70
ENDCHAR
STARTCHAR edieresis
ENCODING 235
SWIDTH 500 0
DWIDTH 7 0
BBX 5 10 1 -1
BITMAP
50
50
00
70
88
88
F8
80
88
70
ENDCHAR
STARTCHAR igrave
ENCODING 236
SWIDTH 500 0
DWIDTH 7 0
BBX 3 10 3 -1
BITMAP
C0
20
00
C0
40
40
40
40
40
E0
ENDCHAR
STARTCHAR iacute
ENCODING 237
SWIDTH 500 0
DWIDTH 7 0
BBX 3 10 3 -1
BITMAP
40
A0
00
C0
40
40
40
40
40
E0
ENDCHAR
STARTCHAR icircumflex
ENCODING 238
SWIDTH 500 0
DWIDTH 7 0
BBX 3 10 3 -1
BITMAP
40
A0
00
C0
40
40
40
40
40
E0
ENDCHAR
STARTCHAR idieresis
ENCODING 239
SWIDTH 500 0
DWIDTH 7 0
BBX 3 10 2 -1
BITMAP
A0
A0
00
C0
40
40
40
40
40
E0
ENDCHAR
STARTCHAR eth
ENCODING 240
SWIDTH 500 0
DWIDTH 7 0
BBX 6 11 1 -1
BITMAP
6C
38
48
04
34
4C
84
84
84
88
70
ENDCHAR
STARTCHAR ntilde
ENCODING 241
SWIDTH 500 0
DWIDTH 7 0
BBX 7 10 0 -1
BITMAP
34
58
00
D8
64
44
44
44
44
EE
ENDCHAR
STARTCHAR ograve
ENCODING 242
SWIDTH 500 0
DWIDTH 7 0
BBX 5 10 1 -1
BITMAP
60
10
00
70
88
88
88
88
88
70
ENDCHAR
STARTCHAR oacute
ENCODING 243
SWIDTH 500 0
DWIDTH 7 0
BBX 5 10 1 -1
BITMAP
30
40
00
70
88
88
88
88
88
70
ENDCHAR
STARTCHAR ocircumflex
ENCODING 244
SWIDTH 500 0
DWIDTH 7 0
BBX 5 10 1 -1
BITMAP
20
50
00
70
88
88
88
88
88
70
ENDCHAR
STARTCHAR otilde
ENCODING 245
SWIDTH 500 0
DWIDTH 7 0
BBX 5 10 1 -1
BITMAP
68
B0
00
70
88
88
88
88
88
70
ENDCHAR
STARTCHAR odieresis
ENCODING 246
SWIDTH 500 0
DWIDTH 7 0
BBX 5 10 1 -1
BITMAP
88
88
00
70
88
88
88
88
88
70
ENDCHAR
STARTCHAR divide
ENCODING 247
SWIDTH 500 0
DWIDTH 7 0
BBX 7 8 0 -1
BITMAP
10
10
00
FE
00
00
10
10
ENDCHAR
STARTCHAR oslash
ENCODING 248
SWIDTH 500 0
DWIDTH 7 0
BBX 6 7 1 -1
BITMAP
74
88
94
94
A4
44
B8
ENDCHAR
STARTCHAR ugrave
ENCODING 249
SWIDTH 500 0
DWIDTH 7 0
BBX 7 10 0 -1
BITMAP
30
08
00
CC
44
44
44
44
44
3A
ENDCHAR
STARTCHAR uacute
ENCODING 250
SWIDTH 500 0
DWIDTH 7 0
BBX 7 10 0 -1
BITMAP
18
20
00
CC
44
44
44
44
44
3A
ENDCHAR
STARTCHAR ucircumflex
ENCODING 251
SWIDTH 500 0
DWIDTH 7 0
BBX 7 10 0 -1
BITMAP
10
28
00
CC
44
44
44
44
44
3A
ENDCHAR
STARTCHAR udieresis
ENCODING 252
SWIDTH 500 0
DWIDTH 7 0
BBX 7 10 0 -1
BITMAP
48
48
00
CC
44
44
44
44
44
3A
ENDCHAR
STARTCHAR yacute
ENCODING 253
SWIDTH 500 0
DWIDTH 7 0
BBX 7 12 0 -3
BITMAP
18
20
00
EE
44
44
28
28
10
10
20
C0
ENDCHAR
STARTCHAR thorn
ENCODING 254
SWIDTH 500 0
DWIDTH 7 0
BBX 6 13 1 -3
BITMAP
C0
40
40
40
78
44
44
44
44
44
78
40
E0
ENDCHAR
STARTCHAR ydieresis
ENCODING 255
SWIDTH 1000 0
DWIDTH 7 0
BBX 7 12 0 -3
BITMAP
24
24
00
EE
44
44
28
28
10
10
20
C0
ENDCHAR
STARTCHAR uni008C.dup1
ENCODING 338
SWIDTH 500 0
DWIDTH 7 0
BBX 7 9 0 -1
BITMAP
7E
92
90
94
9C
94
90
92
7E
ENDCHAR
STARTCHAR uni009C.dup2
ENCODING 339
SWIDTH 500 0
DWIDTH 7 0
BBX 7 7 0 -1
BITMAP
6C
92
9E
90
90
92
6C
ENDCHAR
STARTCHAR uni008A.dup3
ENCODING 352
SWIDTH 500 0
DWIDTH 7 0
BBX 6 13 1 -1
BITMAP
50
20
00
74
8C
84
40
30
08
04
84
C4
B8
ENDCHAR
STARTCHAR uni009A.dup4
ENCODING 353
SWIDTH 500 0
DWIDTH 7 0
BBX 4 10 2 -1
BITMAP
90
60
00
70
90
40
20
90
D0
A0
ENDCHAR
STARTCHAR uni009F.dup5
ENCODING 376
SWIDTH 500 0
DWIDTH 7 0
BBX 7 13 0 -1
BITMAP
24
00
EE
44
44
28
28
10
10
10
10
10
38
ENDCHAR
STARTCHAR uni0083.dup6
ENCODING 402
SWIDTH 500 0
DWIDTH 7 0
BBX 7 13 0 -3
BITMAP
06
0A
08
10
3C
10
10
10
10
10
10
20
C0
ENDCHAR
STARTCHAR uni0088.dup7
ENCODING 710
SWIDTH 500 0
DWIDTH 7 0
BBX 4 2 2 10
BITMAP
60
90
ENDCHAR
STARTCHAR caron
ENCODING 711
SWIDTH 1000 0
DWIDTH 15 0
BBX 7 8 3 1
BITMAP
82
82
44
44
28
28
10
10
ENDCHAR
STARTCHAR uni02C9
ENCODING 713
SWIDTH 1000 0
DWIDTH 15 0
BBX 1 1 14 -3
BITMAP
00
ENDCHAR
STARTCHAR uni02CA
ENCODING 714
SWIDTH 1000 0
DWIDTH 15 0
BBX 7 6 3 2
BITMAP
02
04
08
10
A0
40
ENDCHAR
STARTCHAR uni02CB
ENCODING 715
SWIDTH 1000 0
DWIDTH 15 0
BBX 7 7 3 2
BITMAP
40
E0
30
18
08
04
02
ENDCHAR
STARTCHAR uni02CD
ENCODING 717
SWIDTH 1000 0
DWIDTH 15 0
BBX 15 2 0 -3
BITMAP
FFFE
FFFE
ENDCHAR
STARTCHAR dotaccent
ENCODING 729
SWIDTH 1000 0
DWIDTH 15 0
BBX 4 4 5 3
BITMAP
60
F0
F0
60
ENDCHAR
STARTCHAR degree.dup8
ENCODING 730
SWIDTH 500 0
DWIDTH 7 0
BBX 3 3 2 8
BITMAP
E0
A0
E0
ENDCHAR
STARTCHAR uni0098.dup9
ENCODING 732
SWIDTH 500 0
DWIDTH 7 0
BBX 5 2 1 9
BITMAP
68
B0
ENDCHAR
STARTCHAR uni0305
ENCODING 773
SWIDTH 1000 0
DWIDTH 15 0
BBX 15 1 0 11
BITMAP
FFFE
ENDCHAR
STARTCHAR Alpha
ENCODING 913
SWIDTH 1000 0
DWIDTH 15 0
BBX 10 11 2 0
BITMAP
0800
0800
1400
1400
1200
2200
3F00
2100
4100
4080
E1C0
ENDCHAR
STARTCHAR Beta
ENCODING 914
SWIDTH 1000 0
DWIDTH 15 0
BBX 8 11 3 0
BITMAP
FE
41
41
41
41
7E
41
41
41
41
FE
ENDCHAR
STARTCHAR Gamma
ENCODING 915
SWIDTH 1000 0
DWIDTH 15 0
BBX 8 11 3 0
BITMAP
FF
41
41
40
40
40
40
40
40
40
E0
ENDCHAR
STARTCHAR uni0394
ENCODING 916
SWIDTH 1000 0
DWIDTH 15 0
BBX 11 11 2 0
BITMAP
0400
0400
0A00
0A00
1100
1100
2080
2080
4040
4040
FFE0
ENDCHAR
STARTCHAR Epsilon
ENCODING 917
SWIDTH 1000 0
DWIDTH 15 0
BBX 8 11 3 0
BITMAP
FF
41
41
44
44
7C
44
44
41
41
FF
ENDCHAR
STARTCHAR Zeta
ENCODING 918
SWIDTH 1000 0
DWIDTH 15 0
BBX 8 11 3 0
BITMAP
FF
81
82
04
04
08
10
20
21
41
FF
ENDCHAR
STARTCHAR Eta
ENCODING 919
SWIDTH 1000 0
DWIDTH 15 0
BBX 10 11 2 0
BITMAP
E1C0
4080
4080
4080
4080
7F80
4080
4080
4080
4080
E1C0
ENDCHAR
STARTCHAR Theta
ENCODING 920
SWIDTH 1000 0
DWIDTH 15 0
BBX 10 11 2 0
BITMAP
3F00
4080
8040
8040
8040
FFC0
8040
8040
8040
4080
3F00
ENDCHAR
STARTCHAR Iota
ENCODING 921
SWIDTH 1000 0
DWIDTH 15 0
BBX 3 11 6 0
BITMAP
E0
40
40
40
40
40
40
40
40
40
E0
ENDCHAR
STARTCHAR Kappa
ENCODING 922
SWIDTH 1000 0
DWIDTH 15 0
BBX 10 11 2 0
BITMAP
E380
4100
4200
4400
4800
5800
6400
4400
4200
4100
E3C0
ENDCHAR
STARTCHAR Lambda
ENCODING 923
SWIDTH 1000 0
DWIDTH 15 0
BBX 10 11 2 0
BITMAP
0400
0400
0E00
0A00
1200
1100
1100
2100
2080
4080
E1C0
ENDCHAR
STARTCHAR Mu
ENCODING 924
SWIDTH 1000 0
DWIDTH 15 0
BBX 12 11 1 0
BITMAP
C030
4060
6060
60A0
50A0
5120
4920
4A20
4A20
4420
E470
ENDCHAR
STARTCHAR Nu
ENCODING 925
SWIDTH 1000 0
DWIDTH 15 0
BBX 10 11 2 0
BITMAP
C1C0
6080
6080
5080
4880
4480
4480
4280
4180
4180
E080
ENDCHAR
STARTCHAR Xi
ENCODING 926
SWIDTH 1000 0
DWIDTH 15 0
BBX 8 11 3 0
BITMAP
FF
81
00
00
42
7E
42
00
00
81
FF
ENDCHAR
STARTCHAR Omicron
ENCODING 927
SWIDTH 1000 0
DWIDTH 15 0
BBX 10 11 2 0
BITMAP
3F00
4080
8040
8040
8040
8040
8040
8040
8040
4080
3F00
ENDCHAR
STARTCHAR Pi
ENCODING 928
SWIDTH 1000 0
DWIDTH 15 0
BBX 8 11 3 0
BITMAP
FF
42
42
42
42
42
42
42
42
42
E7
ENDCHAR
STARTCHAR Rho
ENCODING 929
SWIDTH 1000 0
DWIDTH 15 0
BBX 8 11 3 0
BITMAP
FE
41
41
41
41
7E
40
40
40
40
E0
ENDCHAR
STARTCHAR Sigma
ENCODING 931
SWIDTH 1000 0
DWIDTH 15 0
BBX 8 11 3 0
BITMAP
FF
81
41
20
10
08
10
20
41
81
FF
ENDCHAR
STARTCHAR Tau
ENCODING 932
SWIDTH 1000 0
DWIDTH 15 0
BBX 9 11 2 0
BITMAP
FF80
8880
0800
0800
0800
0800
0800
0800
0800
0800
1C00
ENDCHAR
STARTCHAR Upsilon
ENCODING 933
SWIDTH 1000 0
DWIDTH 15 0
BBX 9 11 2 0
BITMAP
7700
8880
0800
0800
0800
0800
0800
0800
0800
0800
1C00
ENDCHAR
STARTCHAR Phi
ENCODING 934
SWIDTH 1000 0
DWIDTH 15 0
BBX 10 11 2 0
BITMAP
0E00
0400
3F00
4480
8440
8440
8440
4480
3F00
0400
0E00
ENDCHAR
STARTCHAR Chi
ENCODING 935
SWIDTH 1000 0
DWIDTH 15 0
BBX 10 11 2 0
BITMAP
F3C0
2100
1200
1200
0C00
0800
0C00
1200
1300
2100
F3C0
ENDCHAR
STARTCHAR Psi
ENCODING 936
SWIDTH 1000 0
DWIDTH 15 0
BBX 10 11 2 0
BITMAP
CEC0
4480
4480
4480
4480
4480
2500
1E00
0400
0400
1F00
ENDCHAR
STARTCHAR uni03A9
ENCODING 937
SWIDTH 1000 0
DWIDTH 15 0
BBX 10 11 2 0
BITMAP
3F00
4080
8040
8040
8040
8040
4080
4080
2100
9240
F3C0
ENDCHAR
STARTCHAR alpha
ENCODING 945
SWIDTH 1000 0
DWIDTH 15 0
BBX 8 8 3 0
BITMAP
19
25
45
86
84
84
8D
76
ENDCHAR
STARTCHAR beta
ENCODING 946
SWIDTH 1000 0
DWIDTH 15 0
BBX 8 13 3 -2
BITMAP
0E
11
11
21
22
2C
42
41
41
42
BC
80
80
ENDCHAR
STARTCHAR gamma
ENCODING 947
SWIDTH 1000 0
DWIDTH 15 0
BBX 8 10 3 -2
BITMAP
61
92
94
08
08
10
10
30
20
20
ENDCHAR
STARTCHAR delta
ENCODING 948
SWIDTH 1000 0
DWIDTH 15 0
BBX 8 11 3 0
BITMAP
1E
11
08
04
3C
42
82
82
82
84
78
ENDCHAR
STARTCHAR epsilon
ENCODING 949
SWIDTH 1000 0
DWIDTH 15 0
BBX 6 8 4 0
BITMAP
38
44
40
38
40
80
84
78
ENDCHAR
STARTCHAR zeta
ENCODING 950
SWIDTH 1000 0
DWIDTH 15 0
BBX 7 13 4 -2
BITMAP
20
46
7C
10
20
40
80
80
80
60
10
10
E0
ENDCHAR
STARTCHAR eta
ENCODING 951
SWIDTH 1000 0
DWIDTH 15 0
BBX 7 10 3 -2
BITMAP
6C
92
12
22
22
24
44
44
08
08
ENDCHAR
STARTCHAR theta
ENCODING 952
SWIDTH 1000 0
DWIDTH 15 0
BBX 8 11 3 0
BITMAP
0E
11
21
41
41
FF
82
82
84
88
70
ENDCHAR
STARTCHAR iota
ENCODING 953
SWIDTH 1000 0
DWIDTH 15 0
BBX 4 8 5 0
BITMAP
20
20
40
40
80
80
90
E0
ENDCHAR
STARTCHAR kappa
ENCODING 954
SWIDTH 1000 0
DWIDTH 15 0
BBX 8 8 3 0
BITMAP
23
24
48
70
48
88
89
86
ENDCHAR
STARTCHAR lambda
ENCODING 955
SWIDTH 1000 0
DWIDTH 15 0
BBX 8 11 3 0
BITMAP
30
48
08
08
08
0C
14
14
24
44
83
ENDCHAR
STARTCHAR uni03BC
ENCODING 956
SWIDTH 1000 0
DWIDTH 15 0
BBX 9 10 3 -2
BITMAP
2100
2100
2300
4200
4200
4400
4480
BB00
8000
8000
ENDCHAR
STARTCHAR nu
ENCODING 957
SWIDTH 1000 0
DWIDTH 15 0
BBX 7 8 3 0
BITMAP
42
A2
22
22
24
48
50
E0
ENDCHAR
STARTCHAR xi
ENCODING 958
SWIDTH 1000 0
DWIDTH 15 0
BBX 7 14 4 -2
BITMAP
20
40
4E
30
40
40
3C
40
80
80
60
10
10
E0
ENDCHAR
STARTCHAR omicron
ENCODING 959
SWIDTH 1000 0
DWIDTH 15 0
BBX 6 8 4 0
BITMAP
38
44
84
84
84
84
88
70
ENDCHAR
STARTCHAR pi
ENCODING 960
SWIDTH 1000 0
DWIDTH 15 0
BBX 8 8 3 0
BITMAP
7F
94
14
24
28
48
4A
8C
ENDCHAR
STARTCHAR rho
ENCODING 961
SWIDTH 1000 0
DWIDTH 15 0
BBX 7 10 4 -2
BITMAP
1C
22
42
42
82
82
C4
B8
80
80
ENDCHAR
STARTCHAR sigma
ENCODING 963
SWIDTH 1000 0
DWIDTH 15 0
BBX 8 8 3 0
BITMAP
1F
24
42
82
82
82
84
78
ENDCHAR
STARTCHAR tau
ENCODING 964
SWIDTH 1000 0
DWIDTH 15 0
BBX 7 8 3 0
BITMAP
02
7C
90
10
20
20
24
38
ENDCHAR
STARTCHAR upsilon
ENCODING 965
SWIDTH 1000 0
DWIDTH 15 0
BBX 6 8 4 0
BITMAP
88
44
44
44
84
84
88
70
ENDCHAR
STARTCHAR phi
ENCODING 966
SWIDTH 1000 0
DWIDTH 15 0
BBX 8 10 3 -2
BITMAP
26
49
89
89
91
91
52
3C
20
20
ENDCHAR
STARTCHAR chi
ENCODING 967
SWIDTH 1000 0
DWIDTH 15 0
BBX 8 10 3 -2
BITMAP
61
91
12
14
08
08
18
28
49
86
ENDCHAR
STARTCHAR psi
ENCODING 968
SWIDTH 1000 0
DWIDTH 15 0
BBX 8 13 3 -2
BITMAP
04
04
04
24
4A
89
89
91
91
52
3C
20
20
ENDCHAR
STARTCHAR omega
ENCODING 969
SWIDTH 1000 0
DWIDTH 15 0
BBX 10 8 2 0
BITMAP
1080
2040
4040
8840
9440
9440
8880
7700
ENDCHAR
STARTCHAR uni00AD.dup10
ENCODING 8208
SWIDTH 500 0
DWIDTH 7 0
BBX 4 1 2 2
BITMAP
F0
ENDCHAR
STARTCHAR endash
ENCODING 8211
SWIDTH 1000 0
DWIDTH 15 0
BBX 6 1 4 4
BITMAP
FC
ENDCHAR
STARTCHAR emdash
ENCODING 8212
SWIDTH 1000 0
DWIDTH 15 0
BBX 13 1 1 4
BITMAP
FFF8
ENDCHAR
STARTCHAR uni2015
ENCODING 8213
SWIDTH 1000 0
DWIDTH 15 0
BBX 15 1 0 4
BITMAP
FFFE
ENDCHAR
STARTCHAR uni2016
ENCODING 8214
SWIDTH 1000 0
DWIDTH 15 0
BBX 4 15 5 -3
BITMAP
90
90
90
90
90
90
90
90
90
90
90
90
90
90
90
ENDCHAR
STARTCHAR quoteleft
ENCODING 8216
SWIDTH 1000 0
DWIDTH 15 0
BBX 2 4 12 8
BITMAP
40
80
C0
C0
ENDCHAR
STARTCHAR quoteright
ENCODING 8217
SWIDTH 1000 0
DWIDTH 15 0
BBX 2 4 0 8
BITMAP
C0
C0
40
80
ENDCHAR
STARTCHAR uni0082.dup11
ENCODING 8218
SWIDTH 500 0
DWIDTH 7 0
BBX 2 4 3 -3
BITMAP
C0
C0
40
80
ENDCHAR
STARTCHAR quotedblleft
ENCODING 8220
SWIDTH 1000 0
DWIDTH 15 0
BBX 5 4 9 8
BITMAP
48
90
D8
D8
ENDCHAR
STARTCHAR quotedblright
ENCODING 8221
SWIDTH 1000 0
DWIDTH 15 0
BBX 5 4 0 8
BITMAP
D8
D8
48
90
ENDCHAR
STARTCHAR uni0084.dup12
ENCODING 8222
SWIDTH 500 0
DWIDTH 7 0
BBX 5 4 1 -3
BITMAP
D8
D8
48
90
ENDCHAR
STARTCHAR uni0086.dup13
ENCODING 8224
SWIDTH 500 0
DWIDTH 7 0
BBX 5 13 1 -3
BITMAP
20
20
20
F8
20
20
70
20
20
20
20
20
20
ENDCHAR
STARTCHAR uni0087.dup14
ENCODING 8225
SWIDTH 500 0
DWIDTH 7 0
BBX 5 13 1 -3
BITMAP
20
20
20
F8
20
20
70
20
20
F8
20
20
20
ENDCHAR
STARTCHAR bullet
ENCODING 8226
SWIDTH 1000 0
DWIDTH 15 0
BBX 3 3 5 4
BITMAP
E0
E0
E0
ENDCHAR
STARTCHAR dotaccent.dup15
ENCODING 8228
SWIDTH 1000 0
DWIDTH 15 0
BBX 4 4 5 3
BITMAP
60
F0
F0
60
ENDCHAR
STARTCHAR twodotenleader
ENCODING 8229
SWIDTH 1000 0
DWIDTH 15 0
BBX 10 2 2 4
BITMAP
C0C0
C0C0
ENDCHAR
STARTCHAR ellipsis
ENCODING 8230
SWIDTH 1000 0
DWIDTH 15 0
BBX 12 2 1 4
BITMAP
C630
C630
ENDCHAR
STARTCHAR bullet.dup16
ENCODING 8231
SWIDTH 1000 0
DWIDTH 15 0
BBX 3 3 5 4
BITMAP
E0
E0
E0
ENDCHAR
STARTCHAR uni0089.dup17
ENCODING 8240
SWIDTH 500 0
DWIDTH 7 0
BBX 7 10 0 -1
BITMAP
08
78
A8
B0
D0
20
36
2A
6A
54
ENDCHAR
STARTCHAR minute
ENCODING 8242
SWIDTH 1000 0
DWIDTH 15 0
BBX 5 2 5 10
BITMAP
38
E0
ENDCHAR
STARTCHAR second
ENCODING 8243
SWIDTH 1000 0
DWIDTH 15 0
BBX 6 7 3 1
BITMAP
24
24
6C
48
48
90
90
ENDCHAR
STARTCHAR uni2035
ENCODING 8245
SWIDTH 1000 0
DWIDTH 15 0
BBX 5 2 5 10
BITMAP
E0
38
ENDCHAR
STARTCHAR uni008B.dup18
ENCODING 8249
SWIDTH 500 0
DWIDTH 7 0
BBX 3 5 2 0
BITMAP
20
40
80
40
20
ENDCHAR
STARTCHAR uni009B.dup19
ENCODING 8250
SWIDTH 500 0
DWIDTH 7 0
BBX 4 7 2 -1
BITMAP
80
40
20
10
20
40
80
ENDCHAR
STARTCHAR uni203B
ENCODING 8251
SWIDTH 1000 0
DWIDTH 15 0
BBX 12 12 1 -1
BITMAP
8010
4620
2640
1080
0900
6660
6660
0900
1080
2640
4620
8010
ENDCHAR
STARTCHAR uni203E
ENCODING 8254
SWIDTH 1000 0
DWIDTH 15 0
BBX 15 2 0 10
BITMAP
FFFE
FFFE
ENDCHAR
STARTCHAR uni20A0
ENCODING 8352
SWIDTH 1000 0
DWIDTH 15 0
BBX 8 11 3 -1
BITMAP
38
44
80
80
9F
89
48
3E
08
09
1F
ENDCHAR
STARTCHAR colonmonetary
ENCODING 8353
SWIDTH 1000 0
DWIDTH 15 0
BBX 9 13 3 -2
BITMAP
0500
3F00
4980
8A80
9200
9200
9400
A400
A400
A880
4900
FE00
9000
ENDCHAR
STARTCHAR uni20A2
ENCODING 8354
SWIDTH 1000 0
DWIDTH 15 0
BBX 9 11 3 -1
BITMAP
3E80
4180
8080
8000
9A00
8C00
8800
8800
8880
4900
3E00
ENDCHAR
STARTCHAR franc
ENCODING 8355
SWIDTH 1000 0
DWIDTH 15 0
BBX 8 11 4 -1
BITMAP
FE
42
41
40
54
58
50
50
50
50
F8
ENDCHAR
STARTCHAR lira
ENCODING 8356
SWIDTH 1000 0
DWIDTH 15 0
BBX 8 11 4 -1
BITMAP
1C
22
20
20
FE
10
FE
10
70
91
EE
ENDCHAR
STARTCHAR uni20A5
ENCODING 8357
SWIDTH 1000 0
DWIDTH 15 0
BBX 11 10 2 -2
BITMAP
0080
0100
BBC0
4640
4440
4440
4C40
4C40
D6E0
1000
ENDCHAR
STARTCHAR uni20A6
ENCODING 8358
SWIDTH 1000 0
DWIDTH 15 0
BBX 9 11 3 -1
BITMAP
C380
6100
5100
5100
FF80
4900
FF80
4500
4500
4300
E100
ENDCHAR
STARTCHAR peseta
ENCODING 8359
SWIDTH 1000 0
DWIDTH 15 0
BBX 8 11 4 -1
BITMAP
FC
42
42
FF
42
7C
40
40
40
40
E0
ENDCHAR
STARTCHAR uni20A8
ENCODING 8360
SWIDTH 1000 0
DWIDTH 15 0
BBX 13 11 1 -1
BITMAP
FC00
4200
4200
FF00
4270
7C88
4840
4820
4410
4488
E670
ENDCHAR
STARTCHAR uni20A9
ENCODING 8361
SWIDTH 1000 0
DWIDTH 15 0
BBX 13 11 1 -1
BITMAP
7770
2220
2220
FFF8
2520
FFF8
1540
1540
1540
0880
0880
ENDCHAR
STARTCHAR uni20AA
ENCODING 8362
SWIDTH 1000 0
DWIDTH 15 0
BBX 9 11 3 -1
BITMAP
3980
4500
5500
5500
5500
5500
5500
5500
5500
5100
CE00
ENDCHAR
STARTCHAR dong
ENCODING 8363
SWIDTH 1000 0
DWIDTH 15 0
BBX 6 12 5 -2
BITMAP
18
08
7C
08
78
88
88
88
88
74
00
78
ENDCHAR
STARTCHAR Euro
ENCODING 8364
SWIDTH 1000 0
DWIDTH 15 0
BBX 9 11 3 -1
BITMAP
1E80
2180
4080
4000
FF00
4000
FF00
4000
4080
2100
1E00
ENDCHAR
STARTCHAR uni2103
ENCODING 8451
SWIDTH 1000 0
DWIDTH 15 0
BBX 12 13 0 -1
BITMAP
6000
93D0
9430
6810
0800
0800
0800
0800
0800
0800
0810
0420
03C0
ENDCHAR
STARTCHAR uni2105
ENCODING 8453
SWIDTH 1000 0
DWIDTH 15 0
BBX 14 14 0 -2
BITMAP
3800
4408
8010
8020
8040
4480
3900
0270
0488
0904
1104
2104
4088
0070
ENDCHAR
STARTCHAR uni2109
ENCODING 8457
SWIDTH 1000 0
DWIDTH 15 0
BBX 13 13 0 -1
BITMAP
6000
97F8
9218
6208
0200
0220
03E0
0220
0200
0200
0200
0200
0780
ENDCHAR
STARTCHAR uni0099.dup20
ENCODING 8482
SWIDTH 500 0
DWIDTH 7 0
BBX 7 6 0 3
BITMAP
F2
56
5E
5A
52
52
ENDCHAR
STARTCHAR uni2160
ENCODING 8544
SWIDTH 1000 0
DWIDTH 15 0
BBX 3 11 6 -1
BITMAP
E0
40
40
40
40
40
40
40
40
40
E0
ENDCHAR
STARTCHAR uni2161
ENCODING 8545
SWIDTH 1000 0
DWIDTH 15 0
BBX 8 11 3 -1
BITMAP
FF
42
42
42
42
42
42
42
42
42
FF
ENDCHAR
STARTCHAR uni2162
ENCODING 8546
SWIDTH 1000 0
DWIDTH 15 0
BBX 10 11 2 -1
BITMAP
FFC0
4880
4880
4880
4880
4880
4880
4880
4880
4880
FFC0
ENDCHAR
STARTCHAR uni2163
ENCODING 8547
SWIDTH 1000 0
DWIDTH 15 0
BBX 13 11 1 -1
BITMAP
EF38
4410
4410
4220
4220
4220
4140
4140
4140
4080
E080
ENDCHAR
STARTCHAR uni2164
ENCODING 8548
SWIDTH 1000 0
DWIDTH 15 0
BBX 10 11 2 -1
BITMAP
F1C0
4080
6080
2100
3100
1100
1A00
0A00
0C00
0400
0400
ENDCHAR
STARTCHAR uni2165
ENCODING 8549
SWIDTH 1000 0
DWIDTH 15 0
BBX 12 11 1 -1
BITMAP
E7F0
4220
4220
6620
2420
3420
1420
1820
1820
0820
0870
ENDCHAR
STARTCHAR uni2166
ENCODING 8550
SWIDTH 1000 0
DWIDTH 15 0
BBX 14 11 0 -1
BITMAP
F7FC
4248
6248
2248
2448
3448
1448
1848
1848
0848
08FC
ENDCHAR
STARTCHAR uni2167
ENCODING 8551
SWIDTH 1000 0
DWIDTH 15 0
BBX 14 11 0 -1
BITMAP
EFFC
4528
4528
6528
2928
2928
2928
3128
1128
1128
13FC
ENDCHAR
STARTCHAR uni2168
ENCODING 8552
SWIDTH 1000 0
DWIDTH 15 0
BBX 12 11 1 -1
BITMAP
FE70
4420
4640
4280
4300
4180
4280
42C0
4440
4860
FCF0
ENDCHAR
STARTCHAR uni2169
ENCODING 8553
SWIDTH 1000 0
DWIDTH 15 0
BBX 10 11 2 -1
BITMAP
F3C0
2100
3200
1200
0C00
0C00
1400
1200
2100
4080
F3C0
ENDCHAR
STARTCHAR arrowleft
ENCODING 8592
SWIDTH 1000 0
DWIDTH 15 0
BBX 15 5 0 2
BITMAP
0C00
3000
FFFE
3000
0C00
ENDCHAR
STARTCHAR arrowup
ENCODING 8593
SWIDTH 1000 0
DWIDTH 15 0
BBX 5 15 5 -3
BITMAP
20
20
70
70
A8
A8
20
20
20
20
20
20
20
20
20
ENDCHAR
STARTCHAR arrowright
ENCODING 8594
SWIDTH 1000 0
DWIDTH 15 0
BBX 15 5 0 2
BITMAP
0060
0018
FFFE
0018
0060
ENDCHAR
STARTCHAR arrowdown
ENCODING 8595
SWIDTH 1000 0
DWIDTH 15 0
BBX 5 15 5 -3
BITMAP
20
20
20
20
20
20
20
20
20
A8
A8
70
70
20
20
ENDCHAR
STARTCHAR uni2196
ENCODING 8598
SWIDTH 1000 0
DWIDTH 15 0
BBX 14 14 0 -2
BITMAP
8000
7800
6000
5000
4800
0400
0200
0100
0080
0040
0020
0010
0008
0004
ENDCHAR
STARTCHAR uni2197
ENCODING 8599
SWIDTH 1000 0
DWIDTH 15 0
BBX 14 14 0 -2
BITMAP
0004
0078
0018
0028
0048
0080
0100
0200
0400
0800
1000
2000
4000
8000
ENDCHAR
STARTCHAR uni2198
ENCODING 8600
SWIDTH 1000 0
DWIDTH 15 0
BBX 14 14 0 -2
BITMAP
8000
4000
2000
1000
0800
0400
0200
0100
0080
0048
0028
0018
0078
0004
ENDCHAR
STARTCHAR uni2199
ENCODING 8601
SWIDTH 1000 0
DWIDTH 15 0
BBX 14 14 0 -2
BITMAP
0004
0008
0010
0020
0040
0080
0100
0200
0400
4800
5000
6000
7800
8000
ENDCHAR
STARTCHAR uni2215
ENCODING 8725
SWIDTH 1000 0
DWIDTH 15 0
BBX 7 14 3 -2
BITMAP
02
02
04
04
08
08
10
10
20
20
40
40
80
80
ENDCHAR
STARTCHAR uni2216
ENCODING 8726
SWIDTH 1000 0
DWIDTH 15 0
BBX 7 14 4 -2
BITMAP
80
80
40
40
20
20
10
10
08
08
04
04
02
02
ENDCHAR
STARTCHAR uni2218
ENCODING 8728
SWIDTH 1000 0
DWIDTH 15 0
BBX 4 4 0 8
BITMAP
60
90
90
60
ENDCHAR
STARTCHAR uni2219
ENCODING 8729
SWIDTH 1000 0
DWIDTH 15 0
BBX 2 2 2 4
BITMAP
C0
C0
ENDCHAR
STARTCHAR radical
ENCODING 8730
SWIDTH 1000 0
DWIDTH 15 0
BBX 14 14 0 -2
BITMAP
00FC
0080
0100
0100
0200
0200
0400
0400
4800
C800
5000
3000
2000
2000
ENDCHAR
STARTCHAR infinity
ENCODING 8734
SWIDTH 1000 0
DWIDTH 15 0
BBX 11 5 1 3
BITMAP
71C0
8A20
8420
8A20
71C0
ENDCHAR
STARTCHAR orthogonal
ENCODING 8735
SWIDTH 1000 0
DWIDTH 15 0
BBX 10 10 2 0
BITMAP
8000
8000
8000
8000
8000
8000
8000
8000
8000
FFC0
ENDCHAR
STARTCHAR angle
ENCODING 8736
SWIDTH 1000 0
DWIDTH 15 0
BBX 10 10 2 0
BITMAP
0040
0080
0100
0200
0400
0800
1000
2000
4000
FFC0
ENDCHAR
STARTCHAR uni2223
ENCODING 8739
SWIDTH 1000 0
DWIDTH 15 0
BBX 1 15 7 -3
BITMAP
80
80
80
80
80
80
80
80
80
80
80
80
80
80
80
ENDCHAR
STARTCHAR uni2016.dup21
ENCODING 8741
SWIDTH 1000 0
DWIDTH 15 0
BBX 4 15 5 -3
BITMAP
90
90
90
90
90
90
90
90
90
90
90
90
90
90
90
ENDCHAR
STARTCHAR intersection
ENCODING 8745
SWIDTH 1000 0
DWIDTH 15 0
BBX 10 10 2 0
BITMAP
3F00
4080
8040
8040
8040
8040
8040
8040
8040
8040
ENDCHAR
STARTCHAR union
ENCODING 8746
SWIDTH 1000 0
DWIDTH 15 0
BBX 10 10 2 0
BITMAP
8040
8040
8040
8040
8040
8040
8040
8040
4080
3F00
ENDCHAR
STARTCHAR integral
ENCODING 8747
SWIDTH 1000 0
DWIDTH 15 0
BBX 4 14 5 -2
BITMAP
60
90
80
80
40
40
40
20
20
20
10
10
90
60
ENDCHAR
STARTCHAR uni222E
ENCODING 8750
SWIDTH 1000 0
DWIDTH 15 0
BBX 6 14 4 -2
BITMAP
30
48
40
70
A8
A4
A4
94
94
78
08
08
48
30
ENDCHAR
STARTCHAR therefore
ENCODING 8756
SWIDTH 1000 0
DWIDTH 15 0
BBX 10 10 2 0
BITMAP
0C00
0C00
0000
0000
0000
0000
0000
0000
C0C0
C0C0
ENDCHAR
STARTCHAR uni2235
ENCODING 8757
SWIDTH 1000 0
DWIDTH 15 0
BBX 10 10 2 0
BITMAP
C0C0
C0C0
0000
0000
0000
0000
0000
0000
0C00
0C00
ENDCHAR
STARTCHAR uni2252
ENCODING 8786
SWIDTH 1000 0
DWIDTH 15 0
BBX 10 10 2 0
BITMAP
6000
6000
0000
FFC0
0000
0000
FFC0
0000
0180
0180
ENDCHAR
STARTCHAR notequal
ENCODING 8800
SWIDTH 1000 0
DWIDTH 15 0
BBX 10 10 2 0
BITMAP
0100
0100
0200
FFC0
0400
0800
FFC0
1000
2000
2000
ENDCHAR
STARTCHAR equivalence
ENCODING 8801
SWIDTH 1000 0
DWIDTH 15 0
BBX 10 7 2 2
BITMAP
FFC0
0000
0000
FFC0
0000
0000
FFC0
ENDCHAR
STARTCHAR equivalence.dup22
ENCODING 8803
SWIDTH 1000 0
DWIDTH 15 0
BBX 10 7 2 2
BITMAP
FFC0
0000
0000
FFC0
0000
0000
FFC0
ENDCHAR
STARTCHAR uni2266
ENCODING 8806
SWIDTH 1000 0
DWIDTH 15 0
BBX 10 11 2 -1
BITMAP
00C0
0700
3800
C000
3800
0700
00C0
0000
FFC0
0000
FFC0
ENDCHAR
STARTCHAR uni2267
ENCODING 8807
SWIDTH 1000 0
DWIDTH 15 0
BBX 10 11 2 -1
BITMAP
C000
3800
0700
00C0
0700
3800
C000
0000
FFC0
0000
FFC0
ENDCHAR
STARTCHAR circleplus
ENCODING 8853
SWIDTH 1000 0
DWIDTH 15 0
BBX 11 11 1 0
BITMAP
1F00
2480
4440
8420
8420
FFE0
8420
8420
4440
2480
1F00
ENDCHAR
STARTCHAR uni2299
ENCODING 8857
SWIDTH 1000 0
DWIDTH 15 0
BBX 12 12 1 -1
BITMAP
1F80
2040
4020
8010
8010
8610
8610
8010
8010
4020
2040
1F80
ENDCHAR
STARTCHAR perpendicular
ENCODING 8869
SWIDTH 1000 0
DWIDTH 15 0
BBX 10 10 2 0
BITMAP
0800
0800
0800
0800
0800
0800
0800
0800
0800
FFC0
ENDCHAR
STARTCHAR uni22BF
ENCODING 8895
SWIDTH 1000 0
DWIDTH 15 0
BBX 10 10 2 0
BITMAP
0040
00C0
0140
0240
0440
0840
1040
2040
4040
FFC0
ENDCHAR
STARTCHAR uni2307
ENCODING 8967
SWIDTH 1000 0
DWIDTH 15 0
BBX 2 15 2 -3
BITMAP
40
80
80
40
40
40
80
80
40
40
40
80
80
80
40
ENDCHAR
STARTCHAR uni2015.dup23
ENCODING 9472
SWIDTH 1000 0
DWIDTH 15 0
BBX 15 1 0 4
BITMAP
FFFE
ENDCHAR
STARTCHAR uni2501
ENCODING 9473
SWIDTH 1000 0
DWIDTH 15 0
BBX 15 7 0 1
BITMAP
FFFE
0000
0000
0000
0000
0000
FFFE
ENDCHAR
STARTCHAR SF110000
ENCODING 9474
SWIDTH 1000 0
DWIDTH 15 0
BBX 1 15 7 -3
BITMAP
80
80
80
80
80
80
80
80
80
80
80
80
80
80
80
ENDCHAR
STARTCHAR SF010000
ENCODING 9484
SWIDTH 1000 0
DWIDTH 15 0
BBX 8 8 7 -3
BITMAP
FF
80
80
80
80
80
80
80
ENDCHAR
STARTCHAR SF030000
ENCODING 9488
SWIDTH 1000 0
DWIDTH 15 0
BBX 8 8 0 -3
BITMAP
FF
01
01
01
01
01
01
01
ENDCHAR
STARTCHAR SF020000
ENCODING 9492
SWIDTH 1000 0
DWIDTH 15 0
BBX 8 8 7 4
BITMAP
80
80
80
80
80
80
80
FF
ENDCHAR
STARTCHAR SF040000
ENCODING 9496
SWIDTH 1000 0
DWIDTH 15 0
BBX 8 8 0 4
BITMAP
01
01
01
01
01
01
01
FF
ENDCHAR
STARTCHAR SF080000
ENCODING 9500
SWIDTH 1000 0
DWIDTH 15 0
BBX 8 15 7 -3
BITMAP
80
80
80
80
80
80
80
FF
80
80
80
80
80
80
80
ENDCHAR
STARTCHAR uni251D
ENCODING 9501
SWIDTH 1000 0
DWIDTH 15 0
BBX 8 15 7 -3
BITMAP
80
80
80
80
FF
80
80
80
80
80
FF
80
80
80
80
ENDCHAR
STARTCHAR SF090000
ENCODING 9508
SWIDTH 1000 0
DWIDTH 15 0
BBX 8 15 0 -3
BITMAP
01
01
01
01
01
01
01
FF
01
01
01
01
01
01
01
ENDCHAR
STARTCHAR uni2525
ENCODING 9509
SWIDTH 1000 0
DWIDTH 15 0
BBX 8 15 0 -3
BITMAP
01
01
01
01
FF
01
01
01
01
01
FF
01
01
01
01
ENDCHAR
STARTCHAR SF060000
ENCODING 9516
SWIDTH 1000 0
DWIDTH 15 0
BBX 15 8 0 -3
BITMAP
FFFE
0100
0100
0100
0100
0100
0100
0100
ENDCHAR
STARTCHAR SF070000
ENCODING 9524
SWIDTH 1000 0
DWIDTH 15 0
BBX 15 8 0 4
BITMAP
0100
0100
0100
0100
0100
0100
0100
FFFE
ENDCHAR
STARTCHAR SF050000
ENCODING 9532
SWIDTH 1000 0
DWIDTH 15 0
BBX 15 15 0 -3
BITMAP
0100
0100
0100
0100
0100
0100
0100
FFFE
0100
0100
0100
0100
0100
0100
0100
ENDCHAR
STARTCHAR uni253F
ENCODING 9535
SWIDTH 1000 0
DWIDTH 15 0
BBX 15 15 0 -3
BITMAP
0100
0100
0100
0100
FFFE
0100
0100
0100
0100
0100
FFFE
0100
0100
0100
0100
ENDCHAR
STARTCHAR SF430000
ENCODING 9552
SWIDTH 1000 0
DWIDTH 15 0
BBX 15 3 0 3
BITMAP
FFFE
0000
FFFE
ENDCHAR
STARTCHAR SF240000
ENCODING 9553
SWIDTH 1000 0
DWIDTH 15 0
BBX 3 15 6 -3
BITMAP
A0
A0
A0
A0
A0
A0
A0
A0
A0
A0
A0
A0
A0
A0
A0
ENDCHAR
STARTCHAR SF510000
ENCODING 9554
SWIDTH 1000 0
DWIDTH 15 0
BBX 8 9 7 -3
BITMAP
FF
80
FF
80
80
80
80
80
80
ENDCHAR
STARTCHAR SF520000
ENCODING 9555
SWIDTH 1000 0
DWIDTH 15 0
BBX 9 8 6 -3
BITMAP
FF80
A000
A000
A000
A000
A000
A000
A000
ENDCHAR
STARTCHAR SF390000
ENCODING 9556
SWIDTH 1000 0
DWIDTH 15 0
BBX 9 9 6 -3
BITMAP
FF80
8000
BF80
A000
A000
A000
A000
A000
A000
ENDCHAR
STARTCHAR SF220000
ENCODING 9557
SWIDTH 1000 0
DWIDTH 15 0
BBX 8 9 0 -3
BITMAP
FF
01
FF
01
01
01
01
01
01
ENDCHAR
STARTCHAR SF210000
ENCODING 9558
SWIDTH 1000 0
DWIDTH 15 0
BBX 9 8 0 -3
BITMAP
FF80
0280
0280
0280
0280
0280
0280
0280
ENDCHAR
STARTCHAR SF250000
ENCODING 9559
SWIDTH 1000 0
DWIDTH 15 0
BBX 9 9 0 -3
BITMAP
FF80
0080
FE80
0280
0280
0280
0280
0280
0280
ENDCHAR
STARTCHAR SF500000
ENCODING 9560
SWIDTH 1000 0
DWIDTH 15 0
BBX 7 9 8 3
BITMAP
80
80
80
80
80
80
FE
80
FE
ENDCHAR
STARTCHAR SF490000
ENCODING 9561
SWIDTH 1000 0
DWIDTH 15 0
BBX 9 8 6 4
BITMAP
A000
A000
A000
A000
A000
A000
A000
FF80
ENDCHAR
STARTCHAR SF380000
ENCODING 9562
SWIDTH 1000 0
DWIDTH 15 0
BBX 9 9 6 3
BITMAP
A000
A000
A000
A000
A000
A000
BF80
8000
FF80
ENDCHAR
STARTCHAR SF280000
ENCODING 9563
SWIDTH 1000 0
DWIDTH 15 0
BBX 8 9 0 3
BITMAP
01
01
01
01
01
01
FF
01
FF
ENDCHAR
STARTCHAR SF270000
ENCODING 9564
SWIDTH 1000 0
DWIDTH 15 0
BBX 9 8 0 4
BITMAP
0280
0280
0280
0280
0280
0280
0280
FF80
ENDCHAR
STARTCHAR SF260000
ENCODING 9565
SWIDTH 1000 0
DWIDTH 15 0
BBX 9 9 0 3
BITMAP
0280
0280
0280
0280
0280
0280
FE80
0080
FF80
ENDCHAR
STARTCHAR SF360000
ENCODING 9566
SWIDTH 1000 0
DWIDTH 15 0
BBX 8 15 7 -3
BITMAP
80
80
80
80
80
80
FF
80
FF
80
80
80
80
80
80
ENDCHAR
STARTCHAR SF370000
ENCODING 9567
SWIDTH 1000 0
DWIDTH 15 0
BBX 9 15 6 -3
BITMAP
A000
A000
A000
A000
A000
A000
A000
BF80
A000
A000
A000
A000
A000
A000
A000
ENDCHAR
STARTCHAR SF420000
ENCODING 9568
SWIDTH 1000 0
DWIDTH 15 0
BBX 9 15 6 -3
BITMAP
A000
A000
A000
A000
A000
A000
BF80
8000
BF80
A000
A000
A000
A000
A000
A000
ENDCHAR
STARTCHAR SF190000
ENCODING 9569
SWIDTH 1000 0
DWIDTH 15 0
BBX 8 15 0 -3
BITMAP
01
01
01
01
01
01
FF
01
FF
01
01
01
01
01
01
ENDCHAR
STARTCHAR SF200000
ENCODING 9570
SWIDTH 1000 0
DWIDTH 15 0
BBX 9 15 0 -3
BITMAP
0280
0280
0280
0280
0280
0280
0280
FE80
0280
0280
0280
0280
0280
0280
0280
ENDCHAR
STARTCHAR SF230000
ENCODING 9571
SWIDTH 1000 0
DWIDTH 15 0
BBX 9 15 0 -3
BITMAP
0280
0280
0280
0280
0280
0280
FE80
0080
FE80
0280
0280
0280
0280
0280
0280
ENDCHAR
STARTCHAR SF470000
ENCODING 9572
SWIDTH 1000 0
DWIDTH 15 0
BBX 15 9 0 -3
BITMAP
FFFE
0000
FFFE
0100
0100
0100
0100
0100
0100
ENDCHAR
STARTCHAR SF480000
ENCODING 9573
SWIDTH 1000 0
DWIDTH 15 0
BBX 15 8 0 -3
BITMAP
FFFE
0280
0280
0280
0280
0280
0280
0280
ENDCHAR
STARTCHAR SF410000
ENCODING 9574
SWIDTH 1000 0
DWIDTH 15 0
BBX 15 9 0 -3
BITMAP
FFFE
0000
FEFE
0280
0280
0280
0280
0280
0280
ENDCHAR
STARTCHAR SF450000
ENCODING 9575
SWIDTH 1000 0
DWIDTH 15 0
BBX 15 9 0 3
BITMAP
0100
0100
0100
0100
0100
0100
FFFE
0000
FFFE
ENDCHAR
STARTCHAR SF460000
ENCODING 9576
SWIDTH 1000 0
DWIDTH 15 0
BBX 15 8 0 4
BITMAP
0280
0280
0280
0280
0280
0280
0280
FFFE
ENDCHAR
STARTCHAR SF400000
ENCODING 9577
SWIDTH 1000 0
DWIDTH 15 0
BBX 15 9 0 3
BITMAP
0280
0280
0280
0280
0280
0280
FEFE
0000
FFFE
ENDCHAR
STARTCHAR SF540000
ENCODING 9578
SWIDTH 1000 0
DWIDTH 15 0
BBX 15 15 0 -3
BITMAP
0100
0100
0100
0100
0100
0100
FFFE
0000
FFFE
0100
0100
0100
0100
0100
0100
ENDCHAR
STARTCHAR SF530000
ENCODING 9579
SWIDTH 1000 0
DWIDTH 15 0
BBX 15 15 0 -3
BITMAP
0280
0280
0280
0280
0280
0280
0280
FEFE
0280
0280
0280
0280
0280
0280
0280
ENDCHAR
STARTCHAR SF440000
ENCODING 9580
SWIDTH 1000 0
DWIDTH 15 0
BBX 15 15 0 -3
BITMAP
0280
0280
0280
0280
0280
0280
FEFE
0000
FEFE
0280
0280
0280
0280
0280
0280
ENDCHAR
STARTCHAR uni256D
ENCODING 9581
SWIDTH 1000 0
DWIDTH 15 0
BBX 8 8 7 -3
BITMAP
1F
20
40
80
80
80
80
80
ENDCHAR
STARTCHAR uni256E
ENCODING 9582
SWIDTH 1000 0
DWIDTH 15 0
BBX 8 8 0 -3
BITMAP
F8
04
02
01
01
01
01
01
ENDCHAR
STARTCHAR uni256F
ENCODING 9583
SWIDTH 1000 0
DWIDTH 15 0
BBX 8 8 0 4
BITMAP
01
01
01
01
01
02
04
F8
ENDCHAR
STARTCHAR uni2570
ENCODING 9584
SWIDTH 1000 0
DWIDTH 15 0
BBX 8 8 7 4
BITMAP
80
80
80
80
80
40
20
1F
ENDCHAR
STARTCHAR uni2571
ENCODING 9585
SWIDTH 1000 0
DWIDTH 15 0
BBX 15 15 0 -3
BITMAP
0002
0004
0008
0010
0020
0040
0080
0100
0200
0400
0800
1000
2000
4000
8000
ENDCHAR
STARTCHAR uni2572
ENCODING 9586
SWIDTH 1000 0
DWIDTH 15 0
BBX 15 15 0 -3
BITMAP
8000
4000
2000
1000
0800
0400
0200
0100
0080
0040
0020
0010
0008
0004
0002
ENDCHAR
STARTCHAR uni2573
ENCODING 9587
SWIDTH 1000 0
DWIDTH 15 0
BBX 15 15 0 -3
BITMAP
8002
4004
2008
1010
0820
0440
0280
0100
0280
0440
0820
1010
2008
4004
8002
ENDCHAR
STARTCHAR uni2574
ENCODING 9588
SWIDTH 1000 0
DWIDTH 15 0
BBX 14 1 0 -2
BITMAP
FFFC
ENDCHAR
STARTCHAR uni2581
ENCODING 9601
SWIDTH 1000 0
DWIDTH 15 0
BBX 15 2 0 -3
BITMAP
FFFE
FFFE
ENDCHAR
STARTCHAR uni2582
ENCODING 9602
SWIDTH 1000 0
DWIDTH 15 0
BBX 15 4 0 -3
BITMAP
FFFE
FFFE
FFFE
FFFE
ENDCHAR
STARTCHAR uni2583
ENCODING 9603
SWIDTH 1000 0
DWIDTH 15 0
BBX 15 6 0 -3
BITMAP
FFFE
FFFE
FFFE
FFFE
FFFE
FFFE
ENDCHAR
STARTCHAR dnblock
ENCODING 9604
SWIDTH 1000 0
DWIDTH 15 0
BBX 15 8 0 -3
BITMAP
FFFE
FFFE
FFFE
FFFE
FFFE
FFFE
FFFE
FFFE
ENDCHAR
STARTCHAR uni2585
ENCODING 9605
SWIDTH 1000 0
DWIDTH 15 0
BBX 15 10 0 -3
BITMAP
FFFE
FFFE
FFFE
FFFE
FFFE
FFFE
FFFE
FFFE
FFFE
FFFE
ENDCHAR
STARTCHAR uni2586
ENCODING 9606
SWIDTH 1000 0
DWIDTH 15 0
BBX 15 12 0 -3
BITMAP
FFFE
FFFE
FFFE
FFFE
FFFE
FFFE
FFFE
FFFE
FFFE
FFFE
FFFE
FFFE
ENDCHAR
STARTCHAR uni2587
ENCODING 9607
SWIDTH 1000 0
DWIDTH 15 0
BBX 15 14 0 -3
BITMAP
FFFE
FFFE
FFFE
FFFE
FFFE
FFFE
FFFE
FFFE
FFFE
FFFE
FFFE
FFFE
FFFE
FFFE
ENDCHAR
STARTCHAR block
ENCODING 9608
SWIDTH 1000 0
DWIDTH 15 0
BBX 15 15 0 -3
BITMAP
FFFE
FFFE
FFFE
FFFE
FFFE
FFFE
FFFE
FFFE
FFFE
FFFE
FFFE
FFFE
FFFE
FFFE
FFFE
ENDCHAR
STARTCHAR uni2589
ENCODING 9609
SWIDTH 1000 0
DWIDTH 15 0
BBX 13 15 0 -3
BITMAP
FFF8
FFF8
FFF8
FFF8
FFF8
FFF8
FFF8
FFF8
FFF8
FFF8
FFF8
FFF8
FFF8
FFF8
FFF8
ENDCHAR
STARTCHAR uni258A
ENCODING 9610
SWIDTH 1000 0
DWIDTH 15 0
BBX 11 15 0 -3
BITMAP
FFE0
FFE0
FFE0
FFE0
FFE0
FFE0
FFE0
FFE0
FFE0
FFE0
FFE0
FFE0
FFE0
FFE0
FFE0
ENDCHAR
STARTCHAR uni258B
ENCODING 9611
SWIDTH 1000 0
DWIDTH 15 0
BBX 9 15 0 -3
BITMAP
FF80
FF80
FF80
FF80
FF80
FF80
FF80
FF80
FF80
FF80
FF80
FF80
FF80
FF80
FF80
ENDCHAR
STARTCHAR lfblock
ENCODING 9612
SWIDTH 1000 0
DWIDTH 15 0
BBX 7 15 0 -3
BITMAP
FE
FE
FE
FE
FE
FE
FE
FE
FE
FE
FE
FE
FE
FE
FE
ENDCHAR
STARTCHAR uni258D
ENCODING 9613
SWIDTH 1000 0
DWIDTH 15 0
BBX 5 15 0 -3
BITMAP
F8
F8
F8
F8
F8
F8
F8
F8
F8
F8
F8
F8
F8
F8
F8
ENDCHAR
STARTCHAR uni258E
ENCODING 9614
SWIDTH 1000 0
DWIDTH 15 0
BBX 3 15 0 -3
BITMAP
E0
E0
E0
E0
E0
E0
E0
E0
E0
E0
E0
E0
E0
E0
E0
ENDCHAR
STARTCHAR uni258F
ENCODING 9615
SWIDTH 1000 0
DWIDTH 15 0
BBX 1 15 0 -3
BITMAP
80
80
80
80
80
80
80
80
80
80
80
80
80
80
80
ENDCHAR
STARTCHAR dkshade
ENCODING 9619
SWIDTH 1000 0
DWIDTH 15 0
BBX 12 12 1 -1
BITMAP
FFF0
FFF0
FFF0
FFF0
FFF0
FFF0
FFF0
FFF0
FFF0
FFF0
FFF0
FFF0
ENDCHAR
STARTCHAR uni2594
ENCODING 9620
SWIDTH 1000 0
DWIDTH 15 0
BBX 15 2 0 10
BITMAP
FFFE
FFFE
ENDCHAR
STARTCHAR uni2595
ENCODING 9621
SWIDTH 1000 0
DWIDTH 15 0
BBX 2 15 13 -3
BITMAP
C0
C0
C0
C0
C0
C0
C0
C0
C0
C0
C0
C0
C0
C0
C0
ENDCHAR
STARTCHAR filledbox
ENCODING 9632
SWIDTH 1000 0
DWIDTH 15 0
BBX 14 14 0 -2
BITMAP
FFFC
FFFC
FFFC
FFFC
FFFC
FFFC
FFFC
FFFC
FFFC
FFFC
FFFC
FFFC
FFFC
FFFC
ENDCHAR
STARTCHAR H22073
ENCODING 9633
SWIDTH 1000 0
DWIDTH 15 0
BBX 14 14 0 -2
BITMAP
FFFC
8004
8004
8004
8004
8004
8004
8004
8004
8004
8004
8004
8004
FFFC
ENDCHAR
STARTCHAR triagup
ENCODING 9650
SWIDTH 1000 0
DWIDTH 15 0
BBX 13 13 0 -1
BITMAP
0200
0200
0700
0700
0F80
0F80
1FC0
1FC0
3FE0
3FE0
7FF0
7FF0
FFF8
ENDCHAR
STARTCHAR uni25B3
ENCODING 9651
SWIDTH 1000 0
DWIDTH 15 0
BBX 13 13 0 -1
BITMAP
0200
0200
0500
0500
0880
0880
1040
1040
2020
2020
4010
4010
FFF8
ENDCHAR
STARTCHAR triagdn
ENCODING 9660
SWIDTH 1000 0
DWIDTH 15 0
BBX 13 13 0 -2
BITMAP
FFF8
7FF0
7FF0
3FE0
3FE0
1FC0
1FC0
0F80
0F80
0700
0700
0200
0200
ENDCHAR
STARTCHAR uni25BD
ENCODING 9661
SWIDTH 1000 0
DWIDTH 15 0
BBX 13 13 0 -2
BITMAP
FFF8
4010
4010
2020
2020
1040
1040
0880
0880
0500
0500
0200
0200
ENDCHAR
STARTCHAR uni25C6
ENCODING 9670
SWIDTH 1000 0
DWIDTH 15 0
BBX 14 14 0 -2
BITMAP
0300
0780
0FC0
1FE0
3FF0
7FF8
FFFC
FFFC
7FF8
3FF0
1FE0
0FC0
0780
0300
ENDCHAR
STARTCHAR uni25C7
ENCODING 9671
SWIDTH 1000 0
DWIDTH 15 0
BBX 14 14 0 -2
BITMAP
0300
0480
0840
1020
2010
4008
8004
8004
4008
2010
1020
0840
0480
0300
ENDCHAR
STARTCHAR circle
ENCODING 9675
SWIDTH 1000 0
DWIDTH 15 0
BBX 14 14 0 -2
BITMAP
0780
1860
2010
4008
4008
8004
8004
8004
8004
4008
4008
2010
1860
0780
ENDCHAR
STARTCHAR uni25CE
ENCODING 9678
SWIDTH 1000 0
DWIDTH 15 0
BBX 14 14 0 -2
BITMAP
0780
1860
2010
4788
4848
9024
9024
9024
9024
4848
4788
2010
1860
0780
ENDCHAR
STARTCHAR H18533
ENCODING 9679
SWIDTH 1000 0
DWIDTH 15 0
BBX 14 14 0 -2
BITMAP
0780
1FE0
3FF0
7FF8
7FF8
FFFC
FFFC
FFFC
FFFC
7FF8
7FF8
3FF0
1FE0
0780
ENDCHAR
STARTCHAR uni25E2
ENCODING 9698
SWIDTH 1000 0
DWIDTH 15 0
BBX 15 15 0 -3
BITMAP
0002
0006
000E
001E
003E
007E
00FE
01FE
03FE
07FE
0FFE
1FFE
3FFE
7FFE
FFFE
ENDCHAR
STARTCHAR uni25E3
ENCODING 9699
SWIDTH 1000 0
DWIDTH 15 0
BBX 15 15 0 -3
BITMAP
8000
C000
E000
F000
F800
FC00
FE00
FF00
FF80
FFC0
FFE0
FFF0
FFF8
FFFC
FFFE
ENDCHAR
STARTCHAR uni25E4
ENCODING 9700
SWIDTH 1000 0
DWIDTH 15 0
BBX 15 15 0 -3
BITMAP
FFFE
FFFC
FFF8
FFF0
FFE0
FFC0
FF80
FF00
FE00
FC00
F800
F000
E000
C000
8000
ENDCHAR
STARTCHAR uni25E5
ENCODING 9701
SWIDTH 1000 0
DWIDTH 15 0
BBX 15 15 0 -3
BITMAP
FFFE
7FFE
3FFE
1FFE
0FFE
07FE
03FE
01FE
00FE
007E
003E
001E
000E
0006
0002
ENDCHAR
STARTCHAR uni2605
ENCODING 9733
SWIDTH 1000 0
DWIDTH 15 0
BBX 14 14 0 -2
BITMAP
0200
0200
0300
0700
0780
FFFC
7FF0
1FE0
0FC0
0FC0
1FE0
1CE0
1860
2010
ENDCHAR
STARTCHAR uni2606
ENCODING 9734
SWIDTH 1000 0
DWIDTH 15 0
BBX 14 14 0 -2
BITMAP
0200
0200
0300
0500
0480
FCFC
4010
2020
1040
1040
2320
2CA0
3060
4010
ENDCHAR
STARTCHAR uni2299.dup24
ENCODING 9737
SWIDTH 1000 0
DWIDTH 15 0
BBX 12 12 1 -1
BITMAP
1F80
2040
4020
8010
8010
8610
8610
8010
8010
4020
2040
1F80
ENDCHAR
STARTCHAR female
ENCODING 9792
SWIDTH 1000 0
DWIDTH 15 0
BBX 8 12 3 -1
BITMAP
3C
42
42
42
3C
10
FF
10
10
10
10
10
ENDCHAR
STARTCHAR circleplus.dup25
ENCODING 9793
SWIDTH 1000 0
DWIDTH 15 0
BBX 11 11 1 0
BITMAP
1F00
2480
4440
8420
8420
FFE0
8420
8420
4440
2480
1F00
ENDCHAR
STARTCHAR male
ENCODING 9794
SWIDTH 1000 0
DWIDTH 15 0
BBX 7 12 3 -1
BITMAP
10
38
54
92
10
10
10
38
44
44
44
38
ENDCHAR
STARTCHAR uni3000
ENCODING 12288
SWIDTH 1000 0
DWIDTH 15 0
BBX 1 1 14 -3
BITMAP
00
ENDCHAR
STARTCHAR uni3001
ENCODING 12289
SWIDTH 1000 0
DWIDTH 15 0
BBX 3 3 2 -2
BITMAP
80
60
20
ENDCHAR
STARTCHAR uni3002
ENCODING 12290
SWIDTH 1000 0
DWIDTH 15 0
BBX 4 4 1 -2
BITMAP
60
90
90
60
ENDCHAR
STARTCHAR second.dup26
ENCODING 12291
SWIDTH 1000 0
DWIDTH 15 0
BBX 6 7 3 1
BITMAP
24
24
6C
48
48
90
90
ENDCHAR
STARTCHAR uni3008
ENCODING 12296
SWIDTH 1000 0
DWIDTH 15 0
BBX 4 14 7 -2
BITMAP
10
10
20
20
40
40
80
80
40
40
20
20
10
10
ENDCHAR
STARTCHAR uni3009
ENCODING 12297
SWIDTH 1000 0
DWIDTH 15 0
BBX 4 14 3 -2
BITMAP
80
80
40
40
20
20
10
10
20
20
40
40
80
80
ENDCHAR
STARTCHAR uni300A
ENCODING 12298
SWIDTH 1000 0
DWIDTH 15 0
BBX 6 14 7 -2
BITMAP
14
14
28
28
50
50
A0
A0
50
50
28
28
14
14
ENDCHAR
STARTCHAR uni300B
ENCODING 12299
SWIDTH 1000 0
DWIDTH 15 0
BBX 6 14 1 -2
BITMAP
A0
A0
50
50
28
28
14
14
28
28
50
50
A0
A0
ENDCHAR
STARTCHAR uni300C
ENCODING 12300
SWIDTH 1000 0
DWIDTH 15 0
BBX 5 7 7 5
BITMAP
F8
80
80
80
80
80
80
ENDCHAR
STARTCHAR uni300D
ENCODING 12301
SWIDTH 1000 0
DWIDTH 15 0
BBX 5 7 2 -2
BITMAP
08
08
08
08
08
08
F8
ENDCHAR
STARTCHAR uni300E
ENCODING 12302
SWIDTH 1000 0
DWIDTH 15 0
BBX 5 7 7 5
BITMAP
F8
88
B8
A0
A0
A0
E0
ENDCHAR
STARTCHAR uni300F
ENCODING 12303
SWIDTH 1000 0
DWIDTH 15 0
BBX 5 7 2 -2
BITMAP
38
28
28
28
E8
88
F8
ENDCHAR
STARTCHAR uni3010
ENCODING 12304
SWIDTH 1000 0
DWIDTH 15 0
BBX 5 14 7 -2
BITMAP
F8
F0
E0
E0
C0
C0
C0
C0
C0
C0
E0
E0
F0
F8
ENDCHAR
STARTCHAR uni3011
ENCODING 12305
SWIDTH 1000 0
DWIDTH 15 0
BBX 5 14 2 -2
BITMAP
F8
78
38
38
18
18
18
18
18
18
38
38
78
F8
ENDCHAR
STARTCHAR uni3012
ENCODING 12306
SWIDTH 1000 0
DWIDTH 15 0
BBX 13 13 0 -2
BITMAP
FFF8
0000
0000
FFF8
0200
0200
0200
0200
0200
0200
0200
0200
0200
ENDCHAR
STARTCHAR uni3014
ENCODING 12308
SWIDTH 1000 0
DWIDTH 15 0
BBX 4 14 7 -2
BITMAP
30
C0
80
80
80
80
80
80
80
80
80
80
C0
30
ENDCHAR
STARTCHAR uni3015
ENCODING 12309
SWIDTH 1000 0
DWIDTH 15 0
BBX 4 14 3 -2
BITMAP
C0
30
10
10
10
10
10
10
10
10
10
10
30
C0
ENDCHAR
STARTCHAR uni301C
ENCODING 12316
SWIDTH 1000 0
DWIDTH 15 0
BBX 12 4 1 3
BITMAP
3000
4C10
8320
00C0
ENDCHAR
STARTCHAR uni301D
ENCODING 12317
SWIDTH 1000 0
DWIDTH 15 0
BBX 6 5 8 7
BITMAP
30
D8
68
24
10
ENDCHAR
STARTCHAR uni301E
ENCODING 12318
SWIDTH 1000 0
DWIDTH 15 0
BBX 6 5 0 7
BITMAP
30
6C
58
90
20
ENDCHAR
STARTCHAR uni3021
ENCODING 12321
SWIDTH 1000 0
DWIDTH 15 0
BBX 1 14 7 -2
BITMAP
80
80
80
80
80
80
80
80
80
80
80
80
80
80
ENDCHAR
STARTCHAR uni3022
ENCODING 12322
SWIDTH 1000 0
DWIDTH 15 0
BBX 7 14 4 -2
BITMAP
02
02
02
82
82
82
82
82
82
82
82
82
02
02
ENDCHAR
STARTCHAR uni3023
ENCODING 12323
SWIDTH 1000 0
DWIDTH 15 0
BBX 10 14 2 -2
BITMAP
0040
8040
8440
8440
8440
8440
8440
8440
8440
8440
8440
8040
8040
0040
ENDCHAR
STARTCHAR uni3024
ENCODING 12324
SWIDTH 1000 0
DWIDTH 15 0
BBX 12 12 1 -1
BITMAP
4040
4040
4080
2080
2100
1100
0A00
0400
0A00
1100
2080
C070
ENDCHAR
STARTCHAR uni3025
ENCODING 12325
SWIDTH 1000 0
DWIDTH 15 0
BBX 9 14 3 -2
BITMAP
0080
2080
4180
4100
2200
1C00
2200
4100
8100
8100
8100
8100
4200
3C00
ENDCHAR
STARTCHAR uni3026
ENCODING 12326
SWIDTH 1000 0
DWIDTH 15 0
BBX 14 4 0 5
BITMAP
0200
0200
0208
FFFC
ENDCHAR
STARTCHAR uni3027
ENCODING 12327
SWIDTH 1000 0
DWIDTH 15 0
BBX 14 8 0 2
BITMAP
0200
0208
FFFC
0000
0000
0000
0020
3FF0
ENDCHAR
STARTCHAR uni3028
ENCODING 12328
SWIDTH 1000 0
DWIDTH 15 0
BBX 14 12 0 -1
BITMAP
0100
0108
FFFC
0000
0000
0000
3FF0
0000
0000
0000
0010
7FF8
ENDCHAR
STARTCHAR uni3029
ENCODING 12329
SWIDTH 1000 0
DWIDTH 15 0
BBX 14 14 0 -2
BITMAP
0100
0100
0110
7FF8
1010
1010
1020
0840
0840
0480
0300
0480
1860
E01C
ENDCHAR
STARTCHAR uni3030
ENCODING 12336
SWIDTH 1000 0
DWIDTH 15 0
BBX 15 3 0 9
BITMAP
3838
4444
8382
ENDCHAR
STARTCHAR uni3041
ENCODING 12353
SWIDTH 1000 0
DWIDTH 15 0
BBX 9 10 3 -2
BITMAP
1000
9E00
7000
1E00
3500
5480
9880
9080
6100
0600
ENDCHAR
STARTCHAR uni3042
ENCODING 12354
SWIDTH 1000 0
DWIDTH 15 0
BBX 11 13 2 -2
BITMAP
1800
0800
8F80
7800
0A00
0F80
3240
5220
9420
8820
9820
6440
0180
ENDCHAR
STARTCHAR uni3043
ENCODING 12355
SWIDTH 1000 0
DWIDTH 15 0
BBX 9 9 3 -1
BITMAP
8000
4000
4200
8100
8080
9080
A000
6000
2000
ENDCHAR
STARTCHAR uni3044
ENCODING 12356
SWIDTH 1000 0
DWIDTH 15 0
BBX 11 11 2 -1
BITMAP
8000
4000
4080
8040
8040
8020
8820
9020
5000
6000
2000
ENDCHAR
STARTCHAR uni3045
ENCODING 12357
SWIDTH 1000 0
DWIDTH 15 0
BBX 6 10 4 -2
BITMAP
78
00
18
E4
04
04
04
04
08
30
ENDCHAR
STARTCHAR uni3046
ENCODING 12358
SWIDTH 1000 0
DWIDTH 15 0
BBX 8 13 3 -2
BITMAP
0C
70
00
00
1E
E1
01
01
02
02
04
08
30
ENDCHAR
STARTCHAR uni3047
ENCODING 12359
SWIDTH 1000 0
DWIDTH 15 0
BBX 9 10 3 -2
BITMAP
1C00
0000
0E00
7200
0400
0800
1400
2400
4400
8380
ENDCHAR
STARTCHAR uni3048
ENCODING 12360
SWIDTH 1000 0
DWIDTH 15 0
BBX 12 13 2 -2
BITMAP
1E00
0300
0400
0100
4F00
3200
0400
0400
0A00
1200
2200
4230
81E0
ENDCHAR
STARTCHAR uni3049
ENCODING 12361
SWIDTH 1000 0
DWIDTH 15 0
BBX 10 10 2 -2
BITMAP
3100
1080
1E40
7000
1780
1840
3040
D440
3380
1000
ENDCHAR
STARTCHAR uni304A
ENCODING 12362
SWIDTH 1000 0
DWIDTH 15 0
BBX 13 13 1 -2
BITMAP
1000
0C00
0860
0F10
7808
0800
09E0
0E10
3810
C810
2A20
19C0
1000
ENDCHAR
STARTCHAR uni304B
ENCODING 12363
SWIDTH 1000 0
DWIDTH 15 0
BBX 12 13 2 -2
BITMAP
3000
1000
1080
1E40
F120
1120
2110
2170
2110
4100
4900
8600
8400
ENDCHAR
STARTCHAR uni304C
ENCODING 12364
SWIDTH 1000 0
DWIDTH 15 0
BBX 12 14 2 -2
BITMAP
0020
3090
1040
1080
1E40
F120
1120
2110
2170
2110
4100
4900
8600
8400
ENDCHAR
STARTCHAR uni304D
ENCODING 12365
SWIDTH 1000 0
DWIDTH 15 0
BBX 11 13 2 -2
BITMAP
0C00
0480
7F00
0420
07C0
FA00
0100
1F80
2080
4000
4000
2040
1F80
ENDCHAR
STARTCHAR uni304E
ENCODING 12366
SWIDTH 1000 0
DWIDTH 15 0
BBX 13 14 1 -2
BITMAP
0050
0C28
0480
7F00
0420
07C0
FA00
0100
1F80
2080
4000
4000
2040
1F80
ENDCHAR
STARTCHAR uni304F
ENCODING 12367
SWIDTH 1000 0
DWIDTH 15 0
BBX 7 13 4 -2
BITMAP
08
04
08
10
20
40
80
40
20
10
08
04
02
ENDCHAR
STARTCHAR uni3050
ENCODING 12368
SWIDTH 1000 0
DWIDTH 15 0
BBX 10 14 4 -2
BITMAP
0080
0840
0500
0880
1000
2000
4000
8000
4000
2000
1000
0800
0400
0200
ENDCHAR
STARTCHAR uni3051
ENCODING 12369
SWIDTH 1000 0
DWIDTH 15 0
BBX 12 13 2 -2
BITMAP
8180
4080
4080
48F0
8780
8080
8080
9080
A080
A100
C100
4200
0C00
ENDCHAR
STARTCHAR uni3052
ENCODING 12370
SWIDTH 1000 0
DWIDTH 15 0
BBX 13 14 1 -2
BITMAP
0050
81A8
4080
4080
48F0
8780
8080
8080
9080
A080
A100
C100
4200
0C00
ENDCHAR
STARTCHAR uni3053
ENCODING 12371
SWIDTH 1000 0
DWIDTH 15 0
BBX 11 11 2 -1
BITMAP
4000
3F00
0600
0800
0000
4000
8000
8000
8000
4040
3FE0
ENDCHAR
STARTCHAR uni3054
ENCODING 12372
SWIDTH 1000 0
DWIDTH 15 0
BBX 12 13 2 -1
BITMAP
0020
0090
4040
3F00
0600
0800
0000
4000
8000
8000
8000
4040
3FE0
ENDCHAR
STARTCHAR uni3055
ENCODING 12373
SWIDTH 1000 0
DWIDTH 15 0
BBX 10 13 3 -2
BITMAP
3000
1000
08C0
0F00
F400
0200
0100
3F80
4080
8000
8000
4080
3F00
ENDCHAR
STARTCHAR uni3056
ENCODING 12374
SWIDTH 1000 0
DWIDTH 15 0
BBX 12 14 2 -2
BITMAP
00A0
3050
1000
08C0
0F00
F400
0200
0100
3F80
4080
8000
8000
4080
3F00
ENDCHAR
STARTCHAR uni3057
ENCODING 12375
SWIDTH 1000 0
DWIDTH 15 0
BBX 10 12 3 -1
BITMAP
8000
6000
4000
4000
4000
4000
4000
4040
4040
4080
4300
3C00
ENDCHAR
STARTCHAR uni3058
ENCODING 12376
SWIDTH 1000 0
DWIDTH 15 0
BBX 10 12 3 -1
BITMAP
8000
6100
4480
4200
4000
4000
4000
4040
4040
4080
4300
3C00
ENDCHAR
STARTCHAR uni3059
ENCODING 12377
SWIDTH 1000 0
DWIDTH 15 0
BBX 12 13 1 -2
BITMAP
0400
0200
03E0
FE10
0200
0E00
1200
1200
1200
0E00
0200
0400
1800
ENDCHAR
STARTCHAR uni305A
ENCODING 12378
SWIDTH 1000 0
DWIDTH 15 0
BBX 13 14 1 -2
BITMAP
0050
0428
0200
03E0
FE10
0200
0E00
1200
1200
1200
0E00
0200
0400
1800
ENDCHAR
STARTCHAR uni305B
ENCODING 12379
SWIDTH 1000 0
DWIDTH 15 0
BBX 13 11 1 -1
BITMAP
20C0
1040
1078
13C0
FC40
1040
1240
11C0
1080
1010
0FE0
ENDCHAR
STARTCHAR uni305C
ENCODING 12380
SWIDTH 1000 0
DWIDTH 15 0
BBX 13 13 1 -1
BITMAP
0010
0028
20D0
1040
1078
13C0
FC40
1040
1240
11C0
1080
1010
0FE0
ENDCHAR
STARTCHAR uni305D
ENCODING 12381
SWIDTH 1000 0
DWIDTH 15 0
BBX 13 13 1 -2
BITMAP
0040
1FC0
0100
0200
0400
0BF8
FD00
0200
0400
0400
0400
0200
01C0
ENDCHAR
STARTCHAR uni305E
ENCODING 12382
SWIDTH 1000 0
DWIDTH 15 0
BBX 13 14 1 -2
BITMAP
0050
0128
3F80
0200
0400
0800
17E0
FA00
0400
0800
0800
0800
0400
0380
ENDCHAR
STARTCHAR uni305F
ENCODING 12383
SWIDTH 1000 0
DWIDTH 15 0
BBX 12 13 2 -2
BITMAP
1800
1000
1E00
F000
23E0
2080
4000
4000
4400
8400
8400
8200
01F0
ENDCHAR
STARTCHAR uni3060
ENCODING 12384
SWIDTH 1000 0
DWIDTH 15 0
BBX 12 14 2 -2
BITMAP
0020
1890
1040
1E00
F000
23E0
2080
4000
4000
4400
8400
8400
8200
01F0
ENDCHAR
STARTCHAR uni3061
ENCODING 12385
SWIDTH 1000 0
DWIDTH 15 0
BBX 11 13 1 -2
BITMAP
0C00
0800
88C0
7F00
0800
1000
17C0
3820
2020
0020
0020
0040
0F80
ENDCHAR
STARTCHAR uni3062
ENCODING 12386
SWIDTH 1000 0
DWIDTH 15 0
BBX 13 14 1 -2
BITMAP
0050
0C28
0800
88C0
7F00
0800
1000
17C0
3820
2020
0020
0020
0040
0F80
ENDCHAR
STARTCHAR uni3063
ENCODING 12387
SWIDTH 1000 0
DWIDTH 15 0
BBX 9 9 3 -2
BITMAP
1E00
E100
0080
0080
0080
0080
0100
0600
3800
ENDCHAR
STARTCHAR uni3064
ENCODING 12388
SWIDTH 1000 0
DWIDTH 15 0
BBX 12 10 1 -1
BITMAP
03C0
1C20
E010
0010
0010
0010
0010
0020
00C0
0F00
ENDCHAR
STARTCHAR uni3065
ENCODING 12389
SWIDTH 1000 0
DWIDTH 15 0
BBX 13 13 1 -1
BITMAP
0050
0028
0000
03C0
1C20
E010
0010
0010
0010
0010
0020
00C0
0F00
ENDCHAR
STARTCHAR uni3066
ENCODING 12390
SWIDTH 1000 0
DWIDTH 15 0
BBX 13 12 1 -2
BITMAP
00F0
8F88
7100
0200
0200
0400
0400
0400
0400
0200
0100
00C0
ENDCHAR
STARTCHAR uni3067
ENCODING 12391
SWIDTH 1000 0
DWIDTH 15 0
BBX 13 12 1 -2
BITMAP
00F0
8F88
7100
0250
0228
0400
0400
0400
0400
0200
0100
00C0
ENDCHAR
STARTCHAR uni3068
ENCODING 12392
SWIDTH 1000 0
DWIDTH 15 0
BBX 10 12 3 -1
BITMAP
1000
0800
0800
0880
0980
0E00
3000
4000
8000
8000
8000
7FC0
ENDCHAR
STARTCHAR uni3069
ENCODING 12393
SWIDTH 1000 0
DWIDTH 15 0
BBX 11 13 3 -1
BITMAP
0040
1120
0880
0800
0880
0980
0E00
3000
4000
8000
8000
8000
7FC0
ENDCHAR
STARTCHAR uni306A
ENCODING 12394
SWIDTH 1000 0
DWIDTH 15 0
BBX 13 13 1 -2
BITMAP
1800
0800
8EC0
7830
1058
1080
2080
2080
4080
8780
08E0
0890
0700
ENDCHAR
STARTCHAR uni306B
ENCODING 12395
SWIDTH 1000 0
DWIDTH 15 0
BBX 11 11 2 -1
BITMAP
4000
47C0
4080
4100
8000
8000
8000
A000
C800
C400
43E0
ENDCHAR
STARTCHAR uni306C
ENCODING 12396
SWIDTH 1000 0
DWIDTH 15 0
BBX 13 13 1 -2
BITMAP
0400
0200
4200
27C0
3C20
2410
6410
9410
8810
8D90
9250
6230
01C8
ENDCHAR
STARTCHAR uni306D
ENCODING 12397
SWIDTH 1000 0
DWIDTH 15 0
BBX 13 13 1 -2
BITMAP
3000
1000
10C0
9B20
7410
1810
1010
3010
5010
91D0
D230
3218
11E8
ENDCHAR
STARTCHAR uni306E
ENCODING 12398
SWIDTH 1000 0
DWIDTH 15 0
BBX 11 11 2 -2
BITMAP
1F80
2440
4420
4420
8420
8420
8820
8820
9040
6080
0300
ENDCHAR
STARTCHAR uni306F
ENCODING 12399
SWIDTH 1000 0
DWIDTH 15 0
BBX 12 12 2 -1
BITMAP
8100
4080
4080
88F0
8780
8080
8080
8080
A080
C780
C8E0
8710
ENDCHAR
STARTCHAR uni3070
ENCODING 12400
SWIDTH 1000 0
DWIDTH 15 0
BBX 13 13 1 -1
BITMAP
0050
8128
4080
4080
88F0
8780
8080
8080
8080
A080
C780
C8E0
8710
ENDCHAR
STARTCHAR uni3071
ENCODING 12401
SWIDTH 1000 0
DWIDTH 15 0
BBX 13 13 1 -1
BITMAP
0038
8128
40B8
4080
88F0
8780
8080
8080
8080
A080
C780
C8E0
8710
ENDCHAR
STARTCHAR uni3072
ENCODING 12402
SWIDTH 1000 0
DWIDTH 15 0
BBX 13 12 1 -2
BITMAP
0800
F840
1060
2060
2050
4048
4040
4040
4080
4080
2100
1E00
ENDCHAR
STARTCHAR uni3073
ENCODING 12403
SWIDTH 1000 0
DWIDTH 15 0
BBX 13 14 1 -2
BITMAP
0050
0028
0800
F840
1060
2060
2050
4048
4040
4040
4080
4080
2100
1E00
ENDCHAR
STARTCHAR uni3074
ENCODING 12404
SWIDTH 1000 0
DWIDTH 15 0
BBX 13 14 1 -2
BITMAP
0038
0028
0838
F840
1060
2060
2050
4048
4040
4040
4080
4080
2100
1E00
ENDCHAR
STARTCHAR uni3075
ENCODING 12405
SWIDTH 1000 0
DWIDTH 15 0
BBX 13 13 1 -2
BITMAP
0C00
0300
0180
0200
0400
0400
0380
0660
1910
A118
D908
4700
0200
ENDCHAR
STARTCHAR uni3076
ENCODING 12406
SWIDTH 1000 0
DWIDTH 15 0
BBX 13 13 1 -2
BITMAP
0C50
0328
0180
0200
0400
0400
0380
0660
1910
A118
D908
4700
0200
ENDCHAR
STARTCHAR uni3077
ENCODING 12407
SWIDTH 1000 0
DWIDTH 15 0
BBX 13 13 1 -2
BITMAP
0C38
0328
01B8
0200
0400
0400
0380
0660
1910
A118
D908
4700
0200
ENDCHAR
STARTCHAR uni3078
ENCODING 12408
SWIDTH 1000 0
DWIDTH 15 0
BBX 13 8 1 0
BITMAP
0C00
1200
2100
C080
8040
0020
0018
0008
ENDCHAR
STARTCHAR uni3079
ENCODING 12409
SWIDTH 1000 0
DWIDTH 15 0
BBX 13 10 1 0
BITMAP
0020
0090
0C40
1200
2100
C080
8040
0020
0018
0008
ENDCHAR
STARTCHAR uni307A
ENCODING 12410
SWIDTH 1000 0
DWIDTH 15 0
BBX 13 10 1 0
BITMAP
00E0
00A0
0CE0
1200
2100
C080
8040
0020
0018
0008
ENDCHAR
STARTCHAR uni307B
ENCODING 12411
SWIDTH 1000 0
DWIDTH 15 0
BBX 12 13 2 -2
BITMAP
8000
48E0
4780
4080
8080
8FF0
8080
8080
A080
C780
C8C0
88B0
0710
ENDCHAR
STARTCHAR uni307C
ENCODING 12412
SWIDTH 1000 0
DWIDTH 15 0
BBX 13 14 1 -2
BITMAP
0050
8028
48E0
4780
4080
8080
8FF0
8080
8080
A080
C780
C8C0
88B0
0710
ENDCHAR
STARTCHAR uni307D
ENCODING 12413
SWIDTH 1000 0
DWIDTH 15 0
BBX 13 14 1 -2
BITMAP
0038
8028
48F8
4780
4080
8080
8FF0
8080
8080
A080
C780
C8C0
88B0
0710
ENDCHAR
STARTCHAR uni307E
ENCODING 12414
SWIDTH 1000 0
DWIDTH 15 0
BBX 11 13 2 -2
BITMAP
0C00
0400
4780
3C00
0440
87E0
7C00
0400
0400
7C00
8700
84C0
7840
ENDCHAR
STARTCHAR uni307F
ENCODING 12415
SWIDTH 1000 0
DWIDTH 15 0
BBX 13 12 1 -2
BITMAP
4E00
3200
0200
0460
0440
3F40
48C0
9060
9098
A088
4100
0600
ENDCHAR
STARTCHAR uni3080
ENCODING 12416
SWIDTH 1000 0
DWIDTH 15 0
BBX 13 13 1 -2
BITMAP
1800
0800
8E00
7820
1050
3048
4858
4820
4820
3020
1020
1020
0FC0
ENDCHAR
STARTCHAR uni3081
ENCODING 12417
SWIDTH 1000 0
DWIDTH 15 0
BBX 11 13 2 -2
BITMAP
0400
0200
C200
4F80
3440
6420
A820
A820
9020
9820
A840
4180
0E00
ENDCHAR
STARTCHAR uni3082
ENCODING 12418
SWIDTH 1000 0
DWIDTH 15 0
BBX 10 13 2 -2
BITMAP
1800
0800
8800
7E00
0800
5100
5080
3E40
1040
1040
1040
0880
0700
ENDCHAR
STARTCHAR uni3083
ENCODING 12419
SWIDTH 1000 0
DWIDTH 15 0
BBX 11 10 2 -2
BITMAP
0600
2200
27C0
1820
F020
17C0
0800
0800
0400
0400
ENDCHAR
STARTCHAR uni3084
ENCODING 12420
SWIDTH 1000 0
DWIDTH 15 0
BBX 12 13 1 -2
BITMAP
0600
1100
2080
21E0
1610
3810
CA10
09E0
0400
0400
0200
0200
0200
ENDCHAR
STARTCHAR uni3085
ENCODING 12421
SWIDTH 1000 0
DWIDTH 15 0
BBX 9 11 3 -2
BITMAP
0C00
9200
9700
9A80
B280
D280
D280
8F00
8400
0800
3000
ENDCHAR
STARTCHAR uni3086
ENCODING 12422
SWIDTH 1000 0
DWIDTH 15 0
BBX 13 13 1 -2
BITMAP
0700
C880
49E0
4A90
8C88
8888
9888
A888
6490
43E0
0100
0200
0C00
ENDCHAR
STARTCHAR uni3087
ENCODING 12423
SWIDTH 1000 0
DWIDTH 15 0
BBX 9 11 3 -2
BITMAP
1000
0800
0880
0F00
0800
0800
0800
7800
8E00
8980
7080
ENDCHAR
STARTCHAR uni3088
ENCODING 12424
SWIDTH 1000 0
DWIDTH 15 0
BBX 11 13 2 -2
BITMAP
0800
0400
0400
0440
0780
0400
0400
0400
0400
7C00
8780
8460
7820
ENDCHAR
STARTCHAR uni3089
ENCODING 12425
SWIDTH 1000 0
DWIDTH 15 0
BBX 9 13 3 -2
BITMAP
6000
1800
3C00
4000
8000
8000
9E00
A100
C080
4080
0080
0100
7E00
ENDCHAR
STARTCHAR uni308A
ENCODING 12426
SWIDTH 1000 0
DWIDTH 15 0
BBX 8 13 3 -2
BITMAP
80
46
49
51
51
61
61
61
21
02
02
04
18
ENDCHAR
STARTCHAR uni308B
ENCODING 12427
SWIDTH 1000 0
DWIDTH 15 0
BBX 10 12 2 -2
BITMAP
4F00
3200
0400
0800
1000
3F00
6080
4040
9C40
2240
2480
1F00
ENDCHAR
STARTCHAR uni308C
ENCODING 12428
SWIDTH 1000 0
DWIDTH 15 0
BBX 14 13 0 -2
BITMAP
0800
0C00
08C0
4D20
3A20
0C20
0840
1840
2840
C844
2848
1830
0800
ENDCHAR
STARTCHAR uni308D
ENCODING 12429
SWIDTH 1000 0
DWIDTH 15 0
BBX 10 12 2 -2
BITMAP
4F00
3200
0400
0800
1000
3F80
6040
4040
8040
0040
0080
1F00
ENDCHAR
STARTCHAR uni308E
ENCODING 12430
SWIDTH 1000 0
DWIDTH 15 0
BBX 10 11 2 -2
BITMAP
2000
1000
1000
9B80
7440
1840
3040
D040
5040
3080
1300
ENDCHAR
STARTCHAR uni308F
ENCODING 12431
SWIDTH 1000 0
DWIDTH 15 0
BBX 13 13 0 -2
BITMAP
0800
0C00
0800
4DE0
3A10
0C08
0808
1808
2808
C808
2810
1820
09C0
ENDCHAR
STARTCHAR uni3090
ENCODING 12432
SWIDTH 1000 0
DWIDTH 15 0
BBX 11 12 2 -2
BITMAP
4E00
3200
0400
0780
1840
2820
4820
9020
9720
A8A0
48C0
0700
ENDCHAR
STARTCHAR uni3091
ENCODING 12433
SWIDTH 1000 0
DWIDTH 15 0
BBX 13 13 1 -2
BITMAP
0100
1F80
0200
0580
0E40
1040
2C40
1280
0F00
10E0
3910
C638
8048
ENDCHAR
STARTCHAR uni3092
ENCODING 12434
SWIDTH 1000 0
DWIDTH 15 0
BBX 11 13 2 -2
BITMAP
0C00
0800
8F00
7000
2040
3CC0
6300
CE00
1200
2200
2000
1060
0F80
ENDCHAR
STARTCHAR uni3093
ENCODING 12435
SWIDTH 1000 0
DWIDTH 15 0
BBX 12 13 2 -2
BITMAP
0C00
0800
0800
0800
1000
1000
1C00
2200
2210
4210
4220
81C0
8000
ENDCHAR
STARTCHAR uni309B
ENCODING 12443
SWIDTH 1000 0
DWIDTH 15 0
BBX 4 3 0 9
BITMAP
20
90
40
ENDCHAR
STARTCHAR uni309C
ENCODING 12444
SWIDTH 1000 0
DWIDTH 15 0
BBX 4 3 0 9
BITMAP
60
90
60
ENDCHAR
STARTCHAR uni309D
ENCODING 12445
SWIDTH 1000 0
DWIDTH 15 0
BBX 7 8 4 0
BITMAP
80
40
20
10
08
04
1E
20
ENDCHAR
STARTCHAR uni309E
ENCODING 12446
SWIDTH 1000 0
DWIDTH 15 0
BBX 8 9 4 0
BITMAP
02
89
44
20
10
08
04
1E
20
ENDCHAR
STARTCHAR uni30A1
ENCODING 12449
SWIDTH 1000 0
DWIDTH 15 0
BBX 9 9 3 -2
BITMAP
FF80
0100
3200
1C00
1000
1000
1000
2000
4000
ENDCHAR
STARTCHAR uni30A2
ENCODING 12450
SWIDTH 1000 0
DWIDTH 15 0
BBX 13 12 1 -2
BITMAP
83F0
7C18
0020
0CC0
0700
0400
0400
0400
0800
0800
1000
6000
ENDCHAR
STARTCHAR uni30A3
ENCODING 12451
SWIDTH 1000 0
DWIDTH 15 0
BBX 7 10 3 -2
BITMAP
02
04
08
18
28
C8
08
08
08
08
ENDCHAR
STARTCHAR uni30A4
ENCODING 12452
SWIDTH 1000 0
DWIDTH 15 0
BBX 9 13 2 -2
BITMAP
0180
0100
0200
0200
0600
0A00
3200
C200
0200
0200
0200
0600
0200
ENDCHAR
STARTCHAR uni30A5
ENCODING 12453
SWIDTH 1000 0
DWIDTH 15 0
BBX 9 11 3 -2
BITMAP
1800
0800
8800
7F80
4100
4100
4200
0200
0400
0800
3000
ENDCHAR
STARTCHAR uni30A6
ENCODING 12454
SWIDTH 1000 0
DWIDTH 15 0
BBX 11 13 2 -2
BITMAP
0C00
0400
8400
7FE0
4040
4040
4040
4080
0080
0100
0200
0C00
3000
ENDCHAR
STARTCHAR uni30A7
ENCODING 12455
SWIDTH 1000 0
DWIDTH 15 0
BBX 12 8 2 -1
BITMAP
00C0
7F00
0400
0400
0400
0400
87E0
7C30
ENDCHAR
STARTCHAR uni30A8
ENCODING 12456
SWIDTH 1000 0
DWIDTH 15 0
BBX 13 9 1 0
BITMAP
4060
3F80
0200
0200
0200
0200
0200
03F0
FE18
ENDCHAR
STARTCHAR uni30A9
ENCODING 12457
SWIDTH 1000 0
DWIDTH 15 0
BBX 9 10 3 -2
BITMAP
0C00
0400
8780
7C00
0C00
1400
2400
5400
8C00
0400
ENDCHAR
STARTCHAR uni30AA
ENCODING 12458
SWIDTH 1000 0
DWIDTH 15 0
BBX 12 13 1 -2
BITMAP
0300
0180
0120
41F0
3F00
0300
0500
0900
1100
2100
C500
0300
0100
ENDCHAR
STARTCHAR uni30AB
ENCODING 12459
SWIDTH 1000 0
DWIDTH 15 0
BBX 12 13 1 -2
BITMAP
0600
0200
0200
03E0
7E30
0420
0420
0820
0820
1020
2120
40C0
8080
ENDCHAR
STARTCHAR uni30AC
ENCODING 12460
SWIDTH 1000 0
DWIDTH 15 0
BBX 13 14 1 -2
BITMAP
0010
0648
0220
0200
03E0
7E30
0420
0420
0820
0820
1020
2120
40C0
8080
ENDCHAR
STARTCHAR uni30AD
ENCODING 12461
SWIDTH 1000 0
DWIDTH 15 0
BBX 13 13 1 -2
BITMAP
0C00
0400
0460
8F80
7200
0210
03F8
FE00
0100
0100
0100
0100
0100
ENDCHAR
STARTCHAR uni30AE
ENCODING 12462
SWIDTH 1000 0
DWIDTH 15 0
BBX 13 14 1 -2
BITMAP
0050
0C28
0400
0460
4780
3A00
0210
03F8
FE00
0100
0100
0100
0100
0100
ENDCHAR
STARTCHAR uni30AF
ENCODING 12463
SWIDTH 1000 0
DWIDTH 15 0
BBX 10 13 2 -2
BITMAP
1800
1000
11C0
1E40
2040
4040
8080
0080
0100
0200
0400
1800
6000
ENDCHAR
STARTCHAR uni30B0
ENCODING 12464
SWIDTH 1000 0
DWIDTH 15 0
BBX 12 14 2 -2
BITMAP
0020
1850
1020
11C0
1E40
2040
4040
8080
0080
0100
0200
0400
1800
6000
ENDCHAR
STARTCHAR uni30B1
ENCODING 12465
SWIDTH 1000 0
DWIDTH 15 0
BBX 12 13 1 -2
BITMAP
0C00
0800
0800
10F0
1F00
2100
4100
8100
0200
0200
0400
0800
3000
ENDCHAR
STARTCHAR uni30B2
ENCODING 12466
SWIDTH 1000 0
DWIDTH 15 0
BBX 13 14 1 -2
BITMAP
0010
0C48
0820
0800
10F0
1F00
2100
4100
8100
0200
0200
0400
0800
3000
ENDCHAR
STARTCHAR uni30B3
ENCODING 12467
SWIDTH 1000 0
DWIDTH 15 0
BBX 10 9 2 0
BITMAP
47C0
3840
0040
0040
0040
0040
0040
8040
7FC0
ENDCHAR
STARTCHAR uni30B4
ENCODING 12468
SWIDTH 1000 0
DWIDTH 15 0
BBX 13 12 1 0
BITMAP
0010
0048
0020
47C0
3840
0040
0040
0040
0040
0040
8040
7FC0
ENDCHAR
STARTCHAR uni30B5
ENCODING 12469
SWIDTH 1000 0
DWIDTH 15 0
BBX 13 13 1 -2
BITMAP
0180
1080
0880
8890
7FF8
0880
0880
0880
0880
0080
0100
0600
1800
ENDCHAR
STARTCHAR uni30B6
ENCODING 12470
SWIDTH 1000 0
DWIDTH 15 0
BBX 14 14 0 -2
BITMAP
0008
01A4
1090
0880
8890
7FF8
0880
0880
0880
0880
0080
0100
0600
1800
ENDCHAR
STARTCHAR uni30B7
ENCODING 12471
SWIDTH 1000 0
DWIDTH 15 0
BBX 12 11 2 -1
BITMAP
2000
1800
0810
8010
6020
2040
0080
0100
0600
1800
E000
ENDCHAR
STARTCHAR uni30B8
ENCODING 12472
SWIDTH 1000 0
DWIDTH 15 0
BBX 12 13 2 -1
BITMAP
0040
0120
2080
1800
0810
8010
6020
2040
0080
0100
0600
1800
E000
ENDCHAR
STARTCHAR uni30B9
ENCODING 12473
SWIDTH 1000 0
DWIDTH 15 0
BBX 12 11 1 -1
BITMAP
23C0
1C60
0040
0080
0080
0100
0280
0440
0820
3030
C010
ENDCHAR
STARTCHAR uni30BA
ENCODING 12474
SWIDTH 1000 0
DWIDTH 15 0
BBX 14 13 0 -1
BITMAP
0028
0014
23C0
1C60
0040
0080
0080
0100
0280
0440
0820
3030
C010
ENDCHAR
STARTCHAR uni30BB
ENCODING 12475
SWIDTH 1000 0
DWIDTH 15 0
BBX 12 12 1 -1
BITMAP
1000
0C00
0800
08F0
0F10
F820
4840
0880
0800
0800
0800
07F0
ENDCHAR
STARTCHAR uni30BC
ENCODING 12476
SWIDTH 1000 0
DWIDTH 15 0
BBX 13 13 1 -1
BITMAP
0010
1048
0C20
0800
08F0
0F10
F820
4840
0880
0800
0800
0800
07F0
ENDCHAR
STARTCHAR uni30BD
ENCODING 12477
SWIDTH 1000 0
DWIDTH 15 0
BBX 10 11 2 -1
BITMAP
0100
80C0
6080
2080
0080
0100
0100
0200
0400
0800
3000
ENDCHAR
STARTCHAR uni30BE
ENCODING 12478
SWIDTH 1000 0
DWIDTH 15 0
BBX 13 13 1 -1
BITMAP
0010
0048
0120
80C0
6080
2080
0080
0100
0100
0200
0400
0800
3000
ENDCHAR
STARTCHAR uni30BF
ENCODING 12479
SWIDTH 1000 0
DWIDTH 15 0
BBX 11 14 1 -2
BITMAP
0C00
0400
0440
0FE0
0840
1040
2C80
4280
0100
0280
0440
0840
3000
C000
ENDCHAR
STARTCHAR uni30C0
ENCODING 12480
SWIDTH 1000 0
DWIDTH 15 0
BBX 13 14 1 -2
BITMAP
0C50
0428
0440
0FE0
0840
1040
2C80
4280
0100
0280
0440
0840
3000
C000
ENDCHAR
STARTCHAR uni30C1
ENCODING 12481
SWIDTH 1000 0
DWIDTH 15 0
BBX 12 13 1 -2
BITMAP
0040
01E0
3E00
0200
0200
83F0
7E00
0200
0400
0400
0800
1000
6000
ENDCHAR
STARTCHAR uni30C2
ENCODING 12482
SWIDTH 1000 0
DWIDTH 15 0
BBX 14 14 0 -2
BITMAP
0008
0054
01E8
3E00
0300
0200
83F0
7E00
0200
0400
0400
0800
1000
6000
ENDCHAR
STARTCHAR uni30C3
ENCODING 12483
SWIDTH 1000 0
DWIDTH 15 0
BBX 9 9 3 -2
BITMAP
1180
8900
4900
4100
0200
0200
0400
0800
3000
ENDCHAR
STARTCHAR uni30C4
ENCODING 12484
SWIDTH 1000 0
DWIDTH 15 0
BBX 11 12 2 -2
BITMAP
00C0
0860
8440
4440
4040
0080
0080
0100
0200
0400
1800
6000
ENDCHAR
STARTCHAR uni30C5
ENCODING 12485
SWIDTH 1000 0
DWIDTH 15 0
BBX 13 14 1 -2
BITMAP
0050
0028
00C0
0860
8440
4440
4040
0080
0080
0100
0200
0400
1800
6000
ENDCHAR
STARTCHAR uni30C6
ENCODING 12486
SWIDTH 1000 0
DWIDTH 15 0
BBX 13 13 1 -2
BITMAP
0080
23C0
1C00
0000
83F0
7E18
0200
0200
0400
0400
0800
1000
6000
ENDCHAR
STARTCHAR uni30C7
ENCODING 12487
SWIDTH 1000 0
DWIDTH 15 0
BBX 13 14 1 -2
BITMAP
0010
00A8
23D0
1C00
0000
83F0
7E18
0200
0200
0400
0400
0800
1000
6000
ENDCHAR
STARTCHAR uni30C8
ENCODING 12488
SWIDTH 1000 0
DWIDTH 15 0
BBX 7 13 5 -2
BITMAP
C0
60
40
40
70
48
46
42
40
40
40
40
40
ENDCHAR
STARTCHAR uni30C9
ENCODING 12489
SWIDTH 1000 0
DWIDTH 15 0
BBX 8 13 5 -2
BITMAP
CA
65
40
40
70
48
46
42
40
40
40
40
40
ENDCHAR
STARTCHAR uni30CA
ENCODING 12490
SWIDTH 1000 0
DWIDTH 15 0
BBX 13 13 1 -2
BITMAP
0400
0300
0200
0210
83F8
7E00
0200
0200
0400
0400
0800
1000
6000
ENDCHAR
STARTCHAR uni30CB
ENCODING 12491
SWIDTH 1000 0
DWIDTH 15 0
BBX 13 9 1 0
BITMAP
0040
23E0
1C00
0000
0000
0000
0000
03F0
FC18
ENDCHAR
STARTCHAR uni30CC
ENCODING 12492
SWIDTH 1000 0
DWIDTH 15 0
BBX 12 12 1 -2
BITMAP
21E0
1E20
0040
0040
1880
0700
0180
0260
0430
0810
3000
C000
ENDCHAR
STARTCHAR uni30CD
ENCODING 12493
SWIDTH 1000 0
DWIDTH 15 0
BBX 11 13 2 -2
BITMAP
1800
0400
0280
7FC0
0100
0200
0500
0C80
3460
C420
0400
0400
0400
ENDCHAR
STARTCHAR uni30CE
ENCODING 12494
SWIDTH 1000 0
DWIDTH 15 0
BBX 10 12 2 -2
BITMAP
00C0
0080
0080
0080
0100
0100
0200
0400
0800
1000
2000
C000
ENDCHAR
STARTCHAR uni30CF
ENCODING 12495
SWIDTH 1000 0
DWIDTH 15 0
BBX 13 11 1 -1
BITMAP
2000
1880
1040
1040
1020
2020
2020
2010
4010
4018
8010
ENDCHAR
STARTCHAR uni30D0
ENCODING 12496
SWIDTH 1000 0
DWIDTH 15 0
BBX 13 12 1 -1
BITMAP
0050
0028
1880
1040
1040
1020
2020
2020
2010
4010
4018
8010
ENDCHAR
STARTCHAR uni30D1
ENCODING 12497
SWIDTH 1000 0
DWIDTH 15 0
BBX 13 13 1 -1
BITMAP
0038
0028
0038
1880
1040
1040
1020
2020
2020
2010
4010
4018
8010
ENDCHAR
STARTCHAR uni30D2
ENCODING 12498
SWIDTH 1000 0
DWIDTH 15 0
BBX 10 12 3 -1
BITMAP
8000
6000
4180
4100
4200
4C00
7000
4000
4000
4000
4000
3FC0
ENDCHAR
STARTCHAR uni30D3
ENCODING 12499
SWIDTH 1000 0
DWIDTH 15 0
BBX 12 13 2 -1
BITMAP
0020
8090
6040
4000
4180
4300
4C00
7000
4000
4000
4000
4000
3FC0
ENDCHAR
STARTCHAR uni30D4
ENCODING 12500
SWIDTH 1000 0
DWIDTH 15 0
BBX 12 13 2 -1
BITMAP
0070
8050
6070
4000
4180
4300
4C00
7000
4000
4000
4000
4000
3FC0
ENDCHAR
STARTCHAR uni30D5
ENCODING 12501
SWIDTH 1000 0
DWIDTH 15 0
BBX 11 12 2 -2
BITMAP
0040
FFE0
4040
0040
0080
0080
0100
0200
0400
0800
3000
C000
ENDCHAR
STARTCHAR uni30D6
ENCODING 12502
SWIDTH 1000 0
DWIDTH 15 0
BBX 13 14 1 -2
BITMAP
0050
0028
0080
FFC0
4040
0040
0080
0080
0100
0200
0400
0800
3000
C000
ENDCHAR
STARTCHAR uni30D7
ENCODING 12503
SWIDTH 1000 0
DWIDTH 15 0
BBX 13 14 1 -2
BITMAP
0038
0028
00B8
FFC0
4040
0040
0080
0080
0100
0200
0400
0800
3000
C000
ENDCHAR
STARTCHAR uni30D8
ENCODING 12504
SWIDTH 1000 0
DWIDTH 15 0
BBX 13 8 1 0
BITMAP
0C00
1200
2100
E080
4040
0030
0018
0008
ENDCHAR
STARTCHAR uni30D9
ENCODING 12505
SWIDTH 1000 0
DWIDTH 15 0
BBX 13 10 1 0
BITMAP
0140
00A0
0C00
1200
2100
E080
4040
0030
0018
0008
ENDCHAR
STARTCHAR uni30DA
ENCODING 12506
SWIDTH 1000 0
DWIDTH 15 0
BBX 13 11 1 0
BITMAP
00E0
00A0
00E0
0C00
1200
2100
E080
4040
0030
0018
0008
ENDCHAR
STARTCHAR uni30DB
ENCODING 12507
SWIDTH 1000 0
DWIDTH 15 0
BBX 11 13 2 -2
BITMAP
0C00
0400
0440
07E0
FC00
0480
2440
4440
4420
8420
9420
0C00
0800
ENDCHAR
STARTCHAR uni30DC
ENCODING 12508
SWIDTH 1000 0
DWIDTH 15 0
BBX 12 14 2 -2
BITMAP
0020
0C90
0440
0400
07E0
FC00
0480
2440
4440
4420
8420
9420
0C00
0800
ENDCHAR
STARTCHAR uni30DD
ENCODING 12509
SWIDTH 1000 0
DWIDTH 15 0
BBX 11 14 2 -2
BITMAP
00E0
0CA0
04E0
0400
07E0
FC00
0480
2440
4440
4420
8420
9420
0C00
0800
ENDCHAR
STARTCHAR uni30DE
ENCODING 12510
SWIDTH 1000 0
DWIDTH 15 0
BBX 11 10 2 -1
BITMAP
87E0
7820
0040
0080
2100
1200
0C00
0600
0300
0100
ENDCHAR
STARTCHAR uni30DF
ENCODING 12511
SWIDTH 1000 0
DWIDTH 15 0
BBX 8 11 3 -1
BITMAP
38
06
00
60
18
06
00
C0
30
0E
03
ENDCHAR
STARTCHAR uni30E0
ENCODING 12512
SWIDTH 1000 0
DWIDTH 15 0
BBX 13 13 1 -2
BITMAP
0400
0200
0200
0200
0400
0400
0440
0820
0820
1010
21F8
FE08
4008
ENDCHAR
STARTCHAR uni30E1
ENCODING 12513
SWIDTH 1000 0
DWIDTH 15 0
BBX 10 12 1 -2
BITMAP
00C0
0080
0080
1100
0900
0600
0300
0480
0840
1040
2000
C000
ENDCHAR
STARTCHAR uni30E2
ENCODING 12514
SWIDTH 1000 0
DWIDTH 15 0
BBX 13 12 1 -1
BITMAP
0080
07C0
3C00
0400
0400
07F0
FC18
0400
0400
0400
0400
03F0
ENDCHAR
STARTCHAR uni30E3
ENCODING 12515
SWIDTH 1000 0
DWIDTH 15 0
BBX 10 10 3 -2
BITMAP
6000
2380
1CC0
F100
1200
1000
0800
0800
0400
0400
ENDCHAR
STARTCHAR uni30E4
ENCODING 12516
SWIDTH 1000 0
DWIDTH 15 0
BBX 13 13 1 -2
BITMAP
1800
0800
0870
0B98
FC20
4440
0480
0400
0200
0200
0200
0100
0100
ENDCHAR
STARTCHAR uni30E5
ENCODING 12517
SWIDTH 1000 0
DWIDTH 15 0
BBX 12 8 2 -1
BITMAP
4700
3900
0100
0100
0100
0100
83E0
7C30
ENDCHAR
STARTCHAR uni30E6
ENCODING 12518
SWIDTH 1000 0
DWIDTH 15 0
BBX 13 10 1 -1
BITMAP
4380
3CC0
0080
0080
0080
0080
0080
0080
FFF8
4000
ENDCHAR
STARTCHAR uni30E7
ENCODING 12519
SWIDTH 1000 0
DWIDTH 15 0
BBX 7 8 4 -1
BITMAP
FE
02
02
FE
42
02
02
FE
ENDCHAR
STARTCHAR uni30E8
ENCODING 12520
SWIDTH 1000 0
DWIDTH 15 0
BBX 11 10 2 -1
BITMAP
7FE0
0040
0040
0040
3FC0
0040
0040
0040
8FC0
7040
ENDCHAR
STARTCHAR uni30E9
ENCODING 12521
SWIDTH 1000 0
DWIDTH 15 0
BBX 11 13 2 -2
BITMAP
0100
3F80
0000
0020
87E0
7840
0040
0080
0080
0100
0200
0C00
7000
ENDCHAR
STARTCHAR uni30EA
ENCODING 12522
SWIDTH 1000 0
DWIDTH 15 0
BBX 9 13 3 -2
BITMAP
0200
C180
4100
4100
4100
4100
4100
4100
0200
0200
0400
0800
3000
ENDCHAR
STARTCHAR uni30EB
ENCODING 12523
SWIDTH 1000 0
DWIDTH 15 0
BBX 13 13 1 -2
BITMAP
0200
0180
1100
1900
1100
1100
1100
1108
1110
2120
21C0
4300
8000
ENDCHAR
STARTCHAR uni30EC
ENCODING 12524
SWIDTH 1000 0
DWIDTH 15 0
BBX 11 12 3 -1
BITMAP
8000
6000
4000
4000
4000
4020
4040
4080
4300
4C00
7000
C000
ENDCHAR
STARTCHAR uni30ED
ENCODING 12525
SWIDTH 1000 0
DWIDTH 15 0
BBX 11 10 2 -1
BITMAP
C7C0
7860
4040
4040
4040
4040
4040
4040
7FE0
4000
ENDCHAR
STARTCHAR uni30EE
ENCODING 12526
SWIDTH 1000 0
DWIDTH 15 0
BBX 9 10 3 -2
BITMAP
C700
7980
4100
4100
4200
0200
0400
0800
1000
6000
ENDCHAR
STARTCHAR uni30EF
ENCODING 12527
SWIDTH 1000 0
DWIDTH 15 0
BBX 11 12 2 -2
BITMAP
C3C0
7C60
4040
4040
4080
4080
0100
0100
0200
0400
1800
6000
ENDCHAR
STARTCHAR uni30F0
ENCODING 12528
SWIDTH 1000 0
DWIDTH 15 0
BBX 13 13 1 -2
BITMAP
0300
0100
0120
7FF0
1100
1100
1100
11F0
FF18
0100
0100
0100
0100
ENDCHAR
STARTCHAR uni30F1
ENCODING 12529
SWIDTH 1000 0
DWIDTH 15 0
BBX 13 9 1 0
BITMAP
47E0
3870
0180
0600
0200
0200
0200
0210
FFF8
ENDCHAR
STARTCHAR uni30F2
ENCODING 12530
SWIDTH 1000 0
DWIDTH 15 0
BBX 11 12 2 -2
BITMAP
87C0
7860
0040
0040
7F80
0080
0100
0100
0200
0400
1800
6000
ENDCHAR
STARTCHAR uni30F3
ENCODING 12531
SWIDTH 1000 0
DWIDTH 15 0
BBX 12 11 2 -1
BITMAP
C000
3000
1010
0020
0040
0080
0100
0200
0C00
F000
4000
ENDCHAR
STARTCHAR uni30F4
ENCODING 12532
SWIDTH 1000 0
DWIDTH 15 0
BBX 13 14 1 -2
BITMAP
0010
0C48
0420
C440
7FE0
4040
4040
4040
4080
0080
0100
0200
0C00
3000
ENDCHAR
STARTCHAR uni30F5
ENCODING 12533
SWIDTH 1000 0
DWIDTH 15 0
BBX 11 10 1 -2
BITMAP
0600
0200
03C0
3E60
0440
0440
0840
1240
21C0
C080
ENDCHAR
STARTCHAR uni30F6
ENCODING 12534
SWIDTH 1000 0
DWIDTH 15 0
BBX 9 10 3 -2
BITMAP
3000
2000
2780
7C00
8400
0400
0800
0800
1000
6000
ENDCHAR
STARTCHAR uni30FB
ENCODING 12539
SWIDTH 1000 0
DWIDTH 15 0
BBX 2 2 6 5
BITMAP
C0
C0
ENDCHAR
STARTCHAR uni30FC
ENCODING 12540
SWIDTH 1000 0
DWIDTH 15 0
BBX 14 2 0 4
BITMAP
8000
7FFC
ENDCHAR
STARTCHAR uni30FD
ENCODING 12541
SWIDTH 1000 0
DWIDTH 15 0
BBX 5 5 5 2
BITMAP
80
40
30
18
08
ENDCHAR
STARTCHAR uni30FE
ENCODING 12542
SWIDTH 1000 0
DWIDTH 15 0
BBX 7 7 5 2
BITMAP
04
12
88
40
30
18
08
ENDCHAR
STARTCHAR uni3105
ENCODING 12549
SWIDTH 1000 0
DWIDTH 15 0
BBX 10 12 2 -1
BITMAP
2000
4000
4000
9FC0
E040
0040
0040
0080
0080
0100
0900
0600
ENDCHAR
STARTCHAR uni3106
ENCODING 12550
SWIDTH 1000 0
DWIDTH 15 0
BBX 10 13 2 -2
BITMAP
2000
2000
43C0
9C40
E080
0080
3100
0A00
0400
0A00
1100
2080
C000
ENDCHAR
STARTCHAR uni3107
ENCODING 12551
SWIDTH 1000 0
DWIDTH 15 0
BBX 10 10 2 0
BITMAP
07C0
F840
8040
8040
8040
8040
8040
8040
8040
0040
ENDCHAR
STARTCHAR uni3108
ENCODING 12552
SWIDTH 1000 0
DWIDTH 15 0
BBX 10 10 2 0
BITMAP
03C0
FC00
4000
4000
4000
4000
4000
4000
4000
3FC0
ENDCHAR
STARTCHAR uni3109
ENCODING 12553
SWIDTH 1000 0
DWIDTH 15 0
BBX 10 12 2 -1
BITMAP
2000
6000
4000
8FC0
F040
1040
1040
2080
2080
4100
8900
0600
ENDCHAR
STARTCHAR uni310A
ENCODING 12554
SWIDTH 1000 0
DWIDTH 15 0
BBX 10 12 2 -1
BITMAP
0800
0800
0800
0800
0FC0
F800
1000
1100
2080
23C0
4C40
7000
ENDCHAR
STARTCHAR uni310B
ENCODING 12555
SWIDTH 1000 0
DWIDTH 15 0
BBX 8 12 3 -1
BITMAP
FC
08
10
20
3F
01
01
01
02
02
24
18
ENDCHAR
STARTCHAR uni310C
ENCODING 12556
SWIDTH 1000 0
DWIDTH 15 0
BBX 10 12 2 -1
BITMAP
0400
4400
4400
47C0
9840
E840
0840
1040
1080
2080
4480
8300
ENDCHAR
STARTCHAR uni310D
ENCODING 12557
SWIDTH 1000 0
DWIDTH 15 0
BBX 7 12 3 -1
BITMAP
22
22
44
44
88
88
88
88
44
44
22
22
ENDCHAR
STARTCHAR uni310E
ENCODING 12558
SWIDTH 1000 0
DWIDTH 15 0
BBX 12 12 1 -1
BITMAP
07F0
FC00
0400
0800
1FC0
0040
0040
0040
0040
0080
0480
0300
ENDCHAR
STARTCHAR uni310F
ENCODING 12559
SWIDTH 1000 0
DWIDTH 15 0
BBX 13 12 0 -1
BITMAP
0010
1FF8
1000
1000
1000
1000
1000
1000
2000
2000
4000
8000
ENDCHAR
STARTCHAR uni3110
ENCODING 12560
SWIDTH 1000 0
DWIDTH 15 0
BBX 7 13 3 -1
BITMAP
04
02
82
42
42
42
42
46
5A
62
02
02
02
ENDCHAR
STARTCHAR uni3111
ENCODING 12561
SWIDTH 1000 0
DWIDTH 15 0
BBX 6 13 4 -1
BITMAP
04
04
08
10
20
40
80
80
40
20
10
08
04
ENDCHAR
STARTCHAR uni3112
ENCODING 12562
SWIDTH 1000 0
DWIDTH 15 0
BBX 10 11 2 0
BITMAP
03C0
1C00
E400
0400
0400
0400
0400
0400
0400
0400
0400
ENDCHAR
STARTCHAR uni3113
ENCODING 12563
SWIDTH 1000 0
DWIDTH 15 0
BBX 10 12 2 -1
BITMAP
0800
0880
4880
4880
4880
4880
4F80
7800
0800
0800
0FC0
F800
ENDCHAR
STARTCHAR uni3114
ENCODING 12564
SWIDTH 1000 0
DWIDTH 15 0
BBX 7 14 3 -2
BITMAP
04
04
08
12
22
44
08
1C
24
C4
04
04
04
04
ENDCHAR
STARTCHAR uni3115
ENCODING 12565
SWIDTH 1000 0
DWIDTH 15 0
BBX 10 12 2 -1
BITMAP
03C0
3C40
0040
0080
3F80
2000
2000
2000
2000
4000
4000
8000
ENDCHAR
STARTCHAR uni3116
ENCODING 12566
SWIDTH 1000 0
DWIDTH 15 0
BBX 8 12 3 -1
BITMAP
07
79
81
81
81
91
89
89
81
81
FF
01
ENDCHAR
STARTCHAR uni3117
ENCODING 12567
SWIDTH 1000 0
DWIDTH 15 0
BBX 10 12 2 -1
BITMAP
03C0
FC40
1040
1080
1080
1080
1300
1000
1000
1000
1000
1000
ENDCHAR
STARTCHAR uni3118
ENCODING 12568
SWIDTH 1000 0
DWIDTH 15 0
BBX 10 12 2 -1
BITMAP
0800
0800
0800
1FC0
E800
0800
0F80
0080
0080
0100
0200
0400
ENDCHAR
STARTCHAR uni3119
ENCODING 12569
SWIDTH 1000 0
DWIDTH 15 0
BBX 10 11 2 0
BITMAP
0800
0C00
0800
0800
1000
1000
2100
2080
4380
8C40
F040
ENDCHAR
STARTCHAR uni311A
ENCODING 12570
SWIDTH 1000 0
DWIDTH 15 0
BBX 9 12 2 -1
BITMAP
8080
4080
2100
1200
0A00
0400
0400
0400
0400
0400
0400
0400
ENDCHAR
STARTCHAR uni311B
ENCODING 12571
SWIDTH 1000 0
DWIDTH 15 0
BBX 11 10 1 0
BITMAP
FFE0
0200
0200
0E00
1000
2000
2000
2000
1040
0F80
ENDCHAR
STARTCHAR uni311C
ENCODING 12572
SWIDTH 1000 0
DWIDTH 15 0
BBX 11 12 1 -1
BITMAP
0400
0200
03E0
FE00
0200
0200
0E00
1000
2000
2000
1040
0F80
ENDCHAR
STARTCHAR uni311D
ENCODING 12573
SWIDTH 1000 0
DWIDTH 15 0
BBX 12 11 1 -1
BITMAP
1080
1080
1080
10F0
FF80
1080
1080
1080
1000
0800
07C0
ENDCHAR
STARTCHAR uni311E
ENCODING 12574
SWIDTH 1000 0
DWIDTH 15 0
BBX 10 12 2 -1
BITMAP
07C0
FC00
0400
4400
4780
7880
C880
1080
1100
2100
4200
8400
ENDCHAR
STARTCHAR uni311F
ENCODING 12575
SWIDTH 1000 0
DWIDTH 15 0
BBX 12 10 1 0
BITMAP
6000
A000
1000
1000
0800
0400
0200
0100
00C0
0030
ENDCHAR
STARTCHAR uni3120
ENCODING 12576
SWIDTH 1000 0
DWIDTH 15 0
BBX 9 12 2 -1
BITMAP
0800
0800
1100
2100
4200
2400
1800
1000
2100
4780
F880
4000
ENDCHAR
STARTCHAR uni3121
ENCODING 12577
SWIDTH 1000 0
DWIDTH 15 0
BBX 10 12 2 -1
BITMAP
0080
0780
7880
0100
0100
3200
0C00
0600
0900
1080
2040
C040
ENDCHAR
STARTCHAR uni3122
ENCODING 12578
SWIDTH 1000 0
DWIDTH 15 0
BBX 9 12 2 -1
BITMAP
0F80
7080
2100
2200
4780
F880
0080
0080
0100
0100
0200
0400
ENDCHAR
STARTCHAR uni3123
ENCODING 12579
SWIDTH 1000 0
DWIDTH 15 0
BBX 10 12 2 -1
BITMAP
4000
4000
4000
8000
8000
8FC0
F040
0080
0080
0100
0200
0400
ENDCHAR
STARTCHAR uni3124
ENCODING 12580
SWIDTH 1000 0
DWIDTH 15 0
BBX 12 12 1 -1
BITMAP
0200
0200
0200
0200
07E0
7E00
0600
0A00
1200
2200
4200
83F0
ENDCHAR
STARTCHAR uni3125
ENCODING 12581
SWIDTH 1000 0
DWIDTH 15 0
BBX 11 10 1 0
BITMAP
0400
0400
0800
0800
1000
1000
2000
2040
4FE0
F800
ENDCHAR
STARTCHAR uni3126
ENCODING 12582
SWIDTH 1000 0
DWIDTH 15 0
BBX 12 12 1 -1
BITMAP
0200
1200
1200
1200
1200
1200
2200
2200
2200
4210
8210
01F0
ENDCHAR
STARTCHAR uni3127
ENCODING 12583
SWIDTH 1000 0
DWIDTH 15 0
BBX 12 2 1 4
BITMAP
0FF0
F000
ENDCHAR
STARTCHAR uni3128
ENCODING 12584
SWIDTH 1000 0
DWIDTH 15 0
BBX 10 12 2 -1
BITMAP
0100
0100
0100
0200
6200
1400
0C00
0A00
1100
2080
4040
8040
ENDCHAR
STARTCHAR uni3129
ENCODING 12585
SWIDTH 1000 0
DWIDTH 15 0
BBX 10 10 2 0
BITMAP
0040
8040
8040
8040
8040
8040
8040
8040
8FC0
F000
ENDCHAR
STARTCHAR uni3192
ENCODING 12690
SWIDTH 1000 0
DWIDTH 15 0
BBX 8 2 0 7
BITMAP
02
FF
ENDCHAR
STARTCHAR uni3193
ENCODING 12691
SWIDTH 1000 0
DWIDTH 15 0
BBX 8 6 0 5
BITMAP
04
7E
00
00
02
FF
ENDCHAR
STARTCHAR uni3194
ENCODING 12692
SWIDTH 1000 0
DWIDTH 15 0
BBX 8 6 0 5
BITMAP
7E
00
3C
00
02
FF
ENDCHAR
STARTCHAR uni3195
ENCODING 12693
SWIDTH 1000 0
DWIDTH 15 0
BBX 7 6 1 5
BITMAP
FE
AA
AA
CE
82
FE
ENDCHAR
STARTCHAR uni3196
ENCODING 12694
SWIDTH 1000 0
DWIDTH 15 0
BBX 8 6 0 5
BITMAP
10
10
1E
10
12
FF
ENDCHAR
STARTCHAR uni3197
ENCODING 12695
SWIDTH 1000 0
DWIDTH 15 0
BBX 7 7 1 4
BITMAP
10
FE
92
92
FE
10
10
ENDCHAR
STARTCHAR uni3198
ENCODING 12696
SWIDTH 1000 0
DWIDTH 15 0
BBX 7 7 1 4
BITMAP
FE
10
18
14
10
10
10
ENDCHAR
STARTCHAR uni3199
ENCODING 12697
SWIDTH 1000 0
DWIDTH 15 0
BBX 6 7 1 4
BITMAP
FC
A4
FC
A4
FC
20
20
ENDCHAR
STARTCHAR uni319A
ENCODING 12698
SWIDTH 1000 0
DWIDTH 15 0
BBX 6 6 1 5
BITMAP
F8
10
20
44
84
FC
ENDCHAR
STARTCHAR uni319B
ENCODING 12699
SWIDTH 1000 0
DWIDTH 15 0
BBX 7 7 1 4
BITMAP
FE
10
FE
92
AA
C6
82
ENDCHAR
STARTCHAR uni319C
ENCODING 12700
SWIDTH 1000 0
DWIDTH 15 0
BBX 7 7 1 4
BITMAP
FE
10
10
10
10
50
20
ENDCHAR
STARTCHAR uni319D
ENCODING 12701
SWIDTH 1000 0
DWIDTH 15 0
BBX 8 7 0 4
BITMAP
7E
10
FF
10
28
44
83
ENDCHAR
STARTCHAR uni319E
ENCODING 12702
SWIDTH 1000 0
DWIDTH 15 0
BBX 8 7 0 4
BITMAP
44
F7
5D
55
76
D1
0F
ENDCHAR
STARTCHAR uni319F
ENCODING 12703
SWIDTH 1000 0
DWIDTH 15 0
BBX 8 7 0 4
BITMAP
08
08
08
08
14
22
C1
ENDCHAR
STARTCHAR uni32A3
ENCODING 12963
SWIDTH 1000 0
DWIDTH 15 0
BBX 14 14 0 -2
BITMAP
1FE0
2010
5FE8
8104
8104
8904
89E4
8904
8904
8904
8904
5FE8
2010
1FE0
ENDCHAR
STARTCHAR uni338E
ENCODING 13198
SWIDTH 1000 0
DWIDTH 15 0
BBX 14 10 0 -2
BITMAP
DC74
A488
A488
A488
A470
A480
A4F8
A504
0104
00F8
ENDCHAR
STARTCHAR uni338F
ENCODING 13199
SWIDTH 1000 0
DWIDTH 15 0
BBX 14 13 0 -2
BITMAP
C000
4000
4000
5CF4
4908
5108
6108
50F0
5080
48F8
4D04
0104
00F8
ENDCHAR
STARTCHAR uni339C
ENCODING 13212
SWIDTH 1000 0
DWIDTH 15 0
BBX 14 8 0 0
BITMAP
D8D8
A4A4
A4A4
A4A4
A4A4
A4A4
A4A4
A4A4
ENDCHAR
STARTCHAR uni339D
ENCODING 13213
SWIDTH 1000 0
DWIDTH 15 0
BBX 14 8 0 0
BITMAP
39D8
4524
8124
8124
8124
8124
4524
3924
ENDCHAR
STARTCHAR uni339E
ENCODING 13214
SWIDTH 1000 0
DWIDTH 15 0
BBX 14 11 0 0
BITMAP
C000
4000
4000
5DD8
48A4
50A4
70A4
50A4
48A4
48A4
4CA4
ENDCHAR
STARTCHAR uni33A1
ENCODING 13217
SWIDTH 1000 0
DWIDTH 15 0
BBX 13 12 1 0
BITMAP
0038
0008
0010
0038
DDC0
6220
4220
4220
4220
4220
4220
E770
ENDCHAR
STARTCHAR uni33C4
ENCODING 13252
SWIDTH 1000 0
DWIDTH 15 0
BBX 14 8 0 0
BITMAP
3838
4444
8080
8080
8080
8080
4444
3838
ENDCHAR
STARTCHAR uni33CE
ENCODING 13262
SWIDTH 1000 0
DWIDTH 15 0
BBX 13 11 0 0
BITMAP
CC88
4888
48D8
50D8
50D8
60D8
50A8
50A8
48A8
48A8
4CA8
ENDCHAR
STARTCHAR uni33D1
ENCODING 13265
SWIDTH 1000 0
DWIDTH 15 0
BBX 12 11 1 0
BITMAP
C000
4000
4000
45C0
4E20
4420
4420
4420
4420
4420
EE70
ENDCHAR
STARTCHAR uni33D2
ENCODING 13266
SWIDTH 1000 0
DWIDTH 15 0
BBX 14 13 0 -2
BITMAP
C000
4000
4000
4C74
5288
5288
5288
5270
5240
5278
EC84
0084
0078
ENDCHAR
STARTCHAR uni33D5
ENCODING 13269
SWIDTH 1000 0
DWIDTH 15 0
BBX 14 11 0 0
BITMAP
0058
0048
0008
AC48
52C8
5248
5248
5248
5248
5248
D6DC
ENDCHAR
STARTCHAR uni4E00
ENCODING 19968
SWIDTH 1000 0
DWIDTH 15 0
BBX 14 2 0 5
BITMAP
0008
FFFC
ENDCHAR
STARTCHAR uni4E01
ENCODING 19969
SWIDTH 1000 0
DWIDTH 15 0
BBX 14 14 0 -2
BITMAP
0008
FFFC
0100
0100
0100
0100
0100
0100
0100
0100
0100
0100
0900
0600
ENDCHAR
STARTCHAR uni4E02
ENCODING 19970
SWIDTH 1000 0
DWIDTH 15 0
BBX 14 14 0 -2
BITMAP
0008
FFFC
0800
0800
0800
1020
1FF0
1020
0020
0020
0020
0020
0240
0180
ENDCHAR
STARTCHAR uni4E03
ENCODING 19971
SWIDTH 1000 0
DWIDTH 15 0
BBX 14 12 0 -1
BITMAP
0800
0800
080C
0870
0F80
F800
0800
0800
0808
0808
0808
07F0
ENDCHAR
STARTCHAR uni4E04
ENCODING 19972
SWIDTH 1000 0
DWIDTH 15 0
BBX 14 13 0 -1
BITMAP
0200
0200
0200
0200
0200
0200
0200
0200
0200
0200
0200
0208
FFFC
ENDCHAR
STARTCHAR uni4E05
ENCODING 19973
SWIDTH 1000 0
DWIDTH 15 0
BBX 14 14 0 -2
BITMAP
0008
FFFC
0200
0200
0200
0200
0200
0200
0200
0200
0200
0200
0200
0200
ENDCHAR
STARTCHAR uni4E06
ENCODING 19974
SWIDTH 1000 0
DWIDTH 15 0
BBX 14 14 0 -2
BITMAP
0008
FFFC
0400
0400
0400
0400
0400
0800
0800
1000
1000
2000
4000
8000
ENDCHAR
STARTCHAR uni4E07
ENCODING 19975
SWIDTH 1000 0
DWIDTH 15 0
BBX 14 14 0 -2
BITMAP
0008
FFFC
0400
0400
0410
07F8
0410
0810
0810
1010
1020
2020
4120
80C0
ENDCHAR
STARTCHAR uni4E08
ENCODING 19976
SWIDTH 1000 0
DWIDTH 15 0
BBX 14 14 0 -2
BITMAP
0080
0080
0080
FFFC
0080
0880
1880
2500
0500
0200
0500
0880
3060
C01C
ENDCHAR
STARTCHAR uni4E09
ENCODING 19977
SWIDTH 1000 0
DWIDTH 15 0
BBX 14 12 0 -1
BITMAP
7FF8
0000
0000
0000
0000
3FF0
0000
0000
0000
0000
0008
FFFC
ENDCHAR
STARTCHAR uni4E0A
ENCODING 19978
SWIDTH 1000 0
DWIDTH 15 0
BBX 14 13 0 -1
BITMAP
0200
0200
0200
0200
0210
03F8
0200
0200
0200
0200
0200
0200
FFFC
ENDCHAR
STARTCHAR uni4E0B
ENCODING 19979
SWIDTH 1000 0
DWIDTH 15 0
BBX 14 14 0 -2
BITMAP
0008
FFFC
0200
0200
0380
0240
0220
0210
0200
0200
0200
0200
0200
0200
ENDCHAR
STARTCHAR uni4E0C
ENCODING 19980
SWIDTH 1000 0
DWIDTH 15 0
BBX 14 14 0 -2
BITMAP
0008
FFFC
0440
0440
0440
0440
0440
0440
0840
0840
0840
1040
2040
4040
ENDCHAR
STARTCHAR uni4E0D
ENCODING 19981
SWIDTH 1000 0
DWIDTH 15 0
BBX 14 14 0 -2
BITMAP
0008
FFFC
0100
0100
0240
0620
0A10
1208
2208
C200
0200
0200
0200
0200
ENDCHAR
STARTCHAR uni4E0E
ENCODING 19982
SWIDTH 1000 0
DWIDTH 15 0
BBX 12 14 1 -2
BITMAP
2000
2020
3FF0
2000
4020
7FF0
4020
0020
03A0
FC20
0020
0020
0240
0180
ENDCHAR
STARTCHAR uni4E0F
ENCODING 19983
SWIDTH 1000 0
DWIDTH 15 0
BBX 14 14 0 -2
BITMAP
0008
FFFC
0200
2208
23FC
2208
2208
7FF8
4008
0008
0010
0010
0120
00C0
ENDCHAR
STARTCHAR uni4E10
ENCODING 19984
SWIDTH 1000 0
DWIDTH 15 0
BBX 14 14 0 -2
BITMAP
0008
FFFC
0200
2200
23F8
2200
2200
7FF8
4008
0008
0008
0008
0110
00E0
ENDCHAR
STARTCHAR uni4E11
ENCODING 19985
SWIDTH 1000 0
DWIDTH 15 0
BBX 14 14 0 -2
BITMAP
0020
7FF0
0420
0420
0420
0420
FFFC
0840
0840
0840
0840
0840
0848
FFFC
ENDCHAR
STARTCHAR uni4E12
ENCODING 19986
SWIDTH 1000 0
DWIDTH 15 0
BBX 14 13 0 -1
BITMAP
0010
7FF8
0010
0110
1110
0A10
0410
0A10
1110
6010
00E0
0008
FFFC
ENDCHAR
STARTCHAR uni4E13
ENCODING 19987
SWIDTH 1000 0
DWIDTH 15 0
BBX 14 14 0 -2
BITMAP
0200
0210
7FF8
0400
0408
FFFC
0800
1020
1FF0
0040
0C80
0300
0180
0080
ENDCHAR
STARTCHAR uni4E14
ENCODING 19988
SWIDTH 1000 0
DWIDTH 15 0
BBX 14 14 0 -2
BITMAP
0040
1FE0
1040
1040
1FC0
1040
1040
1040
1FC0
1040
1040
1040
1048
FFFC
ENDCHAR
STARTCHAR uni4E15
ENCODING 19989
SWIDTH 1000 0
DWIDTH 15 0
BBX 14 13 0 -1
BITMAP
0008
FFFC
0100
0200
0640
0A20
1210
2208
C208
0200
0200
0000
FFFC
ENDCHAR
STARTCHAR uni4E16
ENCODING 19990
SWIDTH 1000 0
DWIDTH 15 0
BBX 14 14 0 -2
BITMAP
2220
2220
2220
2220
FFFC
2220
2220
2220
2220
23E0
2000
2000
2008
3FFC
ENDCHAR
STARTCHAR uni4E17
ENCODING 19991
SWIDTH 1000 0
DWIDTH 15 0
BBX 14 14 0 -2
BITMAP
2220
2220
2220
2220
2220
FFFC
2220
2220
2220
2220
2220
2220
3FE0
2020
ENDCHAR
STARTCHAR uni4E18
ENCODING 19992
SWIDTH 1000 0
DWIDTH 15 0
BBX 14 13 0 -2
BITMAP
01E0
3E00
2000
2000
2000
3FF8
2040
2040
2040
2040
2040
2040
FFFC
ENDCHAR
STARTCHAR uni4E19
ENCODING 19993
SWIDTH 1000 0
DWIDTH 15 0
BBX 14 14 0 -2
BITMAP
0008
FFFC
0200
0200
7FF8
4208
4308
4488
4848
7028
4008
4008
4048
4030
ENDCHAR
STARTCHAR uni4E1A
ENCODING 19994
SWIDTH 1000 0
DWIDTH 15 0
BBX 14 12 0 -1
BITMAP
0480
0480
0480
4488
2488
2490
1490
14A0
14A0
0480
0488
FFFC
ENDCHAR
STARTCHAR uni4E1B
ENCODING 19995
SWIDTH 1000 0
DWIDTH 15 0
BBX 14 13 0 -1
BITMAP
1040
1040
1040
1040
1040
1040
10A0
28A0
2510
4510
4208
8400
FFFC
ENDCHAR
STARTCHAR uni4E1C
ENCODING 19996
SWIDTH 1000 0
DWIDTH 15 0
BBX 14 14 0 -2
BITMAP
0800
0808
FFFC
0800
1100
1100
2110
3FF8
0100
1120
1110
210C
4504
0200
ENDCHAR
STARTCHAR uni4E1D
ENCODING 19997
SWIDTH 1000 0
DWIDTH 15 0
BBX 14 13 0 -1
BITMAP
1040
1040
1040
2488
2488
4510
79F0
0820
1040
2080
7DF8
0000
FFFC
ENDCHAR
STARTCHAR uni4E1E
ENCODING 19998
SWIDTH 1000 0
DWIDTH 15 0
BBX 14 13 0 -2
BITMAP
7FE0
0040
0180
FD08
0510
09A0
0940
1120
2110
C90C
0600
0000
FFFC
ENDCHAR
STARTCHAR uni4E1F
ENCODING 19999
SWIDTH 1000 0
DWIDTH 15 0
BBX 14 14 0 -2
BITMAP
0008
FFFC
0200
0200
7FF8
0200
0200
FFFC
0200
0440
0420
0870
7F88
0008
ENDCHAR
STARTCHAR uni4E20
ENCODING 20000
SWIDTH 1000 0
DWIDTH 15 0
BBX 14 13 0 -1
BITMAP
0880
0880
0880
0888
F8FC
0880
0880
0880
3884
C884
087C
0000
FFFC
ENDCHAR
STARTCHAR uni4E21
ENCODING 20001
SWIDTH 1000 0
DWIDTH 15 0
BBX 14 14 0 -2
BITMAP
0008
FFFC
0200
0208
7FFC
4208
5268
5248
5248
5FC8
5048
4008
4028
4010
ENDCHAR
STARTCHAR uni4E22
ENCODING 20002
SWIDTH 1000 0
DWIDTH 15 0
BBX 14 14 0 -2
BITMAP
01F8
7E00
0200
0210
7FF8
0200
0208
FFFC
0200
0440
0420
08F0
7F18
4008
ENDCHAR
STARTCHAR uni4E23
ENCODING 20003
SWIDTH 1000 0
DWIDTH 15 0
BBX 14 14 0 -2
BITMAP
0008
FFFC
0480
0480
7CF8
4488
4488
4488
7CF8
4488
0480
0880
1080
6080
ENDCHAR
STARTCHAR uni4E24
ENCODING 20004
SWIDTH 1000 0
DWIDTH 15 0
BBX 14 14 0 -2
BITMAP
0008
FFFC
0440
0448
7FFC
4448
4448
4AA8
5118
6208
4008
4008
4028
4010
ENDCHAR
STARTCHAR uni4E25
ENCODING 20005
SWIDTH 1000 0
DWIDTH 15 0
BBX 14 14 0 -2
BITMAP
0008
FFFC
2490
14A0
0480
7FFC
4000
4000
4000
4000
4000
4000
8000
8000
ENDCHAR
STARTCHAR uni4E26
ENCODING 20006
SWIDTH 1000 0
DWIDTH 15 0
BBX 14 14 0 -2
BITMAP
1020
0840
0848
FFFC
0480
0480
4488
2488
2490
1490
14A0
0480
0488
FFFC
ENDCHAR
STARTCHAR uni4E27
ENCODING 20007
SWIDTH 1000 0
DWIDTH 15 0
BBX 14 14 0 -2
BITMAP
0200
0200
7FF8
0200
2220
1240
0A80
FFFC
1100
1110
10A0
1240
1C30
700C
ENDCHAR
STARTCHAR uni4E28
ENCODING 20008
SWIDTH 1000 0
DWIDTH 15 0
BBX 1 14 7 -2
BITMAP
80
80
80
80
80
80
80
80
80
80
80
80
80
80
ENDCHAR
STARTCHAR uni4E29
ENCODING 20009
SWIDTH 1000 0
DWIDTH 15 0
BBX 7 14 3 -2
BITMAP
02
02
42
42
42
42
42
42
42
4E
F2
02
02
02
ENDCHAR
STARTCHAR uni4E2A
ENCODING 20010
SWIDTH 1000 0
DWIDTH 15 0
BBX 14 14 0 -2
BITMAP
0200
0200
0500
0880
1040
2230
C20C
0200
0200
0200
0200
0200
0200
0200
ENDCHAR
STARTCHAR uni4E2B
ENCODING 20011
SWIDTH 1000 0
DWIDTH 15 0
BBX 10 14 2 -2
BITMAP
8040
4040
3080
1100
0200
0400
0400
0400
0400
0400
0400
0400
0400
0400
ENDCHAR
STARTCHAR uni4E2C
ENCODING 20012
SWIDTH 1000 0
DWIDTH 15 0
BBX 7 14 3 -2
BITMAP
02
02
42
22
12
12
02
02
06
1A
E2
02
02
02
ENDCHAR
STARTCHAR uni4E2D
ENCODING 20013
SWIDTH 1000 0
DWIDTH 15 0
BBX 13 14 1 -2
BITMAP
0400
0400
0410
FFF8
8410
8410
8410
8410
FFF0
8410
0400
0400
0400
0400
ENDCHAR
STARTCHAR uni4E2E
ENCODING 20014
SWIDTH 1000 0
DWIDTH 15 0
BBX 13 14 1 -2
BITMAP
0040
FFE0
0840
0840
7F40
0840
0840
0840
FF40
0820
0828
0828
0818
0808
ENDCHAR
STARTCHAR uni4E2F
ENCODING 20015
SWIDTH 1000 0
DWIDTH 15 0
BBX 12 14 1 -2
BITMAP
0400
0430
07C0
FC00
0430
07C0
FC00
0400
0470
0780
FC00
0400
0400
0400
ENDCHAR
STARTCHAR uni4E30
ENCODING 20016
SWIDTH 1000 0
DWIDTH 15 0
BBX 14 14 0 -2
BITMAP
0200
0238
03C0
FE00
0200
0200
7FF8
0200
0200
FFFC
0200
0200
0200
0200
ENDCHAR
STARTCHAR uni4E31
ENCODING 20017
SWIDTH 1000 0
DWIDTH 15 0
BBX 12 14 1 -2
BITMAP
0900
0900
8910
8910
8910
8910
8910
8910
F9F0
8910
1100
1100
2100
C100
ENDCHAR
STARTCHAR uni4E32
ENCODING 20018
SWIDTH 1000 0
DWIDTH 15 0
BBX 12 14 1 -2
BITMAP
0400
0420
7FF0
4420
4420
7FE0
0400
FFF0
8410
8410
FFF0
0400
0400
0400
ENDCHAR
STARTCHAR uni4E33
ENCODING 20019
SWIDTH 1000 0
DWIDTH 15 0
BBX 12 14 1 -2
BITMAP
0900
0900
FFE0
8920
FFE0
8920
0900
FFF0
8910
FFF0
9110
1100
2100
4100
ENDCHAR
STARTCHAR uni4E34
ENCODING 20020
SWIDTH 1000 0
DWIDTH 15 0
BBX 13 14 1 -2
BITMAP
1100
1100
9210
93F8
9480
9840
9040
97F0
9490
9490
9490
9490
17F0
1410
ENDCHAR
STARTCHAR uni4E35
ENCODING 20021
SWIDTH 1000 0
DWIDTH 15 0
BBX 14 14 0 -2
BITMAP
0480
2490
14A0
FFFC
1020
0840
7FF8
0200
0200
FFFC
0200
0200
0200
0200
ENDCHAR
STARTCHAR uni4E36
ENCODING 20022
SWIDTH 1000 0
DWIDTH 15 0
BBX 4 5 5 2
BITMAP
80
40
20
10
10
ENDCHAR
STARTCHAR uni4E37
ENCODING 20023
SWIDTH 1000 0
DWIDTH 15 0
BBX 10 6 2 3
BITMAP
0040
8040
4080
6080
2100
2100
ENDCHAR
STARTCHAR uni4E38
ENCODING 20024
SWIDTH 1000 0
DWIDTH 15 0
BBX 14 14 0 -2
BITMAP
0400
0400
0440
FFE0
0440
0440
0440
0640
0940
08C0
1044
2044
4044
803C
ENDCHAR
STARTCHAR uni4E39
ENCODING 20025
SWIDTH 1000 0
DWIDTH 15 0
BBX 14 14 0 -2
BITMAP
0020
3FF0
2020
2220
2120
2120
FFFC
2020
2020
2020
2020
4020
40A0
8040
ENDCHAR
STARTCHAR uni4E3A
ENCODING 20026
SWIDTH 1000 0
DWIDTH 15 0
BBX 14 14 0 -2
BITMAP
4200
3200
1208
FFFC
0208
0208
0408
0508
0888
0848
1008
2008
4090
8060
ENDCHAR
STARTCHAR uni4E3B
ENCODING 20027
SWIDTH 1000 0
DWIDTH 15 0
BBX 14 14 0 -2
BITMAP
0400
0200
0100
7FF8
0100
0100
0100
3FF0
0100
0100
0100
0100
0100
FFFC
ENDCHAR
STARTCHAR uni4E3C
ENCODING 20028
SWIDTH 1000 0
DWIDTH 15 0
BBX 14 14 0 -2
BITMAP
0840
0840
0840
FFFC
0840
0A40
0940
0940
0840
FFFC
1040
2040
4040
8040
ENDCHAR
STARTCHAR uni4E3D
ENCODING 20029
SWIDTH 1000 0
DWIDTH 15 0
BBX 14 14 0 -2
BITMAP
0808
FDFC
0000
7CF8
4488
4488
64C8
54A8
54A8
54A8
4488
4488
54A8
4890
ENDCHAR
STARTCHAR uni4E3E
ENCODING 20030
SWIDTH 1000 0
DWIDTH 15 0
BBX 14 14 0 -2
BITMAP
0410
2210
1120
0840
FFFC
0840
1220
2FD0
C20C
0200
7FF8
0200
0200
0200
ENDCHAR
STARTCHAR uni4E3F
ENCODING 20031
SWIDTH 1000 0
DWIDTH 15 0
BBX 5 14 3 -2
BITMAP
08
08
08
08
08
08
08
08
08
10
10
20
40
80
ENDCHAR
STARTCHAR uni4E40
ENCODING 20032
SWIDTH 1000 0
DWIDTH 15 0
BBX 13 13 1 -2
BITMAP
2000
2000
5000
9000
0800
0800
0400
0400
0200
0100
0080
0060
0018
ENDCHAR
STARTCHAR uni4E41
ENCODING 20033
SWIDTH 1000 0
DWIDTH 15 0
BBX 11 14 3 -2
BITMAP
0400
FE00
0400
0400
0400
0400
0400
0200
0200
0100
0100
0080
0040
0020
ENDCHAR
STARTCHAR uni4E42
ENCODING 20034
SWIDTH 1000 0
DWIDTH 15 0
BBX 14 13 0 -2
BITMAP
2020
2020
1020
1040
0840
0840
0480
0280
0100
0280
0C40
3030
C00C
ENDCHAR
STARTCHAR uni4E43
ENCODING 20035
SWIDTH 1000 0
DWIDTH 15 0
BBX 14 13 0 -2
BITMAP
FFC0
0440
0440
0448
047C
0808
0808
0808
1008
1008
2088
4070
8000
ENDCHAR
STARTCHAR uni4E44
ENCODING 20036
SWIDTH 1000 0
DWIDTH 15 0
BBX 8 12 2 -1
BITMAP
01
01
01
01
12
0A
04
0A
09
90
A0
C0
ENDCHAR
STARTCHAR uni4E45
ENCODING 20037
SWIDTH 1000 0
DWIDTH 15 0
BBX 14 14 0 -2
BITMAP
0400
0400
07C0
0880
1080
2080
4100
0100
0280
0280
0440
0820
3010
C00C
ENDCHAR
STARTCHAR uni4E46
ENCODING 20038
SWIDTH 1000 0
DWIDTH 15 0
BBX 13 12 1 -1
BITMAP
0840
0840
1080
1080
2080
2F00
7100
0200
0500
0880
3060
C018
ENDCHAR
STARTCHAR uni4E47
ENCODING 20039
SWIDTH 1000 0
DWIDTH 15 0
BBX 14 13 0 -1
BITMAP
0060
0380
7C00
0400
0400
0408
07FC
FC00
0400
0400
0404
0404
03FC
ENDCHAR
STARTCHAR uni4E48
ENCODING 20040
SWIDTH 1000 0
DWIDTH 15 0
BBX 14 14 0 -2
BITMAP
0100
0100
0200
0400
0800
1080
2080
C100
0240
0420
0810
1078
7F8C
0004
ENDCHAR
STARTCHAR uni4E49
ENCODING 20041
SWIDTH 1000 0
DWIDTH 15 0
BBX 14 13 0 -2
BITMAP
2010
2410
2220
1120
1140
0840
0880
0500
0300
0480
0840
3030
C00C
ENDCHAR
STARTCHAR uni4E4A
ENCODING 20042
SWIDTH 1000 0
DWIDTH 15 0
BBX 12 7 1 4
BITMAP
01F0
FE00
0020
4020
2040
1080
1100
ENDCHAR
STARTCHAR uni4E4B
ENCODING 20043
SWIDTH 1000 0
DWIDTH 15 0
BBX 14 14 0 -2
BITMAP
0200
0200
0200
7FF0
0020
0040
0080
0100
2200
2400
5800
8800
8600
01FC
ENDCHAR
STARTCHAR uni4E4C
ENCODING 20044
SWIDTH 1000 0
DWIDTH 15 0
BBX 14 14 0 -2
BITMAP
0200
0420
3FF0
2020
2020
20A0
2048
3FFC
0008
0008
FFE8
0008
0048
0030
ENDCHAR
STARTCHAR uni4E4D
ENCODING 20045
SWIDTH 1000 0
DWIDTH 15 0
BBX 14 14 0 -2
BITMAP
1000
1008
1FFC
2200
2200
4200
83F8
0200
0200
03F8
0200
0200
0200
0200
ENDCHAR
STARTCHAR uni4E4E
ENCODING 20046
SWIDTH 1000 0
DWIDTH 15 0
BBX 14 14 0 -2
BITMAP
0078
7F80
0100
2110
1110
1120
0100
FFFC
0100
0100
0100
0100
0900
0600
ENDCHAR
STARTCHAR uni4E4F
ENCODING 20047
SWIDTH 1000 0
DWIDTH 15 0
BBX 14 14 0 -2
BITMAP
0030
01C0
FE00
0200
0200
7FF0
0020
0040
0080
2300
2C00
5000
8800
87FC
ENDCHAR
STARTCHAR uni4E50
ENCODING 20048
SWIDTH 1000 0
DWIDTH 15 0
BBX 14 14 0 -2
BITMAP
0070
3F80
2000
2100
2100
4108
7FFC
0100
1920
1110
2108
410C
8504
0200
ENDCHAR
STARTCHAR uni4E51
ENCODING 20049
SWIDTH 1000 0
DWIDTH 15 0
BBX 14 14 0 -2
BITMAP
0030
01C0
7E00
0200
0A10
1220
2340
C280
0A40
1220
2210
C20C
0200
0200
ENDCHAR
STARTCHAR uni4E52
ENCODING 20050
SWIDTH 1000 0
DWIDTH 15 0
BBX 14 14 0 -2
BITMAP
00F0
1F00
1000
1000
1FF8
1040
1040
1040
1040
FFFC
0800
1000
2000
C000
ENDCHAR
STARTCHAR uni4E53
ENCODING 20051
SWIDTH 1000 0
DWIDTH 15 0
BBX 14 14 0 -2
BITMAP
0070
1F80
1000
1000
1FF8
1040
1040
1040
1040
FFFC
0000
00C0
0038
0008
ENDCHAR
STARTCHAR uni4E54
ENCODING 20052
SWIDTH 1000 0
DWIDTH 15 0
BBX 14 14 0 -2
BITMAP
01F0
7E00
0200
0408
FFFC
0840
1020
2850
C84C
0840
1040
1040
2040
4040
ENDCHAR
STARTCHAR uni4E55
ENCODING 20053
SWIDTH 1000 0
DWIDTH 15 0
BBX 14 14 0 -2
BITMAP
00F8
7F00
4100
7FFC
4100
7FFC
4100
4100
5FF8
5108
5108
5128
9110
8100
ENDCHAR
STARTCHAR uni4E56
ENCODING 20054
SWIDTH 1000 0
DWIDTH 15 0
BBX 14 14 0 -2
BITMAP
01F0
7E00
0208
FFFC
0200
0A40
FA4C
0A70
0A40
1A44
6A44
8A3C
0200
0200
ENDCHAR
STARTCHAR uni4E57
ENCODING 20055
SWIDTH 1000 0
DWIDTH 15 0
BBX 14 14 0 -2
BITMAP
03F0
7E00
0200
7FF8
1220
FFFC
1220
1220
7FF8
0680
0A40
1220
2210
C20C
ENDCHAR
STARTCHAR uni4E58
ENCODING 20056
SWIDTH 1000 0
DWIDTH 15 0
BBX 14 14 0 -2
BITMAP
0070
7F80
0200
FFFC
0A40
FA4C
0A70
3A44
CB7C
0680
0A40
3230
C20C
0200
ENDCHAR
STARTCHAR uni4E59
ENCODING 20057
SWIDTH 1000 0
DWIDTH 15 0
BBX 12 12 1 -1
BITMAP
FFC0
0080
0100
0200
0400
0800
1000
2000
4010
8010
8010
7FF0
ENDCHAR
STARTCHAR uni4E5A
ENCODING 20058
SWIDTH 1000 0
DWIDTH 15 0
BBX 9 14 3 -2
BITMAP
8000
8000
8000
8000
8000
8000
8000
8000
8000
8080
8080
8080
8080
7F80
ENDCHAR
STARTCHAR uni4E5B
ENCODING 20059
SWIDTH 1000 0
DWIDTH 15 0
BBX 14 4 0 4
BITMAP
0008
FFFC
0010
0020
ENDCHAR
STARTCHAR uni4E5C
ENCODING 20060
SWIDTH 1000 0
DWIDTH 15 0
BBX 14 12 0 -1
BITMAP
2000
2010
21F8
3E10
E010
2010
2010
2050
2020
2004
2004
1FFC
ENDCHAR
STARTCHAR uni4E5D
ENCODING 20061
SWIDTH 1000 0
DWIDTH 15 0
BBX 14 14 0 -2
BITMAP
0400
0400
0400
0440
FFE0
0440
0440
0440
0840
0840
1044
2044
4044
803C
ENDCHAR
STARTCHAR uni4E5E
ENCODING 20062
SWIDTH 1000 0
DWIDTH 15 0
BBX 13 14 0 -2
BITMAP
1000
1010
1FF8
2000
4000
BFC0
0100
0200
0400
0808
1008
2008
2008
1FF8
ENDCHAR
STARTCHAR uni4E5F
ENCODING 20063
SWIDTH 1000 0
DWIDTH 15 0
BBX 14 14 0 -2
BITMAP
0200
2200
2200
2270
2390
3E10
E210
2210
2210
2250
2224
2004
2004
1FFC
ENDCHAR
STARTCHAR uni4E60
ENCODING 20064
SWIDTH 1000 0
DWIDTH 15 0
BBX 11 14 2 -2
BITMAP
0040
FFE0
0040
4040
2040
1840
0840
0240
0C40
3040
C040
0040
0140
0080
ENDCHAR
STARTCHAR uni4E61
ENCODING 20065
SWIDTH 1000 0
DWIDTH 15 0
BBX 11 14 1 -2
BITMAP
0800
0800
1080
1080
2100
7E20
0420
0840
1780
7900
0200
0400
1800
E000
ENDCHAR
STARTCHAR uni4E62
ENCODING 20066
SWIDTH 1000 0
DWIDTH 15 0
BBX 14 14 0 -2
BITMAP
2100
2100
2100
A500
A500
A500
A500
A500
A500
A500
A504
FD04
8504
00FC
ENDCHAR
STARTCHAR uni4E63
ENCODING 20067
SWIDTH 1000 0
DWIDTH 15 0
BBX 14 14 0 -2
BITMAP
1080
1080
1080
2080
A480
4480
2880
2880
1080
1480
2284
3E84
C284
007C
ENDCHAR
STARTCHAR uni4E64
ENCODING 20068
SWIDTH 1000 0
DWIDTH 15 0
BBX 14 14 0 -2
BITMAP
0008
FFFC
0200
0380
0260
0200
3FC0
0080
0300
0C00
1008
2008
2008
1FF0
ENDCHAR
STARTCHAR uni4E65
ENCODING 20069
SWIDTH 1000 0
DWIDTH 15 0
BBX 12 14 1 -2
BITMAP
00E0
FF00
0020
4040
2080
1000
7F80
0100
0600
1800
2010
4010
4010
3FF0
ENDCHAR
STARTCHAR uni4E66
ENCODING 20070
SWIDTH 1000 0
DWIDTH 15 0
BBX 14 14 0 -2
BITMAP
0400
0420
0410
3FE0
0420
0428
FFFC
0408
0408
0408
0408
0450
0420
0400
ENDCHAR
STARTCHAR uni4E67
ENCODING 20071
SWIDTH 1000 0
DWIDTH 15 0
BBX 14 14 0 -2
BITMAP
0840
2440
1240
0848
03FC
FC40
0000
3FC0
0100
0600
1800
2008
2008
1FF8
ENDCHAR
STARTCHAR uni4E68
ENCODING 20072
SWIDTH 1000 0
DWIDTH 15 0
BBX 14 14 0 -2
BITMAP
1080
1080
2080
2480
4280
FE80
0280
0080
FC80
8480
8484
8484
FC84
847C
ENDCHAR
STARTCHAR uni4E69
ENCODING 20073
SWIDTH 1000 0
DWIDTH 15 0
BBX 14 14 0 -2
BITMAP
1040
1040
1040
1F40
1040
1040
1040
1040
FF40
8140
8144
8144
FF44
813C
ENDCHAR
STARTCHAR uni4E6A
ENCODING 20074
SWIDTH 1000 0
DWIDTH 15 0
BBX 14 13 0 -2
BITMAP
FBF8
0A48
0A48
1248
13F8
2248
2248
4248
4248
83F8
8004
8004
7FFC
ENDCHAR
STARTCHAR uni4E6B
ENCODING 20075
SWIDTH 1000 0
DWIDTH 15 0
BBX 13 14 0 -2
BITMAP
1000
10F8
7E88
1288
1288
2AF8
C400
3FC0
0180
0600
1800
2008
2008
1FF8
ENDCHAR
STARTCHAR uni4E6C
ENCODING 20076
SWIDTH 1000 0
DWIDTH 15 0
BBX 12 14 1 -2
BITMAP
FFE0
8000
FFC0
8040
FFC0
8000
FFF0
0000
7F80
0600
1800
2010
4010
7FF0
ENDCHAR
STARTCHAR uni4E6D
ENCODING 20077
SWIDTH 1000 0
DWIDTH 15 0
BBX 14 14 0 -2
BITMAP
0008
FFFC
1000
3FF0
D010
1FF0
0000
3FC0
0180
0600
1800
2008
2008
1FF8
ENDCHAR
STARTCHAR uni4E6E
ENCODING 20078
SWIDTH 1000 0
DWIDTH 15 0
BBX 14 14 0 -2
BITMAP
0C08
70FC
4488
4488
5CA8
E490
0880
3FC0
0100
0600
1800
2008
2008
1FF8
ENDCHAR
STARTCHAR uni4E6F
ENCODING 20079
SWIDTH 1000 0
DWIDTH 15 0
BBX 14 14 0 -2
BITMAP
00F0
3F00
1120
0948
FFFC
0100
0600
3FC0
0180
0600
1800
2008
2008
1FF8
ENDCHAR
STARTCHAR uni4E70
ENCODING 20080
SWIDTH 1000 0
DWIDTH 15 0
BBX 14 14 0 -2
BITMAP
0008
FFFC
0008
1110
0900
2500
1100
0900
FFFC
0280
0440
0820
3018
C008
ENDCHAR
STARTCHAR uni4E71
ENCODING 20081
SWIDTH 1000 0
DWIDTH 15 0
BBX 14 14 0 -2
BITMAP
0E80
F080
1080
1080
FF80
1080
1080
1080
7E80
4284
4284
4284
7E84
427C
ENDCHAR
STARTCHAR uni4E72
ENCODING 20082
SWIDTH 1000 0
DWIDTH 15 0
BBX 14 14 0 -2
BITMAP
4100
21F8
1248
0050
18A0
E110
060C
3FC0
0100
0600
1800
2008
2008
1FF8
ENDCHAR
STARTCHAR uni4E73
ENCODING 20083
SWIDTH 1000 0
DWIDTH 15 0
BBX 14 14 0 -2
BITMAP
0740
7840
5240
4940
8940
FF40
0240
0C40
0940
0E40
F844
0844
6844
103C
ENDCHAR
STARTCHAR uni4E74
ENCODING 20084
SWIDTH 1000 0
DWIDTH 15 0
BBX 14 14 0 -2
BITMAP
1018
FDE0
1108
1DFC
F120
1120
6220
3FC0
0100
0600
1800
2008
2008
1FF8
ENDCHAR
STARTCHAR uni4E75
ENCODING 20085
SWIDTH 1000 0
DWIDTH 15 0
BBX 14 14 0 -2
BITMAP
0840
0840
7F40
2240
1240
1440
FF40
0840
0840
7E40
0844
0844
0844
083C
ENDCHAR
STARTCHAR uni4E76
ENCODING 20086
SWIDTH 1000 0
DWIDTH 15 0
BBX 14 14 0 -2
BITMAP
0220
FFFC
2210
3FF0
2210
3FF0
2210
0030
3FC0
0300
0C00
1008
2008
3FF8
ENDCHAR
STARTCHAR uni4E77
ENCODING 20087
SWIDTH 1000 0
DWIDTH 15 0
BBX 14 14 0 -2
BITMAP
2040
9250
4248
1554
20A0
6040
2780
0000
3FC0
0300
0C00
1008
2008
3FF8
ENDCHAR
STARTCHAR uni4E78
ENCODING 20088
SWIDTH 1000 0
DWIDTH 15 0
BBX 14 14 0 -2
BITMAP
1000
51F0
5150
5D30
7510
D7FC
5510
5550
5530
5DFC
5010
4034
4004
3FFC
ENDCHAR
STARTCHAR uni4E79
ENCODING 20089
SWIDTH 1000 0
DWIDTH 15 0
BBX 14 14 0 -2
BITMAP
1040
1040
FF40
1040
7E40
4240
7E40
4240
7E40
1040
FF44
1044
1044
103C
ENDCHAR
STARTCHAR uni4E7A
ENCODING 20090
SWIDTH 1000 0
DWIDTH 15 0
BBX 14 14 0 -2
BITMAP
7C18
41E0
7D08
45FC
7D10
4110
8210
3FC0
0180
0600
1800
2008
2008
1FF8
ENDCHAR
STARTCHAR uni4E7B
ENCODING 20091
SWIDTH 1000 0
DWIDTH 15 0
BBX 14 14 0 -2
BITMAP
1040
FE60
2090
3D48
2624
2440
4820
BFD0
0080
0300
0C00
1008
2008
3FF8
ENDCHAR
STARTCHAR uni4E7C
ENCODING 20092
SWIDTH 1000 0
DWIDTH 15 0
BBX 14 14 0 -2
BITMAP
2040
97FC
4040
13F8
1040
6040
27FC
0000
3FC0
0300
0C00
1008
2008
3FF8
ENDCHAR
STARTCHAR uni4E7D
ENCODING 20093
SWIDTH 1000 0
DWIDTH 15 0
BBX 14 14 0 -2
BITMAP
0210
1FA0
0240
FFFC
0910
F8D0
0FF0
0000
3FC0
0100
0600
1808
2008
3FF8
ENDCHAR
STARTCHAR uni4E7E
ENCODING 20094
SWIDTH 1000 0
DWIDTH 15 0
BBX 14 14 0 -2
BITMAP
1080
1080
FEFC
1100
FE00
85F8
FC10
8420
FC20
1040
FE84
1104
1104
10FC
ENDCHAR
STARTCHAR uni4E7F
ENCODING 20095
SWIDTH 1000 0
DWIDTH 15 0
BBX 14 14 0 -2
BITMAP
0E80
7080
5280
8A80
2080
C880
5480
2280
FE80
1084
5484
5284
92FC
1000
ENDCHAR
STARTCHAR uni4E80
ENCODING 20096
SWIDTH 1000 0
DWIDTH 15 0
BBX 14 14 0 -2
BITMAP
0800
1F80
2100
FFF0
2210
3FF0
2210
7FF8
4208
7FF8
4208
7FF8
0204
01FC
ENDCHAR
STARTCHAR uni4E81
ENCODING 20097
SWIDTH 1000 0
DWIDTH 15 0
BBX 14 14 0 -2
BITMAP
1040
FE40
1088
FCFC
8500
FCF8
8408
FC10
0020
FC40
1084
FE84
1084
107C
ENDCHAR
STARTCHAR uni4E82
ENCODING 20098
SWIDTH 1000 0
DWIDTH 15 0
BBX 14 14 0 -2
BITMAP
0F20
7220
4920
BEA0
1420
0820
FFA0
92A0
BEA0
82A0
BCA4
88A4
B4A4
839C
ENDCHAR
STARTCHAR uni4E83
ENCODING 20099
SWIDTH 1000 0
DWIDTH 15 0
BBX 14 14 0 -2
BITMAP
0840
4940
2A40
FFC0
2A40
C9C0
2240
7240
5F40
DA40
2A44
2FC4
4244
823C
ENDCHAR
STARTCHAR uni4E84
ENCODING 20100
SWIDTH 1000 0
DWIDTH 15 0
BBX 14 14 0 -2
BITMAP
0840
FF40
0840
7E40
0040
FF40
8140
7E40
4240
7E44
4244
2444
2444
FF3C
ENDCHAR
STARTCHAR uni4E85
ENCODING 20101
SWIDTH 1000 0
DWIDTH 15 0
BBX 4 14 4 -2
BITMAP
10
10
10
10
10
10
10
10
10
10
10
10
90
60
ENDCHAR
STARTCHAR uni4E86
ENCODING 20102
SWIDTH 1000 0
DWIDTH 15 0
BBX 13 13 0 -2
BITMAP
FFF8
0020
00C0
0300
0200
0200
0200
0200
0200
0200
0200
0A00
0400
ENDCHAR
STARTCHAR uni4E87
ENCODING 20103
SWIDTH 1000 0
DWIDTH 15 0
BBX 14 14 0 -2
BITMAP
1000
1000
2008
3FFC
4100
4100
8100
0100
0100
0100
0100
0100
0500
0200
ENDCHAR
STARTCHAR uni4E88
ENCODING 20104
SWIDTH 1000 0
DWIDTH 15 0
BBX 14 13 0 -2
BITMAP
7FF0
0040
0680
0100
FFFC
0108
0110
0120
0100
0100
0100
0900
0600
ENDCHAR
STARTCHAR uni4E89
ENCODING 20105
SWIDTH 1000 0
DWIDTH 15 0
BBX 14 14 0 -2
BITMAP
0800
0F80
1080
2110
FFF8
0210
FFFC
0210
0210
7FF0
0210
0200
0A00
0400
ENDCHAR
STARTCHAR uni4E8A
ENCODING 20106
SWIDTH 1000 0
DWIDTH 15 0
BBX 14 14 0 -2
BITMAP
0200
0208
FFFC
1220
0A40
3FF0
0210
FFFC
0210
7FF0
0210
0200
0A00
0400
ENDCHAR
STARTCHAR uni4E8B
ENCODING 20107
SWIDTH 1000 0
DWIDTH 15 0
BBX 14 14 0 -2
BITMAP
0100
FFFC
0100
3FF0
2110
3FF0
0100
7FF0
0110
FFFC
0110
7FF0
0110
0F00
ENDCHAR
STARTCHAR uni4E8C
ENCODING 20108
SWIDTH 1000 0
DWIDTH 15 0
BBX 14 11 0 0
BITMAP
0020
7FF0
0000
0000
0000
0000
0000
0000
0000
0000
FFFC
ENDCHAR
STARTCHAR uni4E8D
ENCODING 20109
SWIDTH 1000 0
DWIDTH 15 0
BBX 14 14 0 -2
BITMAP
0010
7FF8
0000
0000
0008
FFFC
0100
0100
0100
0100
0100
0100
0900
0600
ENDCHAR
STARTCHAR uni4E8E
ENCODING 20110
SWIDTH 1000 0
DWIDTH 15 0
BBX 14 14 0 -2
BITMAP
0010
7FF8
0100
0100
0100
0100
FFFC
0100
0100
0100
0100
0100
0500
0200
ENDCHAR
STARTCHAR uni4E8F
ENCODING 20111
SWIDTH 1000 0
DWIDTH 15 0
BBX 14 14 0 -2
BITMAP
0010
7FF8
0000
0008
FFFC
0800
1010
3FF8
2010
0010
0010
0020
0E20
01C0
ENDCHAR
STARTCHAR uni4E90
ENCODING 20112
SWIDTH 1000 0
DWIDTH 15 0
BBX 14 14 0 -2
BITMAP
0010
7FF8
0800
0808
FFFC
1000
1020
3FF0
2020
0020
0020
0020
0240
0180
ENDCHAR
STARTCHAR uni4E91
ENCODING 20113
SWIDTH 1000 0
DWIDTH 15 0
BBX 14 14 0 -2
BITMAP
0010
7FF8
0000
0000
0000
FFFC
0400
0400
0440
0820
0810
11F8
FE08
0008
ENDCHAR
STARTCHAR uni4E92
ENCODING 20114
SWIDTH 1000 0
DWIDTH 15 0
BBX 14 14 0 -2
BITMAP
0010
FFF8
0800
0800
0FE0
1020
1020
1020
1040
3FC0
2040
0040
0040
FFFC
ENDCHAR
STARTCHAR uni4E93
ENCODING 20115
SWIDTH 1000 0
DWIDTH 15 0
BBX 14 14 0 -2
BITMAP
0010
7FF8
0000
0008
FFFC
0840
0840
0840
0840
0840
1040
1040
2040
4040
ENDCHAR
STARTCHAR uni4E94
ENCODING 20116
SWIDTH 1000 0
DWIDTH 15 0
BBX 14 13 0 -1
BITMAP
0010
7FF8
0400
0400
0400
0400
7FE0
0820
0820
0820
1020
1020
FFFC
ENDCHAR
STARTCHAR uni4E95
ENCODING 20117
SWIDTH 1000 0
DWIDTH 15 0
BBX 14 14 0 -2
BITMAP
0840
0840
0840
FFF8
0840
0840
0840
0840
FFFC
1040
1040
2040
4040
8040
ENDCHAR
STARTCHAR uni4E96
ENCODING 20118
SWIDTH 1000 0
DWIDTH 15 0
BBX 14 13 0 -1
BITMAP
0020
3FF0
0000
0000
0008
FFFC
0000
0020
3FF0
0000
0000
0008
FFFC
ENDCHAR
STARTCHAR uni4E97
ENCODING 20119
SWIDTH 1000 0
DWIDTH 15 0
BBX 14 13 0 -1
BITMAP
0200
4208
4208
4208
7FF8
4008
0000
0020
7FF0
0000
0000
0008
FFFC
ENDCHAR
STARTCHAR uni4E98
ENCODING 20120
SWIDTH 1000 0
DWIDTH 15 0
BBX 14 13 0 -1
BITMAP
0008
FFFC
0000
3FE0
2020
2020
3FE0
2020
2020
3FE0
2020
0008
FFFC
ENDCHAR
STARTCHAR uni4E99
ENCODING 20121
SWIDTH 1000 0
DWIDTH 15 0
BBX 14 14 0 -2
BITMAP
0008
FFFC
0800
0840
0FE0
1040
1240
1140
1040
2440
2280
2080
0088
FFFC
ENDCHAR
STARTCHAR uni4E9A
ENCODING 20122
SWIDTH 1000 0
DWIDTH 15 0
BBX 14 13 0 -1
BITMAP
0010
7FF8
0480
0480
4488
4488
2490
2490
14A0
14A0
0480
0480
FFFC
ENDCHAR
STARTCHAR uni4E9B
ENCODING 20123
SWIDTH 1000 0
DWIDTH 15 0
BBX 14 14 0 -2
BITMAP
0880
0880
4880
4EFC
4880
4884
4884
4E84
F07C
0000
3FF0
0000
0008
FFFC
ENDCHAR
STARTCHAR uni4E9C
ENCODING 20124
SWIDTH 1000 0
DWIDTH 15 0
BBX 14 13 0 -1
BITMAP
0008
FFFC
0480
0488
7FFC
4488
4488
4488
7FF8
4488
0480
0488
FFFC
ENDCHAR
STARTCHAR uni4E9D
ENCODING 20125
SWIDTH 1000 0
DWIDTH 15 0
BBX 14 14 0 -2
BITMAP
0200
0420
1FF0
6010
1020
1048
249C
FEE4
8200
0010
3FF8
0000
0008
FFFC
ENDCHAR
STARTCHAR uni4E9E
ENCODING 20126
SWIDTH 1000 0
DWIDTH 15 0
BBX 14 14 0 -2
BITMAP
0008
FFFC
0480
0480
7CF8
4488
4008
4008
7CF8
4488
0480
0480
0488
FFFC
ENDCHAR
STARTCHAR uni4E9F
ENCODING 20127
SWIDTH 1000 0
DWIDTH 15 0
BBX 14 14 0 -2
BITMAP
0008
FFFC
0800
0F00
01F8
7948
4948
4950
4920
7930
4948
0784
0000
FFFC
ENDCHAR
STARTCHAR uni4EA0
ENCODING 20128
SWIDTH 1000 0
DWIDTH 15 0
BBX 14 5 0 6
BITMAP
0400
0300
0100
0008
FFFC
ENDCHAR
STARTCHAR uni4EA1
ENCODING 20129
SWIDTH 1000 0
DWIDTH 15 0
BBX 13 13 1 -1
BITMAP
0400
0400
8410
FFF8
8000
8000
8000
8000
8000
8000
8000
8000
7FF0
ENDCHAR
STARTCHAR uni4EA2
ENCODING 20130
SWIDTH 1000 0
DWIDTH 15 0
BBX 14 14 0 -2
BITMAP
0200
0208
FFFC
0000
0000
0F80
0880
0880
0880
0880
0884
1084
2084
C07C
ENDCHAR
STARTCHAR uni4EA3
ENCODING 20131
SWIDTH 1000 0
DWIDTH 15 0
BBX 14 14 0 -2
BITMAP
0100
0108
FFFC
0840
0840
0840
0840
0840
0840
0840
1040
1040
2040
C040
ENDCHAR
STARTCHAR uni4EA4
ENCODING 20132
SWIDTH 1000 0
DWIDTH 15 0
BBX 14 14 0 -2
BITMAP
0200
0208
FFFC
0000
0860
3010
C848
0840
1480
0500
0300
04C0
1830
E00C
ENDCHAR
STARTCHAR uni4EA5
ENCODING 20133
SWIDTH 1000 0
DWIDTH 15 0
BBX 14 14 0 -2
BITMAP
0100
0108
FFFC
0400
2840
1080
0900
0220
0C40
3080
C140
0620
1810
E008
ENDCHAR
STARTCHAR uni4EA6
ENCODING 20134
SWIDTH 1000 0
DWIDTH 15 0
BBX 14 14 0 -2
BITMAP
0100
0108
FFFC
0440
0440
0440
2450
2448
4448
4844
8844
1040
2240
C180
ENDCHAR
STARTCHAR uni4EA7
ENCODING 20135
SWIDTH 1000 0
DWIDTH 15 0
BBX 14 14 0 -2
BITMAP
0100
7FF8
1020
0840
7FFC
4000
4000
4000
4000
4000
4000
4000
4000
8000
ENDCHAR
STARTCHAR uni4EA8
ENCODING 20136
SWIDTH 1000 0
DWIDTH 15 0
BBX 14 14 0 -2
BITMAP
0100
FFFC
0000
1FE0
1020
1FE0
0000
FFF8
0060
0180
0100
0100
0900
0600
ENDCHAR
STARTCHAR uni4EA9
ENCODING 20137
SWIDTH 1000 0
DWIDTH 15 0
BBX 14 14 0 -2
BITMAP
0200
0208
FFFC
0000
0010
3FF8
2210
2210
3FF0
2210
2210
2210
3FF0
2010
ENDCHAR
STARTCHAR uni4EAA
ENCODING 20138
SWIDTH 1000 0
DWIDTH 15 0
BBX 14 14 0 -2
BITMAP
0100
FFFC
0480
14A0
1490
2488
4488
0000
1FC0
0040
0040
0020
0010
000C
ENDCHAR
STARTCHAR uni4EAB
ENCODING 20139
SWIDTH 1000 0
DWIDTH 15 0
BBX 14 14 0 -2
BITMAP
0100
FFFC
0000
1FE0
1020
1FE0
0000
7FF0
00C0
0108
FFFC
0100
0900
0600
ENDCHAR
STARTCHAR uni4EAC
ENCODING 20140
SWIDTH 1000 0
DWIDTH 15 0
BBX 14 14 0 -2
BITMAP
0100
0108
FFFC
0000
3FF0
2010
2010
3FF0
2110
0940
1120
2110
CD08
0200
ENDCHAR
STARTCHAR uni4EAD
ENCODING 20141
SWIDTH 1000 0
DWIDTH 15 0
BBX 14 14 0 -2
BITMAP
0100
FFFC
0000
1FE0
1020
1FE0
0000
7FFC
4004
BFE8
0100
0100
0500
0200
ENDCHAR
STARTCHAR uni4EAE
ENCODING 20142
SWIDTH 1000 0
DWIDTH 15 0
BBX 14 14 0 -2
BITMAP
0100
FFFC
0000
1FE0
1020
1FE0
0000
7FFC
4004
8888
0880
0884
1084
E07C
ENDCHAR
STARTCHAR uni4EAF
ENCODING 20143
SWIDTH 1000 0
DWIDTH 15 0
BBX 14 14 0 -2
BITMAP
0100
FFFC
0000
3FF0
2010
3FF0
0000
0008
7FFC
4008
7FF8
4008
7FF8
4008
ENDCHAR
STARTCHAR uni4EB0
ENCODING 20144
SWIDTH 1000 0
DWIDTH 15 0
BBX 14 14 0 -2
BITMAP
0100
FFFC
0000
3FF0
2010
3FF0
2010
3FF0
2110
1120
1110
2108
4508
0200
ENDCHAR
STARTCHAR uni4EB1
ENCODING 20145
SWIDTH 1000 0
DWIDTH 15 0
BBX 14 14 0 -2
BITMAP
0100
0108
FFFC
1000
17F0
2410
6410
A7F0
2410
2410
27F0
2008
3FFC
2000
ENDCHAR
STARTCHAR uni4EB2
ENCODING 20146
SWIDTH 1000 0
DWIDTH 15 0
BBX 14 14 0 -2
BITMAP
0200
0210
3FF8
0820
0440
FFFC
0000
0200
7FF8
0680
0A40
3230
C20C
0200
ENDCHAR
STARTCHAR uni4EB3
ENCODING 20147
SWIDTH 1000 0
DWIDTH 15 0
BBX 14 14 0 -2
BITMAP
0200
FFFC
0000
1FE0
1020
1FE0
0000
7FFC
4004
3FF0
0200
7FF4
0204
01FC
ENDCHAR
STARTCHAR uni4EB4
ENCODING 20148
SWIDTH 1000 0
DWIDTH 15 0
BBX 14 14 0 -2
BITMAP
0200
FFFC
0000
1FE0
1020
7FF8
4208
4FD8
0200
1FE0
0400
1FC4
0844
F03C
ENDCHAR
STARTCHAR uni4EB5
ENCODING 20149
SWIDTH 1000 0
DWIDTH 15 0
BBX 14 14 0 -2
BITMAP
0200
FFFC
1040
7CF0
1050
1D50
F094
114C
3204
0510
18A0
E840
0F30
380C
ENDCHAR
STARTCHAR uni4EB6
ENCODING 20150
SWIDTH 1000 0
DWIDTH 15 0
BBX 14 14 0 -2
BITMAP
0200
FFFC
0000
3FF0
2010
2FD0
2850
3FF0
0000
1FE0
1020
1FE0
1020
FFFC
ENDCHAR
STARTCHAR uni4EB7
ENCODING 20151
SWIDTH 1000 0
DWIDTH 15 0
BBX 14 14 0 -2
BITMAP
0100
7FF8
1040
0880
7FF8
4480
5FF0
4490
7FFC
4490
5FF0
4CA0
9490
A48C
ENDCHAR
STARTCHAR uni4EB8
ENCODING 20152
SWIDTH 1000 0
DWIDTH 15 0
BBX 14 14 0 -2
BITMAP
1088
FE48
0050
7DFC
4524
7D24
01FC
FD24
09FC
1020
FDFC
1020
5020
2020
ENDCHAR
STARTCHAR uni4EB9
ENCODING 20153
SWIDTH 1000 0
DWIDTH 15 0
BBX 14 14 0 -2
BITMAP
0200
FFFC
0000
37B0
2590
37B0
2490
FFFC
9024
1FE0
1020
1FE0
1020
FFFC
ENDCHAR
STARTCHAR uni4EBA
ENCODING 20154
SWIDTH 1000 0
DWIDTH 15 0
BBX 14 14 0 -2
BITMAP
0200
0200
0200
0200
0200
0200
0200
0500
0500
0880
1040
2020
4010
800C
ENDCHAR
STARTCHAR uni4EBB
ENCODING 20155
SWIDTH 1000 0
DWIDTH 15 0
BBX 6 14 3 -2
BITMAP
04
04
08
08
10
30
50
90
10
10
10
10
10
10
ENDCHAR
STARTCHAR uni4EBC
ENCODING 20156
SWIDTH 1000 0
DWIDTH 15 0
BBX 14 8 0 2
BITMAP
0100
0300
0480
0840
1020
2010
C04C
1FE0
ENDCHAR
STARTCHAR uni4EBD
ENCODING 20157
SWIDTH 1000 0
DWIDTH 15 0
BBX 14 13 0 -1
BITMAP
0200
0200
0500
0480
0840
1020
201C
C008
0400
0200
0100
0180
0080
ENDCHAR
STARTCHAR uni4EBE
ENCODING 20158
SWIDTH 1000 0
DWIDTH 15 0
BBX 14 13 0 -1
BITMAP
8000
8100
8100
8100
8100
8280
8280
8440
8440
8820
B018
8000
7FFC
ENDCHAR
STARTCHAR uni4EBF
ENCODING 20159
SWIDTH 1000 0
DWIDTH 15 0
BBX 14 14 0 -2
BITMAP
1000
17F0
1010
2020
2040
6080
A100
2200
2400
2400
2804
2804
27FC
2000
ENDCHAR
STARTCHAR uni4EC0
ENCODING 20160
SWIDTH 1000 0
DWIDTH 15 0
BBX 14 14 0 -2
BITMAP
1040
1040
1040
2040
2040
6FFC
A040
2040
2040
2040
2040
2040
2040
2040
ENDCHAR
STARTCHAR uni4EC1
ENCODING 20161
SWIDTH 1000 0
DWIDTH 15 0
BBX 14 14 0 -2
BITMAP
1000
1000
1010
27F8
2000
6000
A000
2000
2000
2000
2000
2008
2FFC
2000
ENDCHAR
STARTCHAR uni4EC2
ENCODING 20162
SWIDTH 1000 0
DWIDTH 15 0
BBX 14 14 0 -2
BITMAP
1080
1080
1080
2088
27FC
6088
A088
2088
2108
2108
2208
2208
2448
2830
ENDCHAR
STARTCHAR uni4EC3
ENCODING 20163
SWIDTH 1000 0
DWIDTH 15 0
BBX 14 14 0 -2
BITMAP
1000
17FC
1020
2020
2020
6020
A020
2020
2020
2020
2020
2020
2120
20C0
ENDCHAR
STARTCHAR uni4EC4
ENCODING 20164
SWIDTH 1000 0
DWIDTH 15 0
BBX 14 14 0 -2
BITMAP
0008
7FFC
4000
4100
4100
4100
4100
4280
4280
4440
4440
4820
9010
A00C
ENDCHAR
STARTCHAR uni4EC5
ENCODING 20165
SWIDTH 1000 0
DWIDTH 15 0
BBX 14 14 0 -2
BITMAP
1000
1008
2FFC
2408
6410
6210
A220
2120
2140
2080
20C0
2120
2210
2C0C
ENDCHAR
STARTCHAR uni4EC6
ENCODING 20166
SWIDTH 1000 0
DWIDTH 15 0
BBX 14 14 0 -2
BITMAP
0840
0840
0840
1040
1040
3070
5048
9044
1040
1040
1040
1040
1040
1040
ENDCHAR
STARTCHAR uni4EC7
ENCODING 20167
SWIDTH 1000 0
DWIDTH 15 0
BBX 14 14 0 -2
BITMAP
1100
1100
1100
2120
2FF0
6120
A120
2120
2120
2220
2224
2424
2824
301C
ENDCHAR
STARTCHAR uni4EC8
ENCODING 20168
SWIDTH 1000 0
DWIDTH 15 0
BBX 14 14 0 -2
BITMAP
1020
11F0
1020
2220
2220
6220
A210
2210
2410
2410
2408
2808
2804
3004
ENDCHAR
STARTCHAR uni4EC9
ENCODING 20169
SWIDTH 1000 0
DWIDTH 15 0
BBX 14 14 0 -2
BITMAP
1020
13F0
1220
2220
2220
6220
A220
2220
2220
2220
2224
2424
2424
281C
ENDCHAR
STARTCHAR uni4ECA
ENCODING 20170
SWIDTH 1000 0
DWIDTH 15 0
BBX 14 14 0 -2
BITMAP
0200
0300
0480
0840
3030
DFCC
0000
0000
7FE0
0020
0040
0040
0080
0080
ENDCHAR
STARTCHAR uni4ECB
ENCODING 20171
SWIDTH 1000 0
DWIDTH 15 0
BBX 14 14 0 -2
BITMAP
0200
0300
0480
0840
1030
288C
C880
0880
0880
0880
1080
1080
2080
C080
ENDCHAR
STARTCHAR uni4ECC
ENCODING 20172
SWIDTH 1000 0
DWIDTH 15 0
BBX 14 14 0 -2
BITMAP
0200
0200
0200
0500
0880
1060
E21C
0200
0200
0500
0500
0880
3060
C01C
ENDCHAR
STARTCHAR uni4ECD
ENCODING 20173
SWIDTH 1000 0
DWIDTH 15 0
BBX 14 14 0 -2
BITMAP
1020
17F0
1120
2120
2120
613C
A124
2104
2104
2204
2204
2404
28C8
3030
ENDCHAR
STARTCHAR uni4ECE
ENCODING 20174
SWIDTH 1000 0
DWIDTH 15 0
BBX 14 14 0 -2
BITMAP
1040
1040
1040
1040
1040
1040
1040
10A0
28A0
2520
4510
4210
8408
1804
ENDCHAR
STARTCHAR uni4ECF
ENCODING 20175
SWIDTH 1000 0
DWIDTH 15 0
BBX 14 14 0 -2
BITMAP
0800
0880
1080
1080
2080
6100
A100
2120
2110
2208
2208
227C
2F84
2000
ENDCHAR
STARTCHAR uni4ED0
ENCODING 20176
SWIDTH 1000 0
DWIDTH 15 0
BBX 14 14 0 -2
BITMAP
0200
0300
0480
0840
1220
221C
C208
0200
7FF8
0200
0200
0200
0200
0200
ENDCHAR
STARTCHAR uni4ED1
ENCODING 20177
SWIDTH 1000 0
DWIDTH 15 0
BBX 14 14 0 -2
BITMAP
0200
0300
0480
0840
1020
201C
D008
1060
1380
1C00
1010
1010
1010
0FF0
ENDCHAR
STARTCHAR uni4ED2
ENCODING 20178
SWIDTH 1000 0
DWIDTH 15 0
BBX 14 13 0 -1
BITMAP
0200
0200
0500
0480
0840
1020
221C
C188
0080
0C00
0200
0180
0080
ENDCHAR
STARTCHAR uni4ED3
ENCODING 20179
SWIDTH 1000 0
DWIDTH 15 0
BBX 14 14 0 -2
BITMAP
0200
0300
0480
0840
1020
201C
DFC8
1040
1040
1140
1080
1010
1010
0FF0
ENDCHAR
STARTCHAR uni4ED4
ENCODING 20180
SWIDTH 1000 0
DWIDTH 15 0
BBX 14 14 0 -2
BITMAP
1000
17F8
2010
2020
20C0
6080
A080
3FFC
2080
2080
2080
2080
2280
2100
ENDCHAR
STARTCHAR uni4ED5
ENCODING 20181
SWIDTH 1000 0
DWIDTH 15 0
BBX 14 14 0 -2
BITMAP
1080
1080
1080
2080
2088
6FFC
A080
2080
2080
2080
2080
2080
2FF8
2000
ENDCHAR
STARTCHAR uni4ED6
ENCODING 20182
SWIDTH 1000 0
DWIDTH 15 0
BBX 14 14 0 -2
BITMAP
1080
1080
1480
24B8
24C8
6F88
A488
2488
2488
24A8
2494
2404
2404
23FC
ENDCHAR
STARTCHAR uni4ED7
ENCODING 20183
SWIDTH 1000 0
DWIDTH 15 0
BBX 14 14 0 -2
BITMAP
1040
1040
1040
2048
2FFC
6440
A440
2A80
2A80
2100
2180
2240
2430
380C
ENDCHAR
STARTCHAR uni4ED8
ENCODING 20184
SWIDTH 1000 0
DWIDTH 15 0
BBX 14 14 0 -2
BITMAP
1020
1020
1020
2FFC
2020
6020
A220
2120
2120
2020
2020
2020
2120
20C0
ENDCHAR
STARTCHAR uni4ED9
ENCODING 20185
SWIDTH 1000 0
DWIDTH 15 0
BBX 14 14 0 -2
BITMAP
1040
1040
1040
2444
2444
6444
A444
2444
2444
2444
2444
2444
27FC
2404
ENDCHAR
STARTCHAR uni4EDA
ENCODING 20186
SWIDTH 1000 0
DWIDTH 15 0
BBX 14 14 0 -2
BITMAP
0100
0300
0480
0840
1020
2010
C20C
0200
4208
4208
4208
4208
7FF8
4008
ENDCHAR
STARTCHAR uni4EDB
ENCODING 20187
SWIDTH 1000 0
DWIDTH 15 0
BBX 14 14 0 -2
BITMAP
1030
10C0
1700
2100
2100
6108
A1FC
2F00
2100
2100
2100
2108
2108
20F8
ENDCHAR
STARTCHAR uni4EDC
ENCODING 20188
SWIDTH 1000 0
DWIDTH 15 0
BBX 14 14 0 -2
BITMAP
1000
1010
27F8
2080
6080
A080
2080
2080
2080
2080
2080
2088
2FFC
2000
ENDCHAR
STARTCHAR uni4EDD
ENCODING 20189
SWIDTH 1000 0
DWIDTH 15 0
BBX 14 14 0 -2
BITMAP
0100
0300
0480
0840
1020
2010
C04C
1FE0
0200
0200
0200
0200
0208
FFFC
ENDCHAR
STARTCHAR uni4EDE
ENCODING 20190
SWIDTH 1000 0
DWIDTH 15 0
BBX 13 14 0 -2
BITMAP
1000
17F8
1088
2088
2488
6288
A188
2088
2088
2108
2108
2208
2448
2830
ENDCHAR
STARTCHAR uni4EDF
ENCODING 20191
SWIDTH 1000 0
DWIDTH 15 0
BBX 14 14 0 -2
BITMAP
1018
1060
2F80
2080
2080
6088
AFFC
2080
2080
2080
2080
2080
2080
2080
ENDCHAR
STARTCHAR uni4EE0
ENCODING 20192
SWIDTH 1000 0
DWIDTH 15 0
BBX 14 14 0 -2
BITMAP
1008
17FC
1040
2040
2040
6048
AFFC
2040
2040
2040
2040
2040
2040
2040
ENDCHAR
STARTCHAR uni4EE1
ENCODING 20193
SWIDTH 1000 0
DWIDTH 15 0
BBX 14 14 0 -2
BITMAP
1100
1100
2208
27FC
6800
A020
27F0
2040
2080
2100
2204
2404
2404
23FC
ENDCHAR
STARTCHAR uni4EE2
ENCODING 20194
SWIDTH 1000 0
DWIDTH 15 0
BBX 14 14 0 -2
BITMAP
1100
1100
1208
23FC
2408
6808
A108
2088
2048
2048
2008
2008
2050
2020
ENDCHAR
STARTCHAR uni4EE3
ENCODING 20195
SWIDTH 1000 0
DWIDTH 15 0
BBX 14 14 0 -2
BITMAP
1080
10B0
1088
2080
20FC
6F80
A080
2080
2080
2040
2044
2024
2014
200C
ENDCHAR
STARTCHAR uni4EE4
ENCODING 20196
SWIDTH 1000 0
DWIDTH 15 0
BBX 14 14 0 -2
BITMAP
0200
0300
0480
0840
3030
CFCC
0000
7FF0
0410
0410
0410
0450
0420
0400
ENDCHAR
STARTCHAR uni4EE5
ENCODING 20197
SWIDTH 1000 0
DWIDTH 15 0
BBX 14 14 0 -2
BITMAP
2010
2010
2410
2210
2110
2010
2010
2020
2020
2220
2C50
3088
C304
0C00
ENDCHAR
STARTCHAR uni4EE6
ENCODING 20198
SWIDTH 1000 0
DWIDTH 15 0
BBX 14 14 0 -2
BITMAP
1080
1080
2080
2080
22A0
6290
A488
2488
2884
2884
2080
2080
2480
2300
ENDCHAR
STARTCHAR uni4EE7
ENCODING 20199
SWIDTH 1000 0
DWIDTH 15 0
BBX 14 14 0 -2
BITMAP
0200
0210
03F8
0200
0208
FFFC
0000
0200
0200
0200
0500
0880
1060
E01C
ENDCHAR
STARTCHAR uni4EE8
ENCODING 20200
SWIDTH 1000 0
DWIDTH 15 0
BBX 14 14 0 -2
BITMAP
1000
1010
17F8
2000
2000
6000
A010
23F8
2000
2000
2000
2008
2FFC
2000
ENDCHAR
STARTCHAR uni4EE9
ENCODING 20201
SWIDTH 1000 0
DWIDTH 15 0
BBX 14 14 0 -2
BITMAP
1080
1080
1080
2080
2088
60FC
A080
2080
2080
2080
2080
2088
2FFC
2000
ENDCHAR
STARTCHAR uni4EEA
ENCODING 20202
SWIDTH 1000 0
DWIDTH 15 0
BBX 14 14 0 -2
BITMAP
1000
1110
1490
2490
2410
6220
A220
2140
2140
2080
2140
2220
241C
2808
ENDCHAR
STARTCHAR uni4EEB
ENCODING 20203
SWIDTH 1000 0
DWIDTH 15 0
BBX 14 14 0 -2
BITMAP
0880
0880
1100
1100
2120
6220
A240
2440
2880
2090
2108
2208
27FC
2404
ENDCHAR
STARTCHAR uni4EEC
ENCODING 20204
SWIDTH 1000 0
DWIDTH 15 0
BBX 14 14 0 -2
BITMAP
1208
117C
1508
2408
2408
6408
A408
2408
2408
2408
2408
2408
2428
2410
ENDCHAR
STARTCHAR uni4EED
ENCODING 20205
SWIDTH 1000 0
DWIDTH 15 0
BBX 14 14 0 -2
BITMAP
1008
17FC
1088
2488
2488
6A88
A108
2108
2288
2248
2428
241C
2890
3060
ENDCHAR
STARTCHAR uni4EEE
ENCODING 20206
SWIDTH 1000 0
DWIDTH 15 0
BBX 14 14 0 -2
BITMAP
1008
17FC
2400
2408
67FC
6508
A508
2510
2490
24A0
2440
28A0
2910
360C
ENDCHAR
STARTCHAR uni4EEF
ENCODING 20207
SWIDTH 1000 0
DWIDTH 15 0
BBX 14 14 0 -2
BITMAP
1040
1040
2040
2250
6248
6244
A444
2448
2948
2090
2020
2040
2180
2E00
ENDCHAR
STARTCHAR uni4EF0
ENCODING 20208
SWIDTH 1000 0
DWIDTH 15 0
BBX 14 14 0 -2
BITMAP
2008
237C
2C48
4848
4848
4848
C848
4848
4848
4948
4E48
5858
4040
4040
ENDCHAR
STARTCHAR uni4EF1
ENCODING 20209
SWIDTH 1000 0
DWIDTH 15 0
BBX 14 14 0 -2
BITMAP
1080
1080
2140
2220
6410
ABEC
2000
2020
2FF0
2020
2020
2040
2040
2080
ENDCHAR
STARTCHAR uni4EF2
ENCODING 20210
SWIDTH 1000 0
DWIDTH 15 0
BBX 14 14 0 -2
BITMAP
1040
1040
1040
27FC
2444
6444
A444
2444
27FC
2444
2040
2040
2040
2040
ENDCHAR
STARTCHAR uni4EF3
ENCODING 20211
SWIDTH 1000 0
DWIDTH 15 0
BBX 14 14 0 -2
BITMAP
1440
1440
1440
2440
2440
677C
A440
2440
2440
2440
2444
25C4
2E44
203C
ENDCHAR
STARTCHAR uni4EF4
ENCODING 20212
SWIDTH 1000 0
DWIDTH 15 0
BBX 14 14 0 -2
BITMAP
1008
13FC
2208
2208
63F8
A208
2208
2208
23F8
2208
2208
2408
2428
2810
ENDCHAR
STARTCHAR uni4EF5
ENCODING 20213
SWIDTH 1000 0
DWIDTH 15 0
BBX 14 14 0 -2
BITMAP
1200
1210
23F8
2480
4480
C880
4088
4FFC
4080
4080
4080
4080
4080
4080
ENDCHAR
STARTCHAR uni4EF6
ENCODING 20214
SWIDTH 1000 0
DWIDTH 15 0
BBX 14 14 0 -2
BITMAP
2080
2480
2480
2488
4FFC
4880
D080
4080
5FFC
4080
4080
4080
4080
4080
ENDCHAR
STARTCHAR uni4EF7
ENCODING 20215
SWIDTH 1000 0
DWIDTH 15 0
BBX 14 14 0 -2
BITMAP
1080
1140
2140
2220
6410
AA2C
2220
2220
2220
2220
2220
2420
2420
2820
ENDCHAR
STARTCHAR uni4EF8
ENCODING 20216
SWIDTH 1000 0
DWIDTH 15 0
BBX 14 14 0 -2
BITMAP
1018
1060
27C0
2040
6040
6048
AFFC
2040
20A0
20A0
2110
2210
2408
2804
ENDCHAR
STARTCHAR uni4EF9
ENCODING 20217
SWIDTH 1000 0
DWIDTH 15 0
BBX 14 14 0 -2
BITMAP
1080
1098
20E0
2F80
6080
6FF8
A080
2088
2FFC
2080
2080
2080
2080
2080
ENDCHAR
STARTCHAR uni4EFA
ENCODING 20218
SWIDTH 1000 0
DWIDTH 15 0
BBX 14 14 0 -2
BITMAP
0200
0500
0880
1040
2030
C04C
1FE0
1000
1040
1FE0
1000
1010
1FF8
1000
ENDCHAR
STARTCHAR uni4EFB
ENCODING 20219
SWIDTH 1000 0
DWIDTH 15 0
BBX 14 14 0 -2
BITMAP
1018
1060
2F80
2080
2080
6080
A080
2FFC
2080
2080
2080
2080
2088
2FFC
ENDCHAR
STARTCHAR uni4EFC
ENCODING 20220
SWIDTH 1000 0
DWIDTH 15 0
BBX 14 14 0 -2
BITMAP
1000
1008
2FFC
2080
6080
6080
A088
27FC
2080
2080
2080
2088
2FFC
2000
ENDCHAR
STARTCHAR uni4EFD
ENCODING 20221
SWIDTH 1000 0
DWIDTH 15 0
BBX 14 14 0 -2
BITMAP
10E0
1020
1220
2210
2410
6808
B7F4
2110
2110
2110
2210
2210
2490
2860
ENDCHAR
STARTCHAR uni4EFE
ENCODING 20222
SWIDTH 1000 0
DWIDTH 15 0
BBX 14 14 0 -2
BITMAP
1008
17FC
1100
2100
23F0
6210
A210
2420
2420
27E0
2020
2020
2020
2FFC
ENDCHAR
STARTCHAR uni4EFF
ENCODING 20223
SWIDTH 1000 0
DWIDTH 15 0
BBX 14 14 0 -2
BITMAP
1080
1080
1080
2FFC
2100
6100
A1F8
2108
2108
2108
2208
2208
2490
2860
ENDCHAR
STARTCHAR uni4F00
ENCODING 20224
SWIDTH 1000 0
DWIDTH 15 0
BBX 14 14 0 -2
BITMAP
1000
10E0
1120
2110
2210
4208
C484
4880
4100
4120
4210
42F8
4F08
4000
ENDCHAR
STARTCHAR uni4F01
ENCODING 20225
SWIDTH 1000 0
DWIDTH 15 0
BBX 14 14 0 -2
BITMAP
0200
0300
0480
0840
1130
210C
C100
1100
11F0
1100
1100
1100
1108
FFFC
ENDCHAR
STARTCHAR uni4F02
ENCODING 20226
SWIDTH 1000 0
DWIDTH 15 0
BBX 14 14 0 -2
BITMAP
1040
1048
27FC
2040
6048
A7FC
2448
2448
2448
2448
2448
2458
2040
2040
ENDCHAR
STARTCHAR uni4F03
ENCODING 20227
SWIDTH 1000 0
DWIDTH 15 0
BBX 14 14 0 -2
BITMAP
1010
17F8
1010
21A0
2040
6FFC
A048
2050
2040
2040
2040
2040
2240
2180
ENDCHAR
STARTCHAR uni4F04
ENCODING 20228
SWIDTH 1000 0
DWIDTH 15 0
BBX 14 14 0 -2
BITMAP
1008
17FC
2088
2088
47F8
C480
4488
4FFC
4888
4088
40A8
4090
4080
4080
ENDCHAR
STARTCHAR uni4F05
ENCODING 20229
SWIDTH 1000 0
DWIDTH 15 0
BBX 14 14 0 -2
BITMAP
1080
108C
10B0
27C0
2080
6488
A488
2488
2488
27F8
2080
2084
2084
207C
ENDCHAR
STARTCHAR uni4F06
ENCODING 20230
SWIDTH 1000 0
DWIDTH 15 0
BBX 14 14 0 -2
BITMAP
1200
1200
23FC
24A4
24A4
6924
A124
2244
2248
2488
2888
2108
2248
2030
ENDCHAR
STARTCHAR uni4F07
ENCODING 20231
SWIDTH 1000 0
DWIDTH 15 0
BBX 14 14 0 -2
BITMAP
1020
13F0
2220
2224
6224
643C
A800
27F8
2210
2210
2120
20C0
2330
2C0C
ENDCHAR
STARTCHAR uni4F08
ENCODING 20232
SWIDTH 1000 0
DWIDTH 15 0
BBX 14 14 0 -2
BITMAP
1000
1180
1040
2020
2200
6200
AA10
2A08
2A04
2A04
3210
2210
2210
21F0
ENDCHAR
STARTCHAR uni4F09
ENCODING 20233
SWIDTH 1000 0
DWIDTH 15 0
BBX 14 14 0 -2
BITMAP
1040
1040
2FFC
2000
2020
63F0
A220
2220
2220
2220
2224
2424
2824
301C
ENDCHAR
STARTCHAR uni4F0A
ENCODING 20234
SWIDTH 1000 0
DWIDTH 15 0
BBX 14 14 0 -2
BITMAP
2010
2FF8
2110
4110
5FFC
4110
C110
4110
4FF0
4110
4100
4200
4400
4800
ENDCHAR
STARTCHAR uni4F0B
ENCODING 20235
SWIDTH 1000 0
DWIDTH 15 0
BBX 14 14 0 -2
BITMAP
1020
17F0
1220
2220
2220
63F8
A208
2208
2310
22A0
2440
24A0
2910
360C
ENDCHAR
STARTCHAR uni4F0C
ENCODING 20236
SWIDTH 1000 0
DWIDTH 15 0
BBX 14 14 0 -2
BITMAP
1008
17FC
1400
2410
25F8
6510
A510
2510
2550
2520
2500
2904
2904
30FC
ENDCHAR
STARTCHAR uni4F0D
ENCODING 20237
SWIDTH 1000 0
DWIDTH 15 0
BBX 14 14 0 -2
BITMAP
2008
2FFC
2100
4100
4100
4110
CFF8
4210
4210
4210
4210
4210
4210
5FFC
ENDCHAR
STARTCHAR uni4F0E
ENCODING 20238
SWIDTH 1000 0
DWIDTH 15 0
BBX 14 14 0 -2
BITMAP
1080
1080
2088
2FFC
6080
A090
2FF8
2210
2220
2140
2080
2140
2230
2C0C
ENDCHAR
STARTCHAR uni4F0F
ENCODING 20239
SWIDTH 1000 0
DWIDTH 15 0
BBX 14 14 0 -2
BITMAP
1080
1090
1088
2080
2FFC
6080
A080
2080
2140
2140
2220
2410
2808
3004
ENDCHAR
STARTCHAR uni4F10
ENCODING 20240
SWIDTH 1000 0
DWIDTH 15 0
BBX 14 14 0 -2
BITMAP
1080
10A0
1090
2080
2FFC
6080
A088
2090
20A0
2040
20C4
2324
2C14
200C
ENDCHAR
STARTCHAR uni4F11
ENCODING 20241
SWIDTH 1000 0
DWIDTH 15 0
BBX 14 14 0 -2
BITMAP
1080
1080
1080
2088
2FFC
6080
A180
21C0
22A0
2490
2888
3084
2080
2080
ENDCHAR
STARTCHAR uni4F12
ENCODING 20242
SWIDTH 1000 0
DWIDTH 15 0
BBX 14 14 0 -2
BITMAP
1070
1780
2400
2408
47FC
C440
4440
4440
4440
4440
4440
4840
4840
5040
ENDCHAR
STARTCHAR uni4F13
ENCODING 20243
SWIDTH 1000 0
DWIDTH 15 0
BBX 14 14 0 -2
BITMAP
1008
17FC
2040
2040
6080
A1A0
2290
2C88
2084
2080
2080
2080
2080
2080
ENDCHAR
STARTCHAR uni4F14
ENCODING 20244
SWIDTH 1000 0
DWIDTH 15 0
BBX 14 14 0 -2
BITMAP
1000
17FC
2404
2808
41E0
C120
4120
4120
4120
4120
4220
4224
4424
481C
ENDCHAR
STARTCHAR uni4F15
ENCODING 20245
SWIDTH 1000 0
DWIDTH 15 0
BBX 14 14 0 -2
BITMAP
1080
1080
1080
2080
27F8
6080
A080
2FFC
2140
2140
2220
2220
2410
280C
ENDCHAR
STARTCHAR uni4F16
ENCODING 20246
SWIDTH 1000 0
DWIDTH 15 0
BBX 14 14 0 -2
BITMAP
1080
1080
2088
2FFC
6100
61F0
A110
2290
22A0
24A0
2840
30A0
2110
260C
ENDCHAR
STARTCHAR uni4F17
ENCODING 20247
SWIDTH 1000 0
DWIDTH 15 0
BBX 14 14 0 -2
BITMAP
0200
0200
0200
0500
0880
1060
E01C
1040
1040
1040
28A0
2520
4210
840C
ENDCHAR
STARTCHAR uni4F18
ENCODING 20248
SWIDTH 1000 0
DWIDTH 15 0
BBX 14 14 0 -2
BITMAP
1080
10A0
2090
2080
67FC
6080
A0C0
20C0
2140
2140
2240
2244
2444
283C
ENDCHAR
STARTCHAR uni4F19
ENCODING 20249
SWIDTH 1000 0
DWIDTH 15 0
BBX 14 14 0 -2
BITMAP
1080
1080
1080
2280
2288
6290
A4A0
24C0
2140
2120
2220
2210
2408
2804
ENDCHAR
STARTCHAR uni4F1A
ENCODING 20250
SWIDTH 1000 0
DWIDTH 15 0
BBX 14 14 0 -2
BITMAP
0300
0480
0840
1020
2090
DFEC
0000
0008
FFFC
0400
0820
1010
1FF8
6008
ENDCHAR
STARTCHAR uni4F1B
ENCODING 20251
SWIDTH 1000 0
DWIDTH 15 0
BBX 14 14 0 -2
BITMAP
1008
17FC
1400
2410
2510
64A0
A460
2440
24A0
2490
2510
2400
27FC
2400
ENDCHAR
STARTCHAR uni4F1C
ENCODING 20252
SWIDTH 1000 0
DWIDTH 15 0
BBX 14 14 0 -2
BITMAP
1100
1120
2FF0
2220
4224
4424
D8BC
4080
4080
5FFC
4080
4080
4080
4080
ENDCHAR
STARTCHAR uni4F1D
ENCODING 20253
SWIDTH 1000 0
DWIDTH 15 0
BBX 14 14 0 -2
BITMAP
1010
17F8
1000
2000
2008
6FFC
A080
2080
2120
2110
2208
223C
2FC4
2000
ENDCHAR
STARTCHAR uni4F1E
ENCODING 20254
SWIDTH 1000 0
DWIDTH 15 0
BBX 14 14 0 -2
BITMAP
0200
0300
0480
0840
3230
C20C
1220
0A40
0208
FFFC
0200
0200
0200
0200
ENDCHAR
STARTCHAR uni4F1F
ENCODING 20255
SWIDTH 1000 0
DWIDTH 15 0
BBX 14 14 0 -2
BITMAP
1080
1080
1088
2FFC
2080
67F8
A080
2FFC
2084
2084
2094
2088
2080
2080
ENDCHAR
STARTCHAR uni4F20
ENCODING 20256
SWIDTH 1000 0
DWIDTH 15 0
BBX 14 14 0 -2
BITMAP
1100
1110
17F8
2100
2100
6FFC
A200
2210
27F8
2020
2240
2180
20C0
2040
ENDCHAR
STARTCHAR uni4F21
ENCODING 20257
SWIDTH 1000 0
DWIDTH 15 0
BBX 14 14 0 -2
BITMAP
1200
1208
1FFC
2200
2480
6480
A7F8
2080
2080
2FFC
2080
2080
2080
2080
ENDCHAR
STARTCHAR uni4F22
ENCODING 20258
SWIDTH 1000 0
DWIDTH 15 0
BBX 14 14 0 -2
BITMAP
1008
17FC
2020
2420
6428
A7FC
2420
2060
20A0
2120
2220
2C20
20A0
2040
ENDCHAR
STARTCHAR uni4F23
ENCODING 20259
SWIDTH 1000 0
DWIDTH 15 0
BBX 14 14 0 -2
BITMAP
1010
17F8
1410
2490
2490
6490
A490
2490
24D0
2140
2140
2244
2444
283C
ENDCHAR
STARTCHAR uni4F24
ENCODING 20260
SWIDTH 1000 0
DWIDTH 15 0
BBX 14 14 0 -2
BITMAP
1200
1208
13FC
2400
2880
6088
A7FC
2088
2088
2088
2108
2208
2490
2860
ENDCHAR
STARTCHAR uni4F25
ENCODING 20261
SWIDTH 1000 0
DWIDTH 15 0
BBX 14 14 0 -2
BITMAP
1200
1210
1220
2240
2280
6300
AFFC
2280
2280
2240
2220
2290
230C
2600
ENDCHAR
STARTCHAR uni4F26
ENCODING 20262
SWIDTH 1000 0
DWIDTH 15 0
BBX 14 14 0 -2
BITMAP
1080
1080
1140
2120
2210
6408
AA04
2230
23C0
2200
2200
2208
2208
21F8
ENDCHAR
STARTCHAR uni4F27
ENCODING 20263
SWIDTH 1000 0
DWIDTH 15 0
BBX 14 14 0 -2
BITMAP
1080
1080
1140
2220
2410
680C
A7E0
2420
2420
24A0
2440
2408
2408
23F8
ENDCHAR
STARTCHAR uni4F28
ENCODING 20264
SWIDTH 1000 0
DWIDTH 15 0
BBX 14 14 0 -2
BITMAP
1100
1100
2200
23FC
6404
6844
A7E4
2004
2044
27E8
2008
2008
2048
2030
ENDCHAR
STARTCHAR uni4F29
ENCODING 20265
SWIDTH 1000 0
DWIDTH 15 0
BBX 14 14 0 -2
BITMAP
1080
1080
1088
2FFC
2210
6210
A220
2120
2140
2080
2140
2220
241C
2808
ENDCHAR
STARTCHAR uni4F2A
ENCODING 20266
SWIDTH 1000 0
DWIDTH 15 0
BBX 14 14 0 -2
BITMAP
1080
1480
1280
2088
2FFC
6108
A188
2148
2128
2208
2208
2408
2850
3020
ENDCHAR
STARTCHAR uni4F2B
ENCODING 20267
SWIDTH 1000 0
DWIDTH 15 0
BBX 14 14 0 -2
BITMAP
1080
1080
1080
2FFC
2804
6000
A000
2000
2000
2000
2000
2008
2FFC
2000
ENDCHAR
STARTCHAR uni4F2C
ENCODING 20268
SWIDTH 1000 0
DWIDTH 15 0
BBX 14 14 0 -2
BITMAP
1008
13FC
1208
2208
2208
63F8
A248
2240
2240
2220
2220
2410
240C
2800
ENDCHAR
STARTCHAR uni4F2D
ENCODING 20269
SWIDTH 1000 0
DWIDTH 15 0
BBX 14 14 0 -2
BITMAP
1080
1088
27FC
2080
6080
A100
2520
2220
2140
2040
2090
2108
2FFC
2404
ENDCHAR
STARTCHAR uni4F2E
ENCODING 20270
SWIDTH 1000 0
DWIDTH 15 0
BBX 14 14 0 -2
BITMAP
1400
1408
14FC
2F48
2548
6548
A528
2528
2910
2510
2228
2548
2884
3104
ENDCHAR
STARTCHAR uni4F2F
ENCODING 20271
SWIDTH 1000 0
DWIDTH 15 0
BBX 14 14 0 -2
BITMAP
1040
1040
1088
27FC
2408
6408
A408
27F8
2408
2408
2408
2408
27F8
2408
ENDCHAR
STARTCHAR uni4F30
ENCODING 20272
SWIDTH 1000 0
DWIDTH 15 0
BBX 14 14 0 -2
BITMAP
1080
1080
1080
2088
2FFC
6080
A080
2080
27F8
2408
2408
2408
27F8
2408
ENDCHAR
STARTCHAR uni4F31
ENCODING 20273
SWIDTH 1000 0
DWIDTH 15 0
BBX 14 14 0 -2
BITMAP
1080
1080
1140
2220
2410
688C
A080
2290
2288
2488
2484
2884
2280
2100
ENDCHAR
STARTCHAR uni4F32
ENCODING 20274
SWIDTH 1000 0
DWIDTH 15 0
BBX 14 14 0 -2
BITMAP
1008
17FC
2408
2408
27F8
6408
A500
251C
2560
2580
2504
2904
2904
30FC
ENDCHAR
STARTCHAR uni4F33
ENCODING 20275
SWIDTH 1000 0
DWIDTH 15 0
BBX 14 14 0 -2
BITMAP
1490
1490
2490
2490
4FFC
C490
4490
4490
4490
44F0
4400
4408
47FC
4400
ENDCHAR
STARTCHAR uni4F34
ENCODING 20276
SWIDTH 1000 0
DWIDTH 15 0
BBX 14 14 0 -2
BITMAP
1080
1290
2288
2484
4884
47F8
C080
4080
4FFC
4080
4080
4080
4080
4080
ENDCHAR
STARTCHAR uni4F35
ENCODING 20277
SWIDTH 1000 0
DWIDTH 15 0
BBX 14 14 0 -2
BITMAP
1000
1000
27FC
24A4
24A4
64A4
A4A4
252C
252C
263C
2404
2404
27FC
2404
ENDCHAR
STARTCHAR uni4F36
ENCODING 20278
SWIDTH 1000 0
DWIDTH 15 0
BBX 14 14 0 -2
BITMAP
1080
1080
1140
2220
2410
7BEC
A000
2FF8
2108
2108
2108
2170
2100
2100
ENDCHAR
STARTCHAR uni4F37
ENCODING 20279
SWIDTH 1000 0
DWIDTH 15 0
BBX 14 14 0 -2
BITMAP
1040
1040
1040
2040
27FC
6444
A444
2444
27FC
2444
2444
2444
27FC
2404
ENDCHAR
STARTCHAR uni4F38
ENCODING 20280
SWIDTH 1000 0
DWIDTH 15 0
BBX 14 14 0 -2
BITMAP
1040
1040
1040
27FC
2444
6444
A7FC
2444
2444
27FC
2040
2040
2040
2040
ENDCHAR
STARTCHAR uni4F39
ENCODING 20281
SWIDTH 1000 0
DWIDTH 15 0
BBX 14 14 0 -2
BITMAP
1010
17F8
2410
2410
2410
67F0
A410
2410
2410
27F0
2410
2410
2410
2FFC
ENDCHAR
STARTCHAR uni4F3A
ENCODING 20282
SWIDTH 1000 0
DWIDTH 15 0
BBX 14 14 0 -2
BITMAP
1008
17FC
1008
2008
2FE8
6008
A7C8
2448
2448
27C8
2448
2008
2028
2010
ENDCHAR
STARTCHAR uni4F3B
ENCODING 20283
SWIDTH 1000 0
DWIDTH 15 0
BBX 14 14 0 -2
BITMAP
1010
17F8
2080
22A0
4290
C488
4880
4088
4FFC
4080
4080
4080
4080
4080
ENDCHAR
STARTCHAR uni4F3C
ENCODING 20284
SWIDTH 1000 0
DWIDTH 15 0
BBX 14 14 0 -2
BITMAP
1010
1410
1490
2450
2450
6410
A410
2410
2490
2510
2628
2C48
2084
2304
ENDCHAR
STARTCHAR uni4F3D
ENCODING 20285
SWIDTH 1000 0
DWIDTH 15 0
BBX 14 14 0 -2
BITMAP
1400
1400
1400
2FBC
24A4
64A4
A4A4
24A4
24A4
24A4
28A4
28A4
353C
2224
ENDCHAR
STARTCHAR uni4F3E
ENCODING 20286
SWIDTH 1000 0
DWIDTH 15 0
BBX 14 14 0 -2
BITMAP
1008
17FC
2040
2080
6190
A288
2484
2884
2080
2080
2080
2080
2008
27FC
ENDCHAR
STARTCHAR uni4F3F
ENCODING 20287
SWIDTH 1000 0
DWIDTH 15 0
BBX 14 14 0 -2
BITMAP
1008
17FC
1408
2408
2408
6408
A408
27F8
2408
2120
2210
2408
2804
2000
ENDCHAR
STARTCHAR uni4F40
ENCODING 20288
SWIDTH 1000 0
DWIDTH 15 0
BBX 14 14 0 -2
BITMAP
1008
17FC
2408
2408
2408
67F8
A400
2408
27FC
2408
2408
2408
27F8
2408
ENDCHAR
STARTCHAR uni4F41
ENCODING 20289
SWIDTH 1000 0
DWIDTH 15 0
BBX 14 14 0 -2
BITMAP
1080
1080
1100
2110
2208
627C
AF84
2000
27F8
2408
2408
2408
27F8
2408
ENDCHAR
STARTCHAR uni4F42
ENCODING 20290
SWIDTH 1000 0
DWIDTH 15 0
BBX 14 14 0 -2
BITMAP
1008
17FC
2080
2080
2080
6480
A490
24F8
2480
2480
2480
2480
2488
2FFC
ENDCHAR
STARTCHAR uni4F43
ENCODING 20291
SWIDTH 1000 0
DWIDTH 15 0
BBX 13 14 0 -2
BITMAP
2000
2FF8
2888
4888
4888
4888
CFF8
4888
4888
4888
4888
4888
4FF8
4808
ENDCHAR
STARTCHAR uni4F44
ENCODING 20292
SWIDTH 1000 0
DWIDTH 15 0
BBX 14 14 0 -2
BITMAP
1410
1410
2410
3FFC
2410
6410
A410
27F0
2410
2410
2410
2410
27F0
2410
ENDCHAR
STARTCHAR uni4F45
ENCODING 20293
SWIDTH 1000 0
DWIDTH 15 0
BBX 14 14 0 -2
BITMAP
1080
1080
2090
27F8
2080
6080
A088
2FFC
20C0
21A0
2290
2488
3884
2080
ENDCHAR
STARTCHAR uni4F46
ENCODING 20294
SWIDTH 1000 0
DWIDTH 15 0
BBX 14 14 0 -2
BITMAP
1010
17F8
1410
2410
2410
67F0
A410
2410
2410
27F0
2410
2000
2FFC
2000
ENDCHAR
STARTCHAR uni4F47
ENCODING 20295
SWIDTH 1000 0
DWIDTH 15 0
BBX 14 14 0 -2
BITMAP
1080
1080
17FC
2404
2808
6000
AFFC
2080
2080
2080
2080
2080
2280
2100
ENDCHAR
STARTCHAR uni4F48
ENCODING 20296
SWIDTH 1000 0
DWIDTH 15 0
BBX 14 14 0 -2
BITMAP
1100
1108
1FFC
2100
2240
6240
A7F8
2A48
2248
2248
2248
2258
2240
2040
ENDCHAR
STARTCHAR uni4F49
ENCODING 20297
SWIDTH 1000 0
DWIDTH 15 0
BBX 14 14 0 -2
BITMAP
1080
1080
1090
27F8
2080
6080
A088
2FFC
2100
2120
2210
2278
2F84
2004
ENDCHAR
STARTCHAR uni4F4A
ENCODING 20298
SWIDTH 1000 0
DWIDTH 15 0
BBX 14 14 0 -2
BITMAP
1040
1040
27F8
2448
2450
6440
A7F8
2508
2510
2490
24A0
2840
29B0
360C
ENDCHAR
STARTCHAR uni4F4B
ENCODING 20299
SWIDTH 1000 0
DWIDTH 15 0
BBX 14 14 0 -2
BITMAP
1008
17FC
2108
2108
2108
6248
A430
2808
27FC
2408
2408
2408
27F8
2408
ENDCHAR
STARTCHAR uni4F4C
ENCODING 20300
SWIDTH 1000 0
DWIDTH 15 0
BBX 14 14 0 -2
BITMAP
1220
1220
2A20
2A20
6A28
6BBC
AA20
2A20
2A20
2A20
2AA4
2B24
2C24
281C
ENDCHAR
STARTCHAR uni4F4D
ENCODING 20301
SWIDTH 1000 0
DWIDTH 15 0
BBX 14 14 0 -2
BITMAP
1080
1080
1088
2FFC
2000
4410
C410
4210
4220
4220
4240
4040
4040
5FFC
ENDCHAR
STARTCHAR uni4F4E
ENCODING 20302
SWIDTH 1000 0
DWIDTH 15 0
BBX 14 14 0 -2
BITMAP
1038
17C0
1440
2440
2440
67F8
A440
2440
2420
2424
2794
2C0C
2004
2FF0
ENDCHAR
STARTCHAR uni4F4F
ENCODING 20303
SWIDTH 1000 0
DWIDTH 15 0
BBX 14 14 0 -2
BITMAP
1100
1080
1088
2FFC
2080
6080
A080
27F8
2080
2080
2080
2080
2FFC
2000
ENDCHAR
STARTCHAR uni4F50
ENCODING 20304
SWIDTH 1000 0
DWIDTH 15 0
BBX 14 14 0 -2
BITMAP
1100
1100
1108
2FFC
2200
6200
A200
27F8
2480
2880
3080
2080
2080
2FFC
ENDCHAR
STARTCHAR uni4F51
ENCODING 20305
SWIDTH 1000 0
DWIDTH 15 0
BBX 14 14 0 -2
BITMAP
1100
1100
2108
2FFC
2200
6200
A400
27F8
2A08
3208
2208
2208
23F8
2208
ENDCHAR
STARTCHAR uni4F52
ENCODING 20306
SWIDTH 1000 0
DWIDTH 15 0
BBX 14 14 0 -2
BITMAP
1080
1090
27F8
2490
4490
4490
C490
5FFC
4080
4140
4120
4210
440C
4800
ENDCHAR
STARTCHAR uni4F53
ENCODING 20307
SWIDTH 1000 0
DWIDTH 15 0
BBX 14 14 0 -2
BITMAP
1080
1080
1088
2FFC
2080
61C0
A1A0
22A0
2490
2888
37F4
2080
2080
2080
ENDCHAR
STARTCHAR uni4F54
ENCODING 20308
SWIDTH 1000 0
DWIDTH 15 0
BBX 14 14 0 -2
BITMAP
1080
1080
1080
2088
20FC
6080
A080
2088
27FC
2408
2408
2408
27F8
2408
ENDCHAR
STARTCHAR uni4F55
ENCODING 20309
SWIDTH 1000 0
DWIDTH 15 0
BBX 14 14 0 -2
BITMAP
1000
1FFC
1008
2008
27C8
6448
A448
2448
27C8
2448
2008
2008
2048
2030
ENDCHAR
STARTCHAR uni4F56
ENCODING 20310
SWIDTH 1000 0
DWIDTH 15 0
BBX 14 14 0 -2
BITMAP
1080
1048
1048
2110
2110
6120
A520
2548
2544
2984
2108
2308
25F8
2800
ENDCHAR
STARTCHAR uni4F57
ENCODING 20311
SWIDTH 1000 0
DWIDTH 15 0
BBX 14 14 0 -2
BITMAP
1080
1080
17FC
2404
2808
6200
A218
2260
2380
2200
2204
2204
2204
21FC
ENDCHAR
STARTCHAR uni4F58
ENCODING 20312
SWIDTH 1000 0
DWIDTH 15 0
BBX 14 14 0 -2
BITMAP
0100
0280
0440
0830
304C
CFE0
0000
7FF8
0100
1140
1120
2110
4508
0200
ENDCHAR
STARTCHAR uni4F59
ENCODING 20313
SWIDTH 1000 0
DWIDTH 15 0
BBX 14 14 0 -2
BITMAP
0200
0300
0480
0840
3030
DFEC
0100
0100
FFF8
0940
1120
2110
4508
0200
ENDCHAR
STARTCHAR uni4F5A
ENCODING 20314
SWIDTH 1000 0
DWIDTH 15 0
BBX 14 14 0 -2
BITMAP
1080
1480
1480
27F8
2880
6880
A080
3FFC
2080
2140
2120
2210
2408
3804
ENDCHAR
STARTCHAR uni4F5B
ENCODING 20315
SWIDTH 1000 0
DWIDTH 15 0
BBX 14 14 0 -2
BITMAP
1240
1240
2FF8
2248
2248
6FF8
AA40
2A40
2FFC
2244
2244
2458
2440
2840
ENDCHAR
STARTCHAR uni4F5C
ENCODING 20316
SWIDTH 1000 0
DWIDTH 15 0
BBX 14 14 0 -2
BITMAP
1200
1208
13FC
2480
2480
6880
A0FC
2080
2080
20FC
2080
2080
2080
2080
ENDCHAR
STARTCHAR uni4F5D
ENCODING 20317
SWIDTH 1000 0
DWIDTH 15 0
BBX 14 14 0 -2
BITMAP
1200
1208
13FC
2408
2808
73C8
A248
2248
2248
23C8
2248
2008
2048
2030
ENDCHAR
STARTCHAR uni4F5E
ENCODING 20318
SWIDTH 1000 0
DWIDTH 15 0
BBX 14 14 0 -2
BITMAP
1010
17F8
1000
2000
2FFC
6080
A100
3FFC
2210
2410
2720
20E0
2318
2C08
ENDCHAR
STARTCHAR uni4F5F
ENCODING 20319
SWIDTH 1000 0
DWIDTH 15 0
BBX 14 14 0 -2
BITMAP
1080
1080
11F8
2310
2510
68A0
A040
21B0
2E0C
2180
2060
2018
2060
2380
ENDCHAR
STARTCHAR uni4F60
ENCODING 20320
SWIDTH 1000 0
DWIDTH 15 0
BBX 14 14 0 -2
BITMAP
1200
1200
1200
27FC
2444
6848
A040
2250
2248
2448
2444
2844
2140
2080
ENDCHAR
STARTCHAR uni4F61
ENCODING 20321
SWIDTH 1000 0
DWIDTH 15 0
BBX 14 14 0 -2
BITMAP
1080
1080
2140
2220
4410
C80C
5080
4888
4888
4888
4888
4888
4FF8
4808
ENDCHAR
STARTCHAR uni4F62
ENCODING 20322
SWIDTH 1000 0
DWIDTH 15 0
BBX 14 14 0 -2
BITMAP
1008
17FC
1400
2410
27F8
6410
A410
2410
27F0
2400
2400
2408
27FC
2400
ENDCHAR
STARTCHAR uni4F63
ENCODING 20323
SWIDTH 1000 0
DWIDTH 15 0
BBX 14 14 0 -2
BITMAP
1008
17FC
1488
2488
27F8
6488
A488
2488
27F8
2488
2488
2888
28A8
3010
ENDCHAR
STARTCHAR uni4F64
ENCODING 20324
SWIDTH 1000 0
DWIDTH 15 0
BBX 14 14 0 -2
BITMAP
1008
17FC
2200
2220
63F0
A220
2320
22A0
22A0
2220
2224
23E4
2E24
281C
ENDCHAR
STARTCHAR uni4F65
ENCODING 20325
SWIDTH 1000 0
DWIDTH 15 0
BBX 14 13 0 -1
BITMAP
0100
0280
0440
0820
3010
DFEC
0000
2410
1210
0920
0920
0040
7FF8
ENDCHAR
STARTCHAR uni4F66
ENCODING 20326
SWIDTH 1000 0
DWIDTH 15 0
BBX 14 14 0 -2
BITMAP
1008
17FC
2080
2080
6100
A100
2208
23FC
2508
2908
2108
2108
21F8
2108
ENDCHAR
STARTCHAR uni4F67
ENCODING 20327
SWIDTH 1000 0
DWIDTH 15 0
BBX 14 14 0 -2
BITMAP
1080
1080
10F8
2080
2088
6FFC
A080
20C0
20A0
2090
2088
2080
2080
2080
ENDCHAR
STARTCHAR uni4F68
ENCODING 20328
SWIDTH 1000 0
DWIDTH 15 0
BBX 14 14 0 -2
BITMAP
1200
1208
27FC
2408
6848
67E8
A448
2448
27C8
2408
2430
2404
2404
23FC
ENDCHAR
STARTCHAR uni4F69
ENCODING 20329
SWIDTH 1000 0
DWIDTH 15 0
BBX 14 14 0 -2
BITMAP
1000
1FF8
2808
2BE8
6888
6BE8
AAA8
2AA8
2AA8
2AA8
2AE8
2A88
308C
2084
ENDCHAR
STARTCHAR uni4F6A
ENCODING 20330
SWIDTH 1000 0
DWIDTH 15 0
BBX 13 14 0 -2
BITMAP
1000
17F8
2408
2408
6408
65E8
A528
2528
2528
25E8
2408
2408
27F8
2408
ENDCHAR
STARTCHAR uni4F6B
ENCODING 20331
SWIDTH 1000 0
DWIDTH 15 0
BBX 14 14 0 -2
BITMAP
1100
13F0
2210
2620
6940
6080
A160
221C
2FF0
2410
2410
2410
27F0
2410
ENDCHAR
STARTCHAR uni4F6C
ENCODING 20332
SWIDTH 1000 0
DWIDTH 15 0
BBX 14 14 0 -2
BITMAP
1080
1084
27E8
2090
60A0
6FFC
A040
2280
2318
3E60
2384
2204
2204
21FC
ENDCHAR
STARTCHAR uni4F6D
ENCODING 20333
SWIDTH 1000 0
DWIDTH 15 0
BBX 14 14 0 -2
BITMAP
2200
23F0
2620
4940
50C0
4330
DC4C
47F8
4440
4440
4FFC
4840
4040
4040
ENDCHAR
STARTCHAR uni4F6E
ENCODING 20334
SWIDTH 1000 0
DWIDTH 15 0
BBX 14 14 0 -2
BITMAP
1080
1080
2140
2220
6410
6BEC
A000
2000
27F8
2408
2408
2408
27F8
2408
ENDCHAR
STARTCHAR uni4F6F
ENCODING 20335
SWIDTH 1000 0
DWIDTH 15 0
BBX 14 14 0 -2
BITMAP
1410
1210
2120
2FFC
6080
6080
A7F8
2080
2088
2FFC
2080
2080
2080
2080
ENDCHAR
STARTCHAR uni4F70
ENCODING 20336
SWIDTH 1000 0
DWIDTH 15 0
BBX 14 14 0 -2
BITMAP
1008
17FC
2080
2080
67F8
6408
A408
2408
27F8
2408
2408
2408
27F8
2408
ENDCHAR
STARTCHAR uni4F71
ENCODING 20337
SWIDTH 1000 0
DWIDTH 15 0
BBX 14 14 0 -2
BITMAP
0200
0300
0480
0840
3030
CFCC
0000
3FF0
0200
1200
13E0
1200
1208
FFFC
ENDCHAR
STARTCHAR uni4F72
ENCODING 20338
SWIDTH 1000 0
DWIDTH 15 0
BBX 14 14 0 -2
BITMAP
2100
21F0
2210
4410
5A20
4140
C080
4108
47FC
5A08
4208
4208
43F8
4208
ENDCHAR
STARTCHAR uni4F73
ENCODING 20339
SWIDTH 1000 0
DWIDTH 15 0
BBX 14 14 0 -2
BITMAP
1080
1080
2090
2FF8
6080
6088
AFFC
2080
2090
2FF8
2080
2088
3FFC
2000
ENDCHAR
STARTCHAR uni4F74
ENCODING 20340
SWIDTH 1000 0
DWIDTH 15 0
BBX 14 14 0 -2
BITMAP
1008
1FFC
2210
2210
63F0
6210
A210
23F0
2210
2210
23F0
2C10
2010
2010
ENDCHAR
STARTCHAR uni4F75
ENCODING 20341
SWIDTH 1000 0
DWIDTH 15 0
BBX 14 14 0 -2
BITMAP
1210
1210
2420
2FFC
6220
6220
A2A0
2320
2EFC
2220
2220
2420
2420
2820
ENDCHAR
STARTCHAR uni4F76
ENCODING 20342
SWIDTH 1000 0
DWIDTH 15 0
BBX 14 14 0 -2
BITMAP
1080
1080
2088
2FFC
6080
6090
A7F8
2000
27F8
2408
2408
2408
27F8
2408
ENDCHAR
STARTCHAR uni4F77
ENCODING 20343
SWIDTH 1000 0
DWIDTH 15 0
BBX 14 14 0 -2
BITMAP
1010
17F8
2410
27F0
6410
6410
A7F0
2480
2498
2460
2440
25A0
2610
280C
ENDCHAR
STARTCHAR uni4F78
ENCODING 20344
SWIDTH 1000 0
DWIDTH 15 0
BBX 14 14 0 -2
BITMAP
1018
10E0
2F80
2080
6088
6FFC
A080
2080
27F8
2408
2408
2408
27F8
2408
ENDCHAR
STARTCHAR uni4F79
ENCODING 20345
SWIDTH 1000 0
DWIDTH 15 0
BBX 14 14 0 -2
BITMAP
1100
11E0
2220
24C0
6FFC
6400
A5F0
2510
2510
2950
2924
2904
2904
30F8
ENDCHAR
STARTCHAR uni4F7A
ENCODING 20346
SWIDTH 1000 0
DWIDTH 15 0
BBX 14 14 0 -2
BITMAP
1000
1780
2140
2220
6410
680C
B7F0
2080
2080
27F8
2080
2080
2088
2FFC
ENDCHAR
STARTCHAR uni4F7B
ENCODING 20347
SWIDTH 1000 0
DWIDTH 15 0
BBX 14 14 0 -2
BITMAP
1140
1140
2140
294C
6550
6560
A140
2370
2D48
3144
2240
2444
2844
303C
ENDCHAR
STARTCHAR uni4F7C
ENCODING 20348
SWIDTH 1000 0
DWIDTH 15 0
BBX 14 14 0 -2
BITMAP
1080
1088
2FFC
2000
6220
6410
AA28
2520
2540
2140
2080
2140
2230
2C0C
ENDCHAR
STARTCHAR uni4F7D
ENCODING 20349
SWIDTH 1000 0
DWIDTH 15 0
BBX 14 14 0 -2
BITMAP
1080
1080
2E80
20FC
6104
6248
A040
2240
24A0
28A0
2090
2110
2208
2404
ENDCHAR
STARTCHAR uni4F7E
ENCODING 20350
SWIDTH 1000 0
DWIDTH 15 0
BBX 14 14 0 -2
BITMAP
11E0
1220
2220
2410
67F8
6C14
A410
27F0
2410
27F0
2410
2410
24D0
2820
ENDCHAR
STARTCHAR uni4F7F
ENCODING 20351
SWIDTH 1000 0
DWIDTH 15 0
BBX 14 14 0 -2
BITMAP
1080
1088
2FFC
2080
6FF8
6888
A888
2FF8
2888
2680
2900
22C0
2430
380C
ENDCHAR
STARTCHAR uni4F80
ENCODING 20352
SWIDTH 1000 0
DWIDTH 15 0
BBX 13 14 0 -2
BITMAP
1008
1F88
2528
2528
6528
6528
AFA8
2528
2528
2528
2508
2508
2928
3110
ENDCHAR
STARTCHAR uni4F81
ENCODING 20353
SWIDTH 1000 0
DWIDTH 15 0
BBX 14 14 0 -2
BITMAP
1080
1280
2290
27F8
6480
6880
A088
2FFC
2140
2140
2244
2244
2444
283C
ENDCHAR
STARTCHAR uni4F82
ENCODING 20354
SWIDTH 1000 0
DWIDTH 15 0
BBX 14 14 0 -2
BITMAP
1040
1FFC
2800
2838
6BC0
6880
A888
28FC
2F80
2880
2884
2884
2884
307C
ENDCHAR
STARTCHAR uni4F83
ENCODING 20355
SWIDTH 1000 0
DWIDTH 15 0
BBX 14 14 0 -2
BITMAP
1010
17F8
2410
2410
6410
67F0
A000
2490
2490
2490
2494
2494
2894
301C
ENDCHAR
STARTCHAR uni4F84
ENCODING 20356
SWIDTH 1000 0
DWIDTH 15 0
BBX 14 14 0 -2
BITMAP
1008
17FC
2100
2220
6210
6FF8
A088
2080
2090
27F8
2080
2080
2088
2FFC
ENDCHAR
STARTCHAR uni4F85
ENCODING 20357
SWIDTH 1000 0
DWIDTH 15 0
BBX 14 14 0 -2
BITMAP
1080
1088
2FFC
2080
6110
6A20
A440
2288
2110
2220
2C60
2090
2308
2C04
ENDCHAR
STARTCHAR uni4F86
ENCODING 20358
SWIDTH 1000 0
DWIDTH 15 0
BBX 14 14 0 -2
BITMAP
0100
0108
FFFC
1120
1120
1120
2950
4388
0580
0940
1120
2110
C10C
0100
ENDCHAR
STARTCHAR uni4F87
ENCODING 20359
SWIDTH 1000 0
DWIDTH 15 0
BBX 14 14 0 -2
BITMAP
1080
1088
2FFC
2080
6FF8
6088
AFF8
2880
2FFC
2944
2158
2220
2410
280C
ENDCHAR
STARTCHAR uni4F88
ENCODING 20360
SWIDTH 1000 0
DWIDTH 15 0
BBX 14 14 0 -2
BITMAP
1080
1100
23F8
2610
6920
60C0
A320
2C7C
2084
2F08
2090
2060
2180
2E00
ENDCHAR
STARTCHAR uni4F89
ENCODING 20361
SWIDTH 1000 0
DWIDTH 15 0
BBX 14 14 0 -2
BITMAP
1100
1108
2FFC
2220
6410
6BEC
B000
2FFC
2200
27F8
2410
2010
2190
2060
ENDCHAR
STARTCHAR uni4F8A
ENCODING 20362
SWIDTH 1000 0
DWIDTH 15 0
BBX 14 14 0 -2
BITMAP
2080
2088
2888
4490
44A0
4080
DFFC
4140
4140
4140
4244
4244
4444
583C
ENDCHAR
STARTCHAR uni4F8B
ENCODING 20363
SWIDTH 1000 0
DWIDTH 15 0
BBX 13 14 0 -2
BITMAP
1088
1FC8
2428
2428
67A8
68A8
A8A8
3528
2328
2128
2208
2408
2828
3010
ENDCHAR
STARTCHAR uni4F8C
ENCODING 20364
SWIDTH 1000 0
DWIDTH 15 0
BBX 14 14 0 -2
BITMAP
0300
0480
0860
331C
C080
3FE0
0020
0040
3FF0
0000
FFFC
0840
11F0
7E08
ENDCHAR
STARTCHAR uni4F8D
ENCODING 20365
SWIDTH 1000 0
DWIDTH 15 0
BBX 14 14 0 -2
BITMAP
1080
1090
2FF8
2080
6088
6FFC
A020
2028
2FFC
2220
2120
2120
20A0
2040
ENDCHAR
STARTCHAR uni4F8E
ENCODING 20366
SWIDTH 1000 0
DWIDTH 15 0
BBX 14 14 0 -2
BITMAP
2080
2888
2488
4290
42A0
4080
CFFC
4180
42C0
42A0
4490
4888
5084
4080
ENDCHAR
STARTCHAR uni4F8F
ENCODING 20367
SWIDTH 1000 0
DWIDTH 15 0
BBX 14 14 0 -2
BITMAP
1080
1280
2490
27F8
6880
6088
AFFC
21C0
22A0
22A0
2490
288C
3080
2080
ENDCHAR
STARTCHAR uni4F90
ENCODING 20368
SWIDTH 1000 0
DWIDTH 15 0
BBX 14 14 0 -2
BITMAP
1080
1100
2100
2FF0
6A50
6A50
AA50
2A50
2A50
2A50
2A50
2A50
2A50
3FFC
ENDCHAR
STARTCHAR uni4F91
ENCODING 20369
SWIDTH 1000 0
DWIDTH 15 0
BBX 14 14 0 -2
BITMAP
1100
1108
2FFC
2100
6200
63F8
A608
2BF8
2208
2208
23F8
2208
2228
2210
ENDCHAR
STARTCHAR uni4F92
ENCODING 20370
SWIDTH 1000 0
DWIDTH 15 0
BBX 14 14 0 -2
BITMAP
1080
1080
2FF8
2808
6100
6108
AFFC
2220
2420
2640
2180
20C0
2330
2C08
ENDCHAR
STARTCHAR uni4F93
ENCODING 20371
SWIDTH 1000 0
DWIDTH 15 0
BBX 14 14 0 -2
BITMAP
1080
1090
27F8
2090
6FFC
6090
AFF0
2080
2FF8
2080
2088
3FFC
2080
2080
ENDCHAR
STARTCHAR uni4F94
ENCODING 20372
SWIDTH 1000 0
DWIDTH 15 0
BBX 14 14 0 -2
BITMAP
1080
1120
2210
2FF8
6088
6480
A7F8
2880
2080
2FFC
2080
2080
2080
2080
ENDCHAR
STARTCHAR uni4F95
ENCODING 20373
SWIDTH 1000 0
DWIDTH 15 0
BBX 14 14 0 -2
BITMAP
1008
17FC
2080
2108
67FC
6528
A528
2528
2528
2528
2528
2528
2528
2418
ENDCHAR
STARTCHAR uni4F96
ENCODING 20374
SWIDTH 1000 0
DWIDTH 15 0
BBX 14 14 0 -2
BITMAP
0200
0300
0480
0840
1030
2FCC
C000
7FF0
4490
4490
7FF0
4490
4490
4070
ENDCHAR
STARTCHAR uni4F97
ENCODING 20375
SWIDTH 1000 0
DWIDTH 15 0
BBX 14 14 0 -2
BITMAP
1000
17FC
2404
25F4
6404
6404
A5E4
2524
2524
25E4
2524
2404
2434
2408
ENDCHAR
STARTCHAR uni4F98
ENCODING 20376
SWIDTH 1000 0
DWIDTH 15 0
BBX 14 14 0 -2
BITMAP
1080
1080
2FFC
2804
6078
6F80
A080
209C
2FE0
2080
2084
2084
2084
207C
ENDCHAR
STARTCHAR uni4F99
ENCODING 20377
SWIDTH 1000 0
DWIDTH 15 0
BBX 14 14 0 -2
BITMAP
1050
1048
1040
2FFC
2020
6020
AFA0
2220
2220
2220
2394
2C14
200C
2004
ENDCHAR
STARTCHAR uni4F9A
ENCODING 20378
SWIDTH 1000 0
DWIDTH 15 0
BBX 14 14 0 -2
BITMAP
1400
1400
27FC
2804
6804
77C4
A444
27C4
2444
2448
27C8
2008
20C8
2030
ENDCHAR
STARTCHAR uni4F9B
ENCODING 20379
SWIDTH 1000 0
DWIDTH 15 0
BBX 14 14 0 -2
BITMAP
1220
1220
2220
2FF8
6220
6220
A220
2220
3FFC
2000
2120
2210
2408
2808
ENDCHAR
STARTCHAR uni4F9C
ENCODING 20380
SWIDTH 1000 0
DWIDTH 15 0
BBX 14 14 0 -2
BITMAP
1080
1090
27F8
2410
6490
6450
A410
3FFC
2490
2490
2490
2490
2850
2820
ENDCHAR
STARTCHAR uni4F9D
ENCODING 20381
SWIDTH 1000 0
DWIDTH 15 0
BBX 14 14 0 -2
BITMAP
1080
1080
2088
2FFC
6140
624C
A250
2620
2A20
3220
2210
22D0
2308
2C04
ENDCHAR
STARTCHAR uni4F9E
ENCODING 20382
SWIDTH 1000 0
DWIDTH 15 0
BBX 14 14 0 -2
BITMAP
1400
1400
247C
2F44
6544
6544
A944
2944
2A44
3644
2244
257C
2944
3000
ENDCHAR
STARTCHAR uni4F9F
ENCODING 20383
SWIDTH 1000 0
DWIDTH 15 0
BBX 14 14 0 -2
BITMAP
2100
2108
2FFC
4200
45F0
4410
CC20
5420
45FC
4420
4420
4420
44A0
4440
ENDCHAR
STARTCHAR uni4FA0
ENCODING 20384
SWIDTH 1000 0
DWIDTH 15 0
BBX 14 14 0 -2
BITMAP
1080
1088
2FFC
2080
6490
6290
A2A0
2FFC
2080
2140
2140
2220
2410
380C
ENDCHAR
STARTCHAR uni4FA1
ENCODING 20385
SWIDTH 1000 0
DWIDTH 15 0
BBX 14 14 0 -2
BITMAP
2008
2FFC
2120
4120
4120
4FF8
C928
4928
4928
4928
4928
4928
4FF8
4808
ENDCHAR
STARTCHAR uni4FA2
ENCODING 20386
SWIDTH 1000 0
DWIDTH 15 0
BBX 14 14 0 -2
BITMAP
2010
2FF8
2080
47F0
4490
4490
DFFC
4490
4490
5FFC
4410
4410
4450
4420
ENDCHAR
STARTCHAR uni4FA3
ENCODING 20387
SWIDTH 1000 0
DWIDTH 15 0
BBX 13 14 0 -2
BITMAP
1000
17F8
2408
2408
2408
67F8
A408
2000
27F8
2408
2408
2408
27F8
2408
ENDCHAR
STARTCHAR uni4FA4
ENCODING 20388
SWIDTH 1000 0
DWIDTH 15 0
BBX 14 14 0 -2
BITMAP
1100
1110
17D0
2120
2FFC
6080
A1F0
2600
3A00
23F0
2010
2010
20A0
2040
ENDCHAR
STARTCHAR uni4FA5
ENCODING 20389
SWIDTH 1000 0
DWIDTH 15 0
BBX 14 14 0 -2
BITMAP
1100
1118
11E0
2F18
20A0
6044
A7BC
2000
2FF8
2240
2240
2244
2444
283C
ENDCHAR
STARTCHAR uni4FA6
ENCODING 20390
SWIDTH 1000 0
DWIDTH 15 0
BBX 14 14 0 -2
BITMAP
1080
10FC
1080
27F8
2408
6488
A488
2488
2488
2488
2488
2120
2218
2C08
ENDCHAR
STARTCHAR uni4FA7
ENCODING 20391
SWIDTH 1000 0
DWIDTH 15 0
BBX 13 14 0 -2
BITMAP
2008
2F88
28A8
4AA8
4AA8
CAA8
4AA8
4AA8
4AA8
4AA8
4A08
4508
48A8
5090
ENDCHAR
STARTCHAR uni4FA8
ENCODING 20392
SWIDTH 1000 0
DWIDTH 15 0
BBX 14 14 0 -2
BITMAP
1030
17C0
2100
2FF8
6140
A220
2410
2A2C
2220
2220
2220
2220
2420
2820
ENDCHAR
STARTCHAR uni4FA9
ENCODING 20393
SWIDTH 1000 0
DWIDTH 15 0
BBX 14 14 0 -2
BITMAP
1080
1080
1140
2220
2410
6BEC
A000
2000
2FF8
2100
2220
2410
2FF8
2408
ENDCHAR
STARTCHAR uni4FAA
ENCODING 20394
SWIDTH 1000 0
DWIDTH 15 0
BBX 14 14 0 -2
BITMAP
1080
1088
2FFC
2220
6140
A080
2360
2C1C
2220
2220
2220
2220
2420
2820
ENDCHAR
STARTCHAR uni4FAB
ENCODING 20395
SWIDTH 1000 0
DWIDTH 15 0
BBX 14 14 0 -2
BITMAP
1080
1080
2FF8
2800
2800
67F8
A100
2108
2FFC
2220
2720
20C0
2330
2C08
ENDCHAR
STARTCHAR uni4FAC
ENCODING 20396
SWIDTH 1000 0
DWIDTH 15 0
BBX 14 14 0 -2
BITMAP
1080
1080
1080
2FFC
2884
6080
A148
2250
2660
3A40
2220
2290
230C
2600
ENDCHAR
STARTCHAR uni4FAD
ENCODING 20397
SWIDTH 1000 0
DWIDTH 15 0
BBX 14 14 0 -2
BITMAP
1008
17FC
1408
2408
27F8
6420
A420
2510
2890
2848
2904
3080
2040
2020
ENDCHAR
STARTCHAR uni4FAE
ENCODING 20398
SWIDTH 1000 0
DWIDTH 15 0
BBX 14 14 0 -2
BITMAP
1200
1208
17FC
2400
2BF8
6288
A248
2FFC
2410
2490
2450
27FC
2010
2060
ENDCHAR
STARTCHAR uni4FAF
ENCODING 20399
SWIDTH 1000 0
DWIDTH 15 0
BBX 14 14 0 -2
BITMAP
1020
17F0
1020
2FFC
2000
6400
A7F8
2880
2080
2FFC
2140
2220
2410
380C
ENDCHAR
STARTCHAR uni4FB0
ENCODING 20400
SWIDTH 1000 0
DWIDTH 15 0
BBX 14 14 0 -2
BITMAP
1010
17F8
1110
2FFC
2110
6110
A7F0
2200
27F8
2A08
3208
2208
23F8
2208
ENDCHAR
STARTCHAR uni4FB1
ENCODING 20401
SWIDTH 1000 0
DWIDTH 15 0
BBX 14 14 0 -2
BITMAP
1000
17F8
1408
2408
27F8
6000
A078
2F80
2080
2080
2FF8
2080
2080
3FFC
ENDCHAR
STARTCHAR uni4FB2
ENCODING 20402
SWIDTH 1000 0
DWIDTH 15 0
BBX 14 14 0 -2
BITMAP
1008
17FC
2400
25F8
6400
6408
A7FC
2540
254C
2530
2520
2910
29C8
3604
ENDCHAR
STARTCHAR uni4FB3
ENCODING 20403
SWIDTH 1000 0
DWIDTH 15 0
BBX 14 14 0 -2
BITMAP
1080
1490
2490
2490
6490
6AA8
A9C4
3080
2090
2FF8
2080
2080
2080
3FFC
ENDCHAR
STARTCHAR uni4FB4
ENCODING 20404
SWIDTH 1000 0
DWIDTH 15 0
BBX 14 14 0 -2
BITMAP
0300
0480
0840
3030
CFCC
0000
7E48
1248
1248
FF48
2248
2248
2228
FF90
ENDCHAR
STARTCHAR uni4FB5
ENCODING 20405
SWIDTH 1000 0
DWIDTH 15 0
BBX 14 14 0 -2
BITMAP
17F0
1010
1FFC
2010
27F0
6000
AFFC
2804
27F0
2220
2140
2080
2360
3C1C
ENDCHAR
STARTCHAR uni4FB6
ENCODING 20406
SWIDTH 1000 0
DWIDTH 15 0
BBX 14 14 0 -2
BITMAP
1010
17F8
1410
2410
27F0
6490
A080
2108
27FC
2408
2408
2408
27F8
2408
ENDCHAR
STARTCHAR uni4FB7
ENCODING 20407
SWIDTH 1000 0
DWIDTH 15 0
BBX 14 14 0 -2
BITMAP
1008
17FC
1408
27F8
2408
6400
A7FC
2404
25E4
2524
25E4
2804
2848
3030
ENDCHAR
STARTCHAR uni4FB8
ENCODING 20408
SWIDTH 1000 0
DWIDTH 15 0
BBX 14 14 0 -2
BITMAP
2010
2FF8
2000
4010
4FF8
4810
C810
4FF0
4000
4420
4420
4240
4240
5FFC
ENDCHAR
STARTCHAR uni4FB9
ENCODING 20409
SWIDTH 1000 0
DWIDTH 15 0
BBX 14 14 0 -2
BITMAP
1000
1E1C
22E0
2420
6420
6E28
A2FC
2A20
2A20
3428
24FC
2600
2980
307C
ENDCHAR
STARTCHAR uni4FBA
ENCODING 20410
SWIDTH 1000 0
DWIDTH 15 0
BBX 14 14 0 -2
BITMAP
1080
1488
2488
27F8
6488
6140
A220
241C
2BE0
2000
27F0
2010
2020
2040
ENDCHAR
STARTCHAR uni4FBB
ENCODING 20411
SWIDTH 1000 0
DWIDTH 15 0
BBX 14 14 0 -2
BITMAP
10E0
1220
2220
2410
6FFC
6410
A410
2410
27F0
2140
2144
2244
2444
283C
ENDCHAR
STARTCHAR uni4FBC
ENCODING 20412
SWIDTH 1000 0
DWIDTH 15 0
BBX 14 14 0 -2
BITMAP
1080
1080
17F8
2080
2FFC
6804
A7F0
2040
2080
2FFC
2080
2080
2280
2100
ENDCHAR
STARTCHAR uni4FBD
ENCODING 20413
SWIDTH 1000 0
DWIDTH 15 0
BBX 14 14 0 -2
BITMAP
1008
17FC
2448
27F8
6448
A448
27F8
2080
27FC
2084
2084
2104
2228
2C10
ENDCHAR
STARTCHAR uni4FBE
ENCODING 20414
SWIDTH 1000 0
DWIDTH 15 0
BBX 14 14 0 -2
BITMAP
2100
2108
2FD0
4120
5FFC
4080
CFF0
4220
5CC0
4088
5FFC
4080
4280
4100
ENDCHAR
STARTCHAR uni4FBF
ENCODING 20415
SWIDTH 1000 0
DWIDTH 15 0
BBX 14 14 0 -2
BITMAP
1008
1FFC
1080
27F8
2488
67F8
A488
27F8
2488
2280
2500
2180
2260
2C1C
ENDCHAR
STARTCHAR uni4FC0
ENCODING 20416
SWIDTH 1000 0
DWIDTH 15 0
BBX 14 14 0 -2
BITMAP
1018
17E0
2288
2244
6444
6880
A088
3FFC
2110
2210
27A0
2060
2190
2E08
ENDCHAR
STARTCHAR uni4FC1
ENCODING 20417
SWIDTH 1000 0
DWIDTH 15 0
BBX 14 14 0 -2
BITMAP
1000
13F0
2A10
2A10
6BF0
6800
AFF8
2088
2088
3FFC
2140
2220
2410
280C
ENDCHAR
STARTCHAR uni4FC2
ENCODING 20418
SWIDTH 1000 0
DWIDTH 15 0
BBX 14 14 0 -2
BITMAP
103C
17C0
1080
2510
2220
6140
A088
2FFC
2044
2250
2248
2444
2844
2040
ENDCHAR
STARTCHAR uni4FC3
ENCODING 20419
SWIDTH 1000 0
DWIDTH 15 0
BBX 14 14 0 -2
BITMAP
1008
17FC
1408
2408
2408
67F8
A040
2440
247C
2440
2440
2A40
29C0
307C
ENDCHAR
STARTCHAR uni4FC4
ENCODING 20420
SWIDTH 1000 0
DWIDTH 15 0
BBX 14 14 0 -2
BITMAP
2340
2C50
2448
4440
5FFC
4440
C448
4548
4650
5C20
4464
4494
450C
4C04
ENDCHAR
STARTCHAR uni4FC5
ENCODING 20421
SWIDTH 1000 0
DWIDTH 15 0
BBX 14 14 0 -2
BITMAP
10A0
1090
2080
2FFC
6080
6488
A2D0
22A0
21A0
2290
2C90
2088
2284
2100
ENDCHAR
STARTCHAR uni4FC6
ENCODING 20422
SWIDTH 1000 0
DWIDTH 15 0
BBX 14 14 0 -2
BITMAP
1080
10C0
1120
2210
2408
6BF4
A040
2FFC
2040
2250
2248
2444
2944
2080
ENDCHAR
STARTCHAR uni4FC7
ENCODING 20423
SWIDTH 1000 0
DWIDTH 15 0
BBX 14 14 0 -2
BITMAP
1208
1AFC
2420
2A20
6220
6220
A2FC
2620
2A20
2220
2220
2228
2AFC
2400
ENDCHAR
STARTCHAR uni4FC8
ENCODING 20424
SWIDTH 1000 0
DWIDTH 15 0
BBX 14 14 0 -2
BITMAP
1280
1280
1480
27F8
2880
6088
AFFC
2000
27F8
2408
2408
2408
27F8
2408
ENDCHAR
STARTCHAR uni4FC9
ENCODING 20425
SWIDTH 1000 0
DWIDTH 15 0
BBX 14 14 0 -2
BITMAP
1008
17FC
2100
27F0
6110
6210
A210
2FFC
2000
27F0
2410
2410
27F0
2410
ENDCHAR
STARTCHAR uni4FCA
ENCODING 20426
SWIDTH 1000 0
DWIDTH 15 0
BBX 14 14 0 -2
BITMAP
1100
1110
1218
2FE8
2224
6424
B91C
2100
23F0
2620
2940
20C0
2330
2C0C
ENDCHAR
STARTCHAR uni4FCB
ENCODING 20427
SWIDTH 1000 0
DWIDTH 15 0
BBX 14 14 0 -2
BITMAP
1000
17F0
2410
27F0
6000
6FF8
A888
2888
2FF8
2808
2804
2804
2804
27FC
ENDCHAR
STARTCHAR uni4FCC
ENCODING 20428
SWIDTH 1000 0
DWIDTH 15 0
BBX 14 14 0 -2
BITMAP
10A0
1090
1FFC
2080
2FF8
6888
A888
2FF8
2888
2FF8
2888
2888
28A8
2890
ENDCHAR
STARTCHAR uni4FCD
ENCODING 20429
SWIDTH 1000 0
DWIDTH 15 0
BBX 14 14 0 -2
BITMAP
1080
1080
27F8
2408
67F8
6408
A408
27F8
2480
244C
2450
25A0
2E10
280C
ENDCHAR
STARTCHAR uni4FCE
ENCODING 20430
SWIDTH 1000 0
DWIDTH 15 0
BBX 14 14 0 -2
BITMAP
1010
13F8
1210
1210
2A10
4BF0
8210
1210
1210
13F0
2A10
4A10
8210
0FFC
ENDCHAR
STARTCHAR uni4FCF
ENCODING 20431
SWIDTH 1000 0
DWIDTH 15 0
BBX 14 14 0 -2
BITMAP
1040
1250
1248
2444
2FFC
6408
A408
27F8
2408
27F8
2408
2408
2428
2410
ENDCHAR
STARTCHAR uni4FD0
ENCODING 20432
SWIDTH 1000 0
DWIDTH 15 0
BBX 14 14 0 -2
BITMAP
1184
1E24
1224
2224
2FA4
6224
A724
26A4
2AA4
3224
2224
2204
2214
2208
ENDCHAR
STARTCHAR uni4FD1
ENCODING 20433
SWIDTH 1000 0
DWIDTH 15 0
BBX 14 14 0 -2
BITMAP
1000
17F8
1120
20C0
27FC
6444
A444
27FC
2444
2444
27FC
2444
2444
241C
ENDCHAR
STARTCHAR uni4FD2
ENCODING 20434
SWIDTH 1000 0
DWIDTH 15 0
BBX 14 14 0 -2
BITMAP
1080
1080
1FFC
2804
2800
67F0
A000
2FF8
2140
2140
2140
2244
2444
283C
ENDCHAR
STARTCHAR uni4FD3
ENCODING 20435
SWIDTH 1000 0
DWIDTH 15 0
BBX 14 14 0 -2
BITMAP
1008
17FC
2248
2490
64A0
6920
A490
2248
2000
2FFC
2080
2080
2088
2FFC
ENDCHAR
STARTCHAR uni4FD4
ENCODING 20436
SWIDTH 1000 0
DWIDTH 15 0
BBX 14 14 0 -2
BITMAP
1010
17F8
2410
27F0
6410
67F0
A410
2410
27F0
2550
2140
2144
2244
2C3C
ENDCHAR
STARTCHAR uni4FD5
ENCODING 20437
SWIDTH 1000 0
DWIDTH 15 0
BBX 14 14 0 -2
BITMAP
1080
1080
17FC
2404
2880
6080
AFFC
2080
21C0
22A0
2490
288C
2080
2080
ENDCHAR
STARTCHAR uni4FD6
ENCODING 20438
SWIDTH 1000 0
DWIDTH 15 0
BBX 14 14 0 -2
BITMAP
1008
17FC
2080
21A0
6290
6288
A484
2880
27F8
2408
2408
2408
27F8
2408
ENDCHAR
STARTCHAR uni4FD7
ENCODING 20439
SWIDTH 1000 0
DWIDTH 15 0
BBX 14 14 0 -2
BITMAP
1000
1220
1210
2488
2880
6140
A220
2410
3FFC
2410
2410
2410
27F0
2410
ENDCHAR
STARTCHAR uni4FD8
ENCODING 20440
SWIDTH 1000 0
DWIDTH 15 0
BBX 14 14 0 -2
BITMAP
1038
17C0
2908
2490
2000
6FF8
A020
20C0
2080
2FFC
2080
2080
2280
2100
ENDCHAR
STARTCHAR uni4FD9
ENCODING 20441
SWIDTH 1000 0
DWIDTH 15 0
BBX 14 14 0 -2
BITMAP
1410
1320
20C0
2F38
6100
6FFC
A240
27F8
2C48
3448
2448
2468
2450
2040
ENDCHAR
STARTCHAR uni4FDA
ENCODING 20442
SWIDTH 1000 0
DWIDTH 15 0
BBX 14 14 0 -2
BITMAP
1008
17FC
1488
2488
27F8
6488
A488
27F8
2080
2080
27F8
2080
2080
2FFC
ENDCHAR
STARTCHAR uni4FDB
ENCODING 20443
SWIDTH 1000 0
DWIDTH 15 0
BBX 14 14 0 -2
BITMAP
1100
13E0
2220
2440
6FF8
7488
A488
27F8
2488
2140
2144
2244
2444
283C
ENDCHAR
STARTCHAR uni4FDC
ENCODING 20444
SWIDTH 1000 0
DWIDTH 15 0
BBX 14 14 0 -2
BITMAP
1080
17F8
2488
27F8
6488
67F8
A000
2FFC
2200
27F8
2408
2010
2190
2060
ENDCHAR
STARTCHAR uni4FDD
ENCODING 20445
SWIDTH 1000 0
DWIDTH 15 0
BBX 14 14 0 -2
BITMAP
1010
17F8
2410
2410
47F0
4490
C080
5FFC
41C0
42A0
4490
4888
5084
4080
ENDCHAR
STARTCHAR uni4FDE
ENCODING 20446
SWIDTH 1000 0
DWIDTH 15 0
BBX 14 14 0 -2
BITMAP
3E00
0300
0480
0860
37DC
C000
7E48
4248
7E48
4248
7E48
4248
4A28
4410
ENDCHAR
STARTCHAR uni4FDF
ENCODING 20447
SWIDTH 1000 0
DWIDTH 15 0
BBX 14 14 0 -2
BITMAP
1100
1100
1210
2FF8
2008
6400
A7F8
2880
2080
2FFC
2140
2220
2410
380C
ENDCHAR
STARTCHAR uni4FE0
ENCODING 20448
SWIDTH 1000 0
DWIDTH 15 0
BBX 14 14 0 -2
BITMAP
1080
1080
1088
2FFC
2490
6490
A490
2AA8
3084
2140
2120
2210
2408
3804
ENDCHAR
STARTCHAR uni4FE1
ENCODING 20449
SWIDTH 1000 0
DWIDTH 15 0
BBX 14 14 0 -2
BITMAP
1010
13F8
1000
2FFC
2000
63F8
A000
23F8
2000
23F8
2208
2208
23F8
2208
ENDCHAR
STARTCHAR uni4FE2
ENCODING 20450
SWIDTH 1000 0
DWIDTH 15 0
BBX 14 14 0 -2
BITMAP
1100
1100
13F8
2620
2940
60E0
A31C
2C40
2190
2660
2188
2630
20C0
2F00
ENDCHAR
STARTCHAR uni4FE3
ENCODING 20451
SWIDTH 1000 0
DWIDTH 15 0
BBX 14 14 0 -2
BITMAP
1010
17F8
1410
2410
27F0
6000
AFF8
2080
2080
2FFC
2140
2220
2410
380C
ENDCHAR
STARTCHAR uni4FE4
ENCODING 20452
SWIDTH 1000 0
DWIDTH 15 0
BBX 14 14 0 -2
BITMAP
1210
1120
2FF8
2088
6088
AFF8
2880
2880
2FFC
2184
2284
24A8
2890
2080
ENDCHAR
STARTCHAR uni4FE5
ENCODING 20453
SWIDTH 1000 0
DWIDTH 15 0
BBX 14 14 0 -2
BITMAP
1080
1088
2FFC
2080
2FF8
6888
AFF8
2888
2FF8
2080
2088
2FFC
2080
2080
ENDCHAR
STARTCHAR uni4FE6
ENCODING 20454
SWIDTH 1000 0
DWIDTH 15 0
BBX 14 14 0 -2
BITMAP
1100
1100
27F8
2100
67F0
A100
2FFC
2220
23FC
2520
28A0
3020
20A0
2040
ENDCHAR
STARTCHAR uni4FE7
ENCODING 20455
SWIDTH 1000 0
DWIDTH 15 0
BBX 14 14 0 -2
BITMAP
1080
1088
2FFC
2080
4080
C090
47F8
4000
4280
4A48
4A04
4A14
5210
41F0
ENDCHAR
STARTCHAR uni4FE8
ENCODING 20456
SWIDTH 1000 0
DWIDTH 15 0
BBX 14 14 0 -2
BITMAP
1000
17F8
2140
2548
6350
AFFC
2800
2800
2800
2800
2800
2800
3000
2000
ENDCHAR
STARTCHAR uni4FE9
ENCODING 20457
SWIDTH 1000 0
DWIDTH 15 0
BBX 14 14 0 -2
BITMAP
1008
1FFC
1120
2120
2FFC
6924
A924
2924
2AA4
2C54
288C
2804
2814
2808
ENDCHAR
STARTCHAR uni4FEA
ENCODING 20458
SWIDTH 1000 0
DWIDTH 15 0
BBX 14 14 0 -2
BITMAP
1008
1FFC
2000
2F78
6948
A948
2948
2D68
2B58
2948
2948
2948
2948
2B58
ENDCHAR
STARTCHAR uni4FEB
ENCODING 20459
SWIDTH 1000 0
DWIDTH 15 0
BBX 14 14 0 -2
BITMAP
1080
1080
2FF8
2080
6490
A2A0
2080
3FFC
2180
22C0
24A0
2890
308C
2080
ENDCHAR
STARTCHAR uni4FEC
ENCODING 20460
SWIDTH 1000 0
DWIDTH 15 0
BBX 14 14 0 -2
BITMAP
1190
1E10
2210
2210
6FA0
6220
A720
2AA0
2A50
3248
2248
229C
22E4
2204
ENDCHAR
STARTCHAR uni4FED
ENCODING 20461
SWIDTH 1000 0
DWIDTH 15 0
BBX 14 14 0 -2
BITMAP
1080
1080
1140
2220
6410
ABEC
2000
2110
2890
2490
22A0
2220
2FFC
2000
ENDCHAR
STARTCHAR uni4FEE
ENCODING 20462
SWIDTH 1000 0
DWIDTH 15 0
BBX 14 14 0 -2
BITMAP
2100
2100
21F8
5290
5460
5190
D60C
5060
5190
5620
50C8
5710
4060
4780
ENDCHAR
STARTCHAR uni4FEF
ENCODING 20463
SWIDTH 1000 0
DWIDTH 15 0
BBX 14 14 0 -2
BITMAP
2080
2080
2FFC
4910
4910
4A10
CAFC
4E90
4A50
4A50
4A10
5210
5250
6220
ENDCHAR
STARTCHAR uni4FF0
ENCODING 20464
SWIDTH 1000 0
DWIDTH 15 0
BBX 14 14 0 -2
BITMAP
2080
2308
2E7C
4248
4248
5FC8
C648
4748
4AC8
4A48
5248
4278
4248
4200
ENDCHAR
STARTCHAR uni4FF1
ENCODING 20465
SWIDTH 1000 0
DWIDTH 15 0
BBX 14 14 0 -2
BITMAP
1010
17F8
1410
27F0
2410
67F0
A410
27F0
2410
2410
2FFC
2210
2408
3804
ENDCHAR
STARTCHAR uni4FF2
ENCODING 20466
SWIDTH 1000 0
DWIDTH 15 0
BBX 13 14 0 -2
BITMAP
2420
2420
3FA0
4078
4928
48A8
D0A8
6928
4528
4228
4548
4948
50A8
4110
ENDCHAR
STARTCHAR uni4FF3
ENCODING 20467
SWIDTH 1000 0
DWIDTH 15 0
BBX 14 14 0 -2
BITMAP
1120
1120
1120
2F3C
2120
6120
AF3C
2120
21A0
2F3C
2220
2220
2420
2820
ENDCHAR
STARTCHAR uni4FF4
ENCODING 20468
SWIDTH 1000 0
DWIDTH 15 0
BBX 14 14 0 -2
BITMAP
1140
1138
2FC0
2118
60E4
6FB4
A04C
2220
2278
2F88
2130
20C4
23B4
2C0C
ENDCHAR
STARTCHAR uni4FF5
ENCODING 20469
SWIDTH 1000 0
DWIDTH 15 0
BBX 14 14 0 -2
BITMAP
1080
1080
2FF8
2080
67F8
6080
AFFC
2140
264C
2A30
3220
22D0
2308
2C04
ENDCHAR
STARTCHAR uni4FF6
ENCODING 20470
SWIDTH 1000 0
DWIDTH 15 0
BBX 14 14 0 -2
BITMAP
1200
127C
23A4
2224
6224
6FA8
A228
2B28
2A90
2A90
32A8
2228
2A44
2484
ENDCHAR
STARTCHAR uni4FF7
ENCODING 20471
SWIDTH 1000 0
DWIDTH 15 0
BBX 14 14 0 -2
BITMAP
2008
2EFC
2AA8
4AA8
4EA8
4AA8
CAF8
4E88
4A80
4A80
4A84
4A84
527C
5600
ENDCHAR
STARTCHAR uni4FF8
ENCODING 20472
SWIDTH 1000 0
DWIDTH 15 0
BBX 14 14 0 -2
BITMAP
2080
2FFC
2080
4FF8
4120
5FFC
C410
4888
57E4
4080
4080
5FF8
4080
4080
ENDCHAR
STARTCHAR uni4FF9
ENCODING 20473
SWIDTH 1000 0
DWIDTH 15 0
BBX 14 14 0 -2
BITMAP
2008
2FFC
2140
4140
4F78
4808
C808
4808
4808
4F78
4140
4140
4148
5FFC
ENDCHAR
STARTCHAR uni4FFA
ENCODING 20474
SWIDTH 1000 0
DWIDTH 15 0
BBX 14 14 0 -2
BITMAP
1080
1088
2FFC
2140
2220
6490
BFFC
2490
27F0
2490
27F4
2494
2084
207C
ENDCHAR
STARTCHAR uni4FFB
ENCODING 20475
SWIDTH 1000 0
DWIDTH 15 0
BBX 14 14 0 -2
BITMAP
1200
1200
13F8
2510
28A0
61E0
AE1C
27F8
2488
2488
27F8
2488
2488
27F8
ENDCHAR
STARTCHAR uni4FFC
ENCODING 20476
SWIDTH 1000 0
DWIDTH 15 0
BBX 14 14 0 -2
BITMAP
2080
2088
2FFC
4110
4208
4FFC
C000
47F8
4408
47F8
4408
47F8
4408
4438
ENDCHAR
STARTCHAR uni4FFD
ENCODING 20477
SWIDTH 1000 0
DWIDTH 15 0
BBX 14 14 0 -2
BITMAP
21A0
2E20
2820
4840
4F7C
4A44
CAA8
4AA0
4A20
4A20
4A50
4A50
5288
5104
ENDCHAR
STARTCHAR uni4FFE
ENCODING 20478
SWIDTH 1000 0
DWIDTH 15 0
BBX 14 14 0 -2
BITMAP
1040
1088
17FC
2488
27F8
6488
A7F8
2080
2120
2620
2FFC
2020
2020
2020
ENDCHAR
STARTCHAR uni4FFF
ENCODING 20479
SWIDTH 1000 0
DWIDTH 15 0
BBX 14 14 0 -2
BITMAP
1080
10F8
2080
27FC
2484
64F0
A788
24F8
2400
2520
2520
2924
2A24
341C
ENDCHAR
STARTCHAR uni5000
ENCODING 20480
SWIDTH 1000 0
DWIDTH 15 0
BBX 14 14 0 -2
BITMAP
1008
13FC
1200
23F8
2200
63F8
A200
2FFC
2248
2250
2220
2210
23C8
2E04
ENDCHAR
STARTCHAR uni5001
ENCODING 20481
SWIDTH 1000 0
DWIDTH 15 0
BBX 13 14 0 -2
BITMAP
1400
1400
2478
27C8
6A48
B248
2248
2FC8
2248
2248
2548
24C8
2878
3048
ENDCHAR
STARTCHAR uni5002
ENCODING 20482
SWIDTH 1000 0
DWIDTH 15 0
BBX 14 14 0 -2
BITMAP
1210
1210
1420
2F7C
2220
6220
A220
2320
2EFC
2220
2220
2420
2420
2820
ENDCHAR
STARTCHAR uni5003
ENCODING 20483
SWIDTH 1000 0
DWIDTH 15 0
BBX 14 14 0 -2
BITMAP
2410
2710
2510
4910
4D28
5244
C580
487C
5000
47F0
4410
4410
47F0
4410
ENDCHAR
STARTCHAR uni5004
ENCODING 20484
SWIDTH 1000 0
DWIDTH 15 0
BBX 13 14 0 -2
BITMAP
1618
1120
21C0
2E30
4100
5FF8
C200
47F0
4C10
57F0
4410
47F0
4410
4460
ENDCHAR
STARTCHAR uni5005
ENCODING 20485
SWIDTH 1000 0
DWIDTH 15 0
BBX 14 14 0 -2
BITMAP
1080
1080
2FFC
2220
6220
6530
A948
3080
2080
2FFC
2080
2080
2080
2080
ENDCHAR
STARTCHAR uni5006
ENCODING 20486
SWIDTH 1000 0
DWIDTH 15 0
BBX 14 14 0 -2
BITMAP
2008
2FFC
2080
2080
4FFC
4884
CEB4
4A94
4A94
4DAC
4884
4884
4894
4808
ENDCHAR
STARTCHAR uni5007
ENCODING 20487
SWIDTH 1000 0
DWIDTH 15 0
BBX 14 14 0 -2
BITMAP
1080
1080
2FFC
2804
6400
6778
A548
2948
3548
2648
2254
2444
2844
303C
ENDCHAR
STARTCHAR uni5008
ENCODING 20488
SWIDTH 1000 0
DWIDTH 15 0
BBX 14 14 0 -2
BITMAP
2080
2088
2FFC
4080
4490
C490
4A98
50A4
41C0
42A0
4490
4888
5084
4080
ENDCHAR
STARTCHAR uni5009
ENCODING 20489
SWIDTH 1000 0
DWIDTH 15 0
BBX 14 14 0 -2
BITMAP
0300
0480
0840
37B0
C00C
1FE0
1020
1FE0
1020
3FE0
2000
5FF0
9010
1FF0
ENDCHAR
STARTCHAR uni500A
ENCODING 20490
SWIDTH 1000 0
DWIDTH 15 0
BBX 14 14 0 -2
BITMAP
10E0
1220
2220
2510
690C
A220
2410
2FF8
2088
2240
2A48
2A14
2A10
21F0
ENDCHAR
STARTCHAR uni500B
ENCODING 20491
SWIDTH 1000 0
DWIDTH 15 0
BBX 14 14 0 -2
BITMAP
1008
17FC
1448
2448
27F8
6448
A448
25E8
2528
2528
25E8
2408
27F8
2408
ENDCHAR
STARTCHAR uni500C
ENCODING 20492
SWIDTH 1000 0
DWIDTH 15 0
BBX 14 14 0 -2
BITMAP
1040
1040
17FC
2408
2BF0
6210
A210
23F0
2200
23F8
2208
2208
23F8
2208
ENDCHAR
STARTCHAR uni500D
ENCODING 20493
SWIDTH 1000 0
DWIDTH 15 0
BBX 14 14 0 -2
BITMAP
1080
1080
1FFC
2410
2210
6220
AFFC
2000
27F0
2410
2410
2410
27F0
2410
ENDCHAR
STARTCHAR uni500E
ENCODING 20494
SWIDTH 1000 0
DWIDTH 15 0
BBX 14 14 0 -2
BITMAP
1140
1140
2140
2FF8
6948
6948
AFF8
2948
2948
3FFC
2000
2220
2410
2808
ENDCHAR
STARTCHAR uni500F
ENCODING 20495
SWIDTH 1000 0
DWIDTH 15 0
BBX 14 14 0 -2
BITMAP
1100
1100
21F0
3320
54C0
5130
D60C
5050
5040
57FC
50A0
5110
5208
4C04
ENDCHAR
STARTCHAR uni5010
ENCODING 20496
SWIDTH 1000 0
DWIDTH 15 0
BBX 14 14 0 -2
BITMAP
2100
2100
23F8
5510
50A0
5060
D19C
5640
5148
5150
52A0
5110
4208
4C04
ENDCHAR
STARTCHAR uni5011
ENCODING 20497
SWIDTH 1000 0
DWIDTH 15 0
BBX 14 14 0 -2
BITMAP
2000
2F7C
2944
2F7C
4944
4F7C
C804
4804
4804
4804
4804
4804
4814
4808
ENDCHAR
STARTCHAR uni5012
ENCODING 20498
SWIDTH 1000 0
DWIDTH 15 0
BBX 14 14 0 -2
BITMAP
2004
2FC4
2414
4414
4894
5FD4
C214
4214
5FD4
4214
4214
43C4
5E14
4008
ENDCHAR
STARTCHAR uni5013
ENCODING 20499
SWIDTH 1000 0
DWIDTH 15 0
BBX 14 14 0 -2
BITMAP
1080
1288
22B0
2480
6160
6210
AC88
2080
2488
24B0
2940
2120
2210
2C0C
ENDCHAR
STARTCHAR uni5014
ENCODING 20500
SWIDTH 1000 0
DWIDTH 15 0
BBX 14 14 0 -2
BITMAP
2008
2FFC
2808
2FF8
4840
4A48
CA48
4A48
4BF8
4840
4A48
5248
53F8
6208
ENDCHAR
STARTCHAR uni5015
ENCODING 20501
SWIDTH 1000 0
DWIDTH 15 0
BBX 14 14 0 -2
BITMAP
1070
1780
2080
2FF8
6490
6490
AFFC
2490
2490
2490
2FF8
2080
2080
2FF8
ENDCHAR
STARTCHAR uni5016
ENCODING 20502
SWIDTH 1000 0
DWIDTH 15 0
BBX 14 14 0 -2
BITMAP
1080
1090
27F8
2080
2FFC
6410
A220
27F8
2080
2080
2FFC
2080
2080
2080
ENDCHAR
STARTCHAR uni5017
ENCODING 20503
SWIDTH 1000 0
DWIDTH 15 0
BBX 14 14 0 -2
BITMAP
1000
17BC
24A4
24A4
67BC
64A4
A4A4
27BC
24A4
24A4
24A4
28A4
28C4
3358
ENDCHAR
STARTCHAR uni5018
ENCODING 20504
SWIDTH 1000 0
DWIDTH 15 0
BBX 14 14 0 -2
BITMAP
1080
12A0
2290
248C
4884
4FF8
C808
49E8
4928
4928
49E8
4808
4828
4810
ENDCHAR
STARTCHAR uni5019
ENCODING 20505
SWIDTH 1000 0
DWIDTH 15 0
BBX 14 14 0 -2
BITMAP
2000
23F0
2010
57FC
5000
5200
D3F8
5440
5040
57FC
5040
50A0
5310
4C0C
ENDCHAR
STARTCHAR uni501A
ENCODING 20506
SWIDTH 1000 0
DWIDTH 15 0
BBX 14 14 0 -2
BITMAP
1080
1080
2FF8
2140
2220
6C10
BFFC
2010
2790
2490
2490
2790
2050
2020
ENDCHAR
STARTCHAR uni501B
ENCODING 20507
SWIDTH 1000 0
DWIDTH 15 0
BBX 14 14 0 -2
BITMAP
1210
1210
2FFC
2210
6210
63F0
A210
23F0
2210
2210
2FFC
2120
2218
2C04
ENDCHAR
STARTCHAR uni501C
ENCODING 20508
SWIDTH 1000 0
DWIDTH 15 0
BBX 14 14 0 -2
BITMAP
1000
17FC
2444
25F4
6444
67FC
A404
25F4
2514
2514
25F4
2914
2824
3018
ENDCHAR
STARTCHAR uni501D
ENCODING 20509
SWIDTH 1000 0
DWIDTH 15 0
BBX 14 14 0 -2
BITMAP
1020
1020
FF20
1020
7E20
4220
7E20
4220
7E50
1050
FE90
1088
1108
1204
ENDCHAR
STARTCHAR uni501E
ENCODING 20510
SWIDTH 1000 0
DWIDTH 15 0
BBX 14 14 0 -2
BITMAP
1080
1080
2FFC
2000
67F0
6410
A410
27F0
2490
22A0
2490
2488
2884
2300
ENDCHAR
STARTCHAR uni501F
ENCODING 20511
SWIDTH 1000 0
DWIDTH 15 0
BBX 14 14 0 -2
BITMAP
1220
1220
1FF8
2220
2220
6FFC
A000
27F0
2410
2410
27F0
2410
27F0
2410
ENDCHAR
STARTCHAR uni5020
ENCODING 20512
SWIDTH 1000 0
DWIDTH 15 0
BBX 14 14 0 -2
BITMAP
1220
1220
2440
27F8
6C40
7440
A7F8
2440
2440
27F8
2440
2440
27FC
2400
ENDCHAR
STARTCHAR uni5021
ENCODING 20513
SWIDTH 1000 0
DWIDTH 15 0
BBX 14 14 0 -2
BITMAP
1000
13F8
1208
23F8
2208
63F8
A000
27FC
2404
2404
27FC
2404
27FC
2404
ENDCHAR
STARTCHAR uni5022
ENCODING 20514
SWIDTH 1000 0
DWIDTH 15 0
BBX 14 14 0 -2
BITMAP
1080
17FC
2080
27F8
6088
6FFC
A088
27F8
2088
2480
24F8
2A80
2980
207C
ENDCHAR
STARTCHAR uni5023
ENCODING 20515
SWIDTH 1000 0
DWIDTH 15 0
BBX 14 14 0 -2
BITMAP
2420
2420
3FA0
483C
4848
4F48
C9A8
4928
4910
4910
5130
5148
6A88
4504
ENDCHAR
STARTCHAR uni5024
ENCODING 20516
SWIDTH 1000 0
DWIDTH 15 0
BBX 14 14 0 -2
BITMAP
1040
1048
2FFC
2040
69F8
A908
29F8
2908
29F8
2908
2908
29F8
2800
2FFC
ENDCHAR
STARTCHAR uni5025
ENCODING 20517
SWIDTH 1000 0
DWIDTH 15 0
BBX 14 14 0 -2
BITMAP
1080
1080
2FFC
2804
2140
6144
A244
2C3C
2000
27F8
2080
2080
2088
2FFC
ENDCHAR
STARTCHAR uni5026
ENCODING 20518
SWIDTH 1000 0
DWIDTH 15 0
BBX 14 14 0 -2
BITMAP
1080
1490
2488
2BF8
4140
4220
DFFC
4408
4BE4
5220
42A0
4248
4208
41F8
ENDCHAR
STARTCHAR uni5027
ENCODING 20519
SWIDTH 1000 0
DWIDTH 15 0
BBX 14 14 0 -2
BITMAP
1040
1040
27FC
2404
6808
63F0
A000
2FFC
2040
2250
2248
2444
2A44
2180
ENDCHAR
STARTCHAR uni5028
ENCODING 20520
SWIDTH 1000 0
DWIDTH 15 0
BBX 14 14 0 -2
BITMAP
1008
17FC
1408
27F8
2440
6440
A7FC
2440
2440
27F8
2A08
2A08
33F8
2208
ENDCHAR
STARTCHAR uni5029
ENCODING 20521
SWIDTH 1000 0
DWIDTH 15 0
BBX 14 14 0 -2
BITMAP
1080
17F8
1080
27F8
2080
6FFC
A000
27F8
2488
2488
27F8
2408
2428
2410
ENDCHAR
STARTCHAR uni502A
ENCODING 20522
SWIDTH 1000 0
DWIDTH 15 0
BBX 14 14 0 -2
BITMAP
1188
163C
1408
2408
27B8
6408
A408
27F8
2140
2140
2244
2244
2444
383C
ENDCHAR
STARTCHAR uni502B
ENCODING 20523
SWIDTH 1000 0
DWIDTH 15 0
BBX 14 14 0 -2
BITMAP
1080
1140
1220
2410
3BEC
6000
AFF8
2948
2948
2FF8
2948
2948
2948
2818
ENDCHAR
STARTCHAR uni502C
ENCODING 20524
SWIDTH 1000 0
DWIDTH 15 0
BBX 14 14 0 -2
BITMAP
1080
1080
20F8
2080
67F8
6408
A7F8
2408
27F8
2080
2FFC
2080
2080
2080
ENDCHAR
STARTCHAR uni502D
ENCODING 20525
SWIDTH 1000 0
DWIDTH 15 0
BBX 14 14 0 -2
BITMAP
1038
17C0
2080
3FFC
22A0
6490
B88C
2100
3FFC
2220
2720
20C0
2330
2C08
ENDCHAR
STARTCHAR uni502E
ENCODING 20526
SWIDTH 1000 0
DWIDTH 15 0
BBX 14 14 0 -2
BITMAP
1000
17F8
1488
27F8
2488
67F8
A488
2080
2FFC
21A0
2290
2488
2884
2080
ENDCHAR
STARTCHAR uni502F
ENCODING 20527
SWIDTH 1000 0
DWIDTH 15 0
BBX 14 14 0 -2
BITMAP
2400
2470
2490
5E90
4488
4488
CEA4
4D24
5540
5450
4448
4488
44F4
4584
ENDCHAR
STARTCHAR uni5030
ENCODING 20528
SWIDTH 1000 0
DWIDTH 15 0
BBX 14 14 0 -2
BITMAP
1080
17F0
2080
2FFC
6240
6244
A43C
2900
23F8
2610
2920
20C0
2330
2C0C
ENDCHAR
STARTCHAR uni5031
ENCODING 20529
SWIDTH 1000 0
DWIDTH 15 0
BBX 14 14 0 -2
BITMAP
1000
17F0
2410
27F0
6410
67F0
A410
2440
244C
27F0
2440
2444
2744
2C7C
ENDCHAR
STARTCHAR uni5032
ENCODING 20530
SWIDTH 1000 0
DWIDTH 15 0
BBX 14 14 0 -2
BITMAP
2088
2FFC
2080
4FF8
4888
4FF8
C888
4888
4FF8
49C8
42A0
44B0
588C
4080
ENDCHAR
STARTCHAR uni5033
ENCODING 20531
SWIDTH 1000 0
DWIDTH 15 0
BBX 14 14 0 -2
BITMAP
1080
1FF8
2080
27F0
6490
67F0
A080
2FF8
2088
3FFC
2088
2FF8
2088
2300
ENDCHAR
STARTCHAR uni5034
ENCODING 20532
SWIDTH 1000 0
DWIDTH 15 0
BBX 14 14 0 -2
BITMAP
1100
1100
2FF8
2220
6490
BBEC
2080
22A0
2220
3FFC
2220
2220
2420
2820
ENDCHAR
STARTCHAR uni5035
ENCODING 20533
SWIDTH 1000 0
DWIDTH 15 0
BBX 14 14 0 -2
BITMAP
1020
1028
27A4
2020
6FFC
6120
A120
2520
25A0
2510
2514
25D4
2E0C
2004
ENDCHAR
STARTCHAR uni5036
ENCODING 20534
SWIDTH 1000 0
DWIDTH 15 0
BBX 14 14 0 -2
BITMAP
1010
17F8
1410
27F0
2410
67F0
A410
2410
27F0
2000
2FFC
2210
2408
2804
ENDCHAR
STARTCHAR uni5037
ENCODING 20535
SWIDTH 1000 0
DWIDTH 15 0
BBX 14 14 0 -2
BITMAP
1080
1080
2FF8
2140
6220
6410
ABEC
2000
2FF8
2080
22A0
2490
2888
2300
ENDCHAR
STARTCHAR uni5038
ENCODING 20536
SWIDTH 1000 0
DWIDTH 15 0
BBX 14 14 0 -2
BITMAP
1078
1380
2290
2448
2848
6080
A080
2FFC
20C0
21A0
2290
2488
3884
2080
ENDCHAR
STARTCHAR uni5039
ENCODING 20537
SWIDTH 1000 0
DWIDTH 15 0
BBX 14 14 0 -2
BITMAP
1080
1140
1220
2410
3BEC
6080
A7F8
2488
2488
27F8
2080
2140
2230
2C0C
ENDCHAR
STARTCHAR uni503A
ENCODING 20538
SWIDTH 1000 0
DWIDTH 15 0
BBX 14 14 0 -2
BITMAP
1080
17F8
2080
27F8
6080
AFFC
2000
27F0
2410
2490
2490
2160
2218
2C08
ENDCHAR
STARTCHAR uni503B
ENCODING 20539
SWIDTH 1000 0
DWIDTH 15 0
BBX 14 14 0 -2
BITMAP
1000
1FB8
2528
2528
6728
A528
2530
2728
2524
2524
27B4
2D28
2120
2120
ENDCHAR
STARTCHAR uni503C
ENCODING 20540
SWIDTH 1000 0
DWIDTH 15 0
BBX 14 14 0 -2
BITMAP
1040
1040
2FFC
2040
4BF0
4A10
CBF0
4A10
4BF0
4A10
4BF0
4800
4FFC
4800
ENDCHAR
STARTCHAR uni503D
ENCODING 20541
SWIDTH 1000 0
DWIDTH 15 0
BBX 14 14 0 -2
BITMAP
1080
1140
2220
2410
6BEC
A080
2080
2FF8
2080
27F0
2410
2410
27F0
2410
ENDCHAR
STARTCHAR uni503E
ENCODING 20542
SWIDTH 1000 0
DWIDTH 15 0
BBX 14 14 0 -2
BITMAP
2008
29FC
2820
48F8
4888
CEA8
48A8
48A8
4AA8
4CA8
48A8
4050
408C
4304
ENDCHAR
STARTCHAR uni503F
ENCODING 20543
SWIDTH 1000 0
DWIDTH 15 0
BBX 14 14 0 -2
BITMAP
1080
17F8
2000
2210
6120
6FFC
A080
2108
2FFC
2220
2720
20C0
2330
2C08
ENDCHAR
STARTCHAR uni5040
ENCODING 20544
SWIDTH 1000 0
DWIDTH 15 0
BBX 14 14 0 -2
BITMAP
1220
17F8
2220
2220
6080
67F0
A490
2490
2FFC
2080
2140
2120
2210
2C0C
ENDCHAR
STARTCHAR uni5041
ENCODING 20545
SWIDTH 1000 0
DWIDTH 15 0
BBX 14 14 0 -2
BITMAP
1038
17C0
2490
2848
6884
67F0
A490
2FFC
2490
2490
2FFC
2410
2450
2420
ENDCHAR
STARTCHAR uni5042
ENCODING 20546
SWIDTH 1000 0
DWIDTH 15 0
BBX 14 14 0 -2
BITMAP
1210
1120
2FFC
2000
6008
AF28
2928
2F28
2928
2F28
2928
2908
2928
2B10
ENDCHAR
STARTCHAR uni5043
ENCODING 20547
SWIDTH 1000 0
DWIDTH 15 0
BBX 14 14 0 -2
BITMAP
2000
2FFC
2908
29F8
4908
49F8
C840
4FFC
4890
49A0
4860
4F98
4800
4FFC
ENDCHAR
STARTCHAR uni5044
ENCODING 20548
SWIDTH 1000 0
DWIDTH 15 0
BBX 14 14 0 -2
BITMAP
2008
2FFC
2080
47FC
4524
C524
4524
452C
4080
4FFC
40C0
4120
4210
4C0C
ENDCHAR
STARTCHAR uni5045
ENCODING 20549
SWIDTH 1000 0
DWIDTH 15 0
BBX 14 14 0 -2
BITMAP
1078
1780
2080
2FFC
6080
67F8
A488
27F8
2488
27F8
2080
27F8
2080
2FFC
ENDCHAR
STARTCHAR uni5046
ENCODING 20550
SWIDTH 1000 0
DWIDTH 15 0
BBX 14 14 0 -2
BITMAP
1080
17F8
2080
27F8
6120
6FFC
A210
2408
2BF4
3210
23F0
2210
23F0
2210
ENDCHAR
STARTCHAR uni5047
ENCODING 20551
SWIDTH 1000 0
DWIDTH 15 0
BBX 14 14 0 -2
BITMAP
2000
2FB8
2888
4888
4FB8
4800
C878
4F48
4848
4850
4F20
4830
4848
4984
ENDCHAR
STARTCHAR uni5048
ENCODING 20552
SWIDTH 1000 0
DWIDTH 15 0
BBX 14 14 0 -2
BITMAP
1000
17F0
2410
27F0
6410
67F0
A200
23FC
2484
2CC4
2524
27F4
2404
2018
ENDCHAR
STARTCHAR uni5049
ENCODING 20553
SWIDTH 1000 0
DWIDTH 15 0
BBX 14 14 0 -2
BITMAP
2100
2FE0
2220
5FFC
4000
47F0
C410
47F0
4040
5FF8
4440
5FFC
4040
4040
ENDCHAR
STARTCHAR uni504A
ENCODING 20554
SWIDTH 1000 0
DWIDTH 15 0
BBX 14 14 0 -2
BITMAP
1078
1780
2080
27F8
6488
6488
A7F8
2080
2FFC
28A4
28F4
2B14
2804
2818
ENDCHAR
STARTCHAR uni504B
ENCODING 20555
SWIDTH 1000 0
DWIDTH 15 0
BBX 14 14 0 -2
BITMAP
1000
17F8
2408
27F8
6488
6510
A7FC
2510
2590
277C
2510
2910
2A10
3410
ENDCHAR
STARTCHAR uni504C
ENCODING 20556
SWIDTH 1000 0
DWIDTH 15 0
BBX 14 14 0 -2
BITMAP
2220
2FFC
2220
4220
4100
5FFC
C100
4200
43F8
4608
4A08
5208
43F8
4208
ENDCHAR
STARTCHAR uni504D
ENCODING 20557
SWIDTH 1000 0
DWIDTH 15 0
BBX 14 14 0 -2
BITMAP
17F0
1410
27F0
2410
67F0
6000
AFFC
2080
2480
24F8
2480
2680
2980
307C
ENDCHAR
STARTCHAR uni504E
ENCODING 20558
SWIDTH 1000 0
DWIDTH 15 0
BBX 14 14 0 -2
BITMAP
1008
17FC
1488
27F8
2488
67F8
A000
2FFC
2488
2450
2420
2590
2E0C
2000
ENDCHAR
STARTCHAR uni504F
ENCODING 20559
SWIDTH 1000 0
DWIDTH 15 0
BBX 14 14 0 -2
BITMAP
1038
1FC0
2800
2FF8
2808
6FF8
A800
2BFC
2A94
2A94
2BFC
2A94
3294
220C
ENDCHAR
STARTCHAR uni5050
ENCODING 20560
SWIDTH 1000 0
DWIDTH 15 0
BBX 14 14 0 -2
BITMAP
1040
17FC
1210
2110
2120
67FC
A420
2440
2598
2460
258C
2810
2860
3780
ENDCHAR
STARTCHAR uni5051
ENCODING 20561
SWIDTH 1000 0
DWIDTH 15 0
BBX 14 14 0 -2
BITMAP
2000
2FF8
2808
4BE8
4888
CBE8
CAA8
4AA8
4BE8
4A88
48A8
48EC
5394
5014
ENDCHAR
STARTCHAR uni5052
ENCODING 20562
SWIDTH 1000 0
DWIDTH 15 0
BBX 14 14 0 -2
BITMAP
17F0
1410
27F0
2410
67F0
A000
2FFC
2200
27F8
2928
3128
2248
2C88
2330
ENDCHAR
STARTCHAR uni5053
ENCODING 20563
SWIDTH 1000 0
DWIDTH 15 0
BBX 14 14 0 -2
BITMAP
1000
17F8
2408
27F8
6400
67FC
A490
27F8
2408
2440
2BF8
2840
37FC
2000
ENDCHAR
STARTCHAR uni5054
ENCODING 20564
SWIDTH 1000 0
DWIDTH 15 0
BBX 14 14 0 -2
BITMAP
2F78
2948
2948
4F78
4000
47F0
C000
5FFC
4200
47F8
4408
4008
4088
4070
ENDCHAR
STARTCHAR uni5055
ENCODING 20565
SWIDTH 1000 0
DWIDTH 15 0
BBX 14 14 0 -2
BITMAP
1440
144C
1770
2444
2444
677C
AC80
2080
27F8
2408
27F8
2408
27F8
2408
ENDCHAR
STARTCHAR uni5056
ENCODING 20566
SWIDTH 1000 0
DWIDTH 15 0
BBX 14 14 0 -2
BITMAP
1100
1108
27E8
2110
4120
5FFC
C080
4100
5FF0
4410
47F0
4410
47F0
4410
ENDCHAR
STARTCHAR uni5057
ENCODING 20567
SWIDTH 1000 0
DWIDTH 15 0
BBX 14 14 0 -2
BITMAP
1040
1250
2248
2594
6820
60C0
A7F8
3A08
23F8
2208
23F8
2208
23F8
2208
ENDCHAR
STARTCHAR uni5058
ENCODING 20568
SWIDTH 1000 0
DWIDTH 15 0
BBX 13 14 0 -2
BITMAP
1020
17F0
2420
2420
2420
67E0
A000
2F78
2948
2948
2948
2948
2F78
2948
ENDCHAR
STARTCHAR uni5059
ENCODING 20569
SWIDTH 1000 0
DWIDTH 15 0
BBX 14 14 0 -2
BITMAP
2080
2FFC
2210
4210
4120
5FFC
D084
47F0
4490
4490
44D0
44A0
4080
4080
ENDCHAR
STARTCHAR uni505A
ENCODING 20570
SWIDTH 1000 0
DWIDTH 15 0
BBX 14 14 0 -2
BITMAP
2440
2440
2440
3F7C
4448
4488
C488
5F50
5150
5120
5120
5F50
5088
4304
ENDCHAR
STARTCHAR uni505B
ENCODING 20571
SWIDTH 1000 0
DWIDTH 15 0
BBX 14 14 0 -2
BITMAP
1038
17C0
2080
2080
6FFC
6080
A7B8
2488
2488
27B8
2488
2488
27F8
2408
ENDCHAR
STARTCHAR uni505C
ENCODING 20572
SWIDTH 1000 0
DWIDTH 15 0
BBX 14 14 0 -2
BITMAP
2080
2FFC
2000
27F0
4410
47F0
C000
4FFC
4804
57F8
4040
4040
4240
4180
ENDCHAR
STARTCHAR uni505D
ENCODING 20573
SWIDTH 1000 0
DWIDTH 15 0
BBX 14 14 0 -2
BITMAP
1120
1F2C
2130
2324
6D3C
6000
A7F8
2408
27F8
2408
27F8
2408
2448
2430
ENDCHAR
STARTCHAR uni505E
ENCODING 20574
SWIDTH 1000 0
DWIDTH 15 0
BBX 14 14 0 -2
BITMAP
1490
1490
2FFC
2490
64F0
6400
A7FC
2080
2FFC
21C0
22A0
2490
288C
2080
ENDCHAR
STARTCHAR uni505F
ENCODING 20575
SWIDTH 1000 0
DWIDTH 15 0
BBX 14 14 0 -2
BITMAP
1080
1080
27F8
2408
67F8
6408
A7F8
2000
2FFC
2080
27F8
2080
2080
2FFC
ENDCHAR
STARTCHAR uni5060
ENCODING 20576
SWIDTH 1000 0
DWIDTH 15 0
BBX 14 14 0 -2
BITMAP
1000
17FC
2120
27F8
6528
6528
A7F8
2100
2FFC
2210
2320
20C0
2330
2C08
ENDCHAR
STARTCHAR uni5061
ENCODING 20577
SWIDTH 1000 0
DWIDTH 15 0
BBX 14 14 0 -2
BITMAP
1220
17F8
2220
23E0
6220
63E0
A220
2220
2FFC
2520
2538
2600
27FC
2400
ENDCHAR
STARTCHAR uni5062
ENCODING 20578
SWIDTH 1000 0
DWIDTH 15 0
BBX 14 14 0 -2
BITMAP
2020
2320
2C20
44A4
5FA4
C4A8
C6A8
4D20
4C20
5450
5450
4488
4488
4504
ENDCHAR
STARTCHAR uni5063
ENCODING 20579
SWIDTH 1000 0
DWIDTH 15 0
BBX 14 14 0 -2
BITMAP
1080
1080
27F8
2210
6120
6FFC
A000
27F0
2410
27F0
2410
2410
27F0
2410
ENDCHAR
STARTCHAR uni5064
ENCODING 20580
SWIDTH 1000 0
DWIDTH 15 0
BBX 14 14 0 -2
BITMAP
10F0
1210
2408
27F8
6944
67F8
A548
2548
2638
2408
27F8
2408
27F8
2408
ENDCHAR
STARTCHAR uni5065
ENCODING 20581
SWIDTH 1000 0
DWIDTH 15 0
BBX 14 14 0 -2
BITMAP
2040
3DF8
2448
4BFC
4848
5FF8
C240
53F8
5440
6C40
47FC
4C40
5300
60FC
ENDCHAR
STARTCHAR uni5066
ENCODING 20582
SWIDTH 1000 0
DWIDTH 15 0
BBX 14 14 0 -2
BITMAP
2000
2FFC
2484
44F8
4A80
51FC
C000
47F8
4408
47F8
4408
47F8
4408
4478
ENDCHAR
STARTCHAR uni5067
ENCODING 20583
SWIDTH 1000 0
DWIDTH 15 0
BBX 14 14 0 -2
BITMAP
1100
1108
2FFC
2220
6510
BBEC
2540
28A0
2378
2C88
2350
2020
20C0
2F00
ENDCHAR
STARTCHAR uni5068
ENCODING 20584
SWIDTH 1000 0
DWIDTH 15 0
BBX 14 14 0 -2
BITMAP
1240
1240
2B4C
2A70
6A44
6B44
BC3C
2080
3FFC
21C0
22A0
2490
388C
2080
ENDCHAR
STARTCHAR uni5069
ENCODING 20585
SWIDTH 1000 0
DWIDTH 15 0
BBX 14 14 0 -2
BITMAP
1100
11F8
2210
2460
6FFC
6404
A7FC
2404
27FC
2404
27FC
2524
2218
2C04
ENDCHAR
STARTCHAR uni506A
ENCODING 20586
SWIDTH 1000 0
DWIDTH 15 0
BBX 14 14 0 -2
BITMAP
1008
17FC
2000
23F8
6208
63F8
A000
27FC
2444
2444
27FC
2444
27FC
2404
ENDCHAR
STARTCHAR uni506B
ENCODING 20587
SWIDTH 1000 0
DWIDTH 15 0
BBX 14 14 0 -2
BITMAP
2420
2420
24F8
4A20
5220
C5FC
C410
4DFC
5410
4490
4450
4450
4410
4460
ENDCHAR
STARTCHAR uni506C
ENCODING 20588
SWIDTH 1000 0
DWIDTH 15 0
BBX 14 14 0 -2
BITMAP
1200
1208
27FC
2928
37C8
6268
A488
3930
2080
2240
2A48
2A14
3214
21F0
ENDCHAR
STARTCHAR uni506D
ENCODING 20589
SWIDTH 1000 0
DWIDTH 15 0
BBX 14 14 0 -2
BITMAP
1008
1FFC
1080
2088
27FC
6528
A528
25E8
2528
25E8
2528
2528
27F8
2408
ENDCHAR
STARTCHAR uni506E
ENCODING 20590
SWIDTH 1000 0
DWIDTH 15 0
BBX 14 14 0 -2
BITMAP
1000
17F0
2410
27F0
6000
6FFC
A410
27F0
2410
27F0
241C
2FF0
2010
2010
ENDCHAR
STARTCHAR uni506F
ENCODING 20591
SWIDTH 1000 0
DWIDTH 15 0
BBX 14 14 0 -2
BITMAP
2080
2080
2FFC
4000
47F0
4410
C410
47F0
4288
4450
5C20
4590
5E0C
4000
ENDCHAR
STARTCHAR uni5070
ENCODING 20592
SWIDTH 1000 0
DWIDTH 15 0
BBX 14 14 0 -2
BITMAP
1200
1F78
2228
2F28
6228
6348
AEA8
2210
2080
2FFC
2080
2140
2230
2C0C
ENDCHAR
STARTCHAR uni5071
ENCODING 20593
SWIDTH 1000 0
DWIDTH 15 0
BBX 14 14 0 -2
BITMAP
103C
17C0
2448
27FC
6440
A440
25F8
2508
25F8
2508
25F8
2908
29F8
3108
ENDCHAR
STARTCHAR uni5072
ENCODING 20594
SWIDTH 1000 0
DWIDTH 15 0
BBX 14 14 0 -2
BITMAP
1000
17F8
2488
27F8
6488
6488
A7F8
2408
2080
2A48
2A24
2A14
3210
23F0
ENDCHAR
STARTCHAR uni5073
ENCODING 20595
SWIDTH 1000 0
DWIDTH 15 0
BBX 14 14 0 -2
BITMAP
1040
1448
2448
27F8
6000
6FFC
A080
2FFC
2924
2924
2924
2924
2934
2808
ENDCHAR
STARTCHAR uni5074
ENCODING 20596
SWIDTH 1000 0
DWIDTH 15 0
BBX 13 14 0 -2
BITMAP
2008
2F88
28A8
48A8
4FA8
48A8
CFA8
48A8
48A8
4FA8
4028
4508
48A8
5010
ENDCHAR
STARTCHAR uni5075
ENCODING 20597
SWIDTH 1000 0
DWIDTH 15 0
BBX 14 14 0 -2
BITMAP
1080
10FC
1080
27F8
2408
6408
A7F8
2408
27F8
2408
27F8
2000
2330
2C0C
ENDCHAR
STARTCHAR uni5076
ENCODING 20598
SWIDTH 1000 0
DWIDTH 15 0
BBX 14 14 0 -2
BITMAP
17F8
1488
1488
27F8
2488
67F8
A488
2080
2FFC
28A4
28F4
2B94
2804
281C
ENDCHAR
STARTCHAR uni5077
ENCODING 20599
SWIDTH 1000 0
DWIDTH 15 0
BBX 14 14 0 -2
BITMAP
1080
1140
1220
2410
3BEC
6000
AF48
2948
2F48
2948
2F48
2948
2928
2B10
ENDCHAR
STARTCHAR uni5078
ENCODING 20600
SWIDTH 1000 0
DWIDTH 15 0
BBX 14 14 0 -2
BITMAP
1080
1140
2220
2410
2BEC
7000
AF28
2928
2F28
2950
2F50
2948
2928
2B28
ENDCHAR
STARTCHAR uni5079
ENCODING 20601
SWIDTH 1000 0
DWIDTH 15 0
BBX 14 14 0 -2
BITMAP
2100
2108
23FC
4490
4060
5190
D60C
53F8
5248
5248
53F8
5248
43F8
4208
ENDCHAR
STARTCHAR uni507A
ENCODING 20602
SWIDTH 1000 0
DWIDTH 15 0
BBX 14 14 0 -2
BITMAP
1200
1390
1490
2490
2B28
7144
A280
247C
3800
27F0
2410
27F0
2410
27F0
ENDCHAR
STARTCHAR uni507B
ENCODING 20603
SWIDTH 1000 0
DWIDTH 15 0
BBX 14 14 0 -2
BITMAP
1490
1290
22A0
2FFC
62A0
A490
388C
2100
3FFC
2210
2720
24C0
2120
2E18
ENDCHAR
STARTCHAR uni507C
ENCODING 20604
SWIDTH 1000 0
DWIDTH 15 0
BBX 14 14 0 -2
BITMAP
2080
20FC
2080
4FF0
4010
5FFC
C010
4FF0
4090
4480
44FC
4480
4A80
51FC
ENDCHAR
STARTCHAR uni507D
ENCODING 20605
SWIDTH 1000 0
DWIDTH 15 0
BBX 14 14 0 -2
BITMAP
1030
17C0
2498
2888
57F0
4410
C7F8
4408
47FC
4404
4AA4
4A94
5424
6018
ENDCHAR
STARTCHAR uni507E
ENCODING 20606
SWIDTH 1000 0
DWIDTH 15 0
BBX 14 14 0 -2
BITMAP
1080
17F8
2080
2220
6FFC
A220
27F0
2410
2490
2490
2490
2140
2230
2C10
ENDCHAR
STARTCHAR uni507F
ENCODING 20607
SWIDTH 1000 0
DWIDTH 15 0
BBX 14 14 0 -2
BITMAP
1080
1490
22A0
2FFC
6804
A000
27F0
2000
2FFC
2100
2220
2410
2FF8
2408
ENDCHAR
STARTCHAR uni5080
ENCODING 20608
SWIDTH 1000 0
DWIDTH 15 0
BBX 14 14 0 -2
BITMAP
1080
1100
2FF8
2888
2FF8
6888
A888
2FF8
2290
2290
22A8
24FC
2884
307C
ENDCHAR
STARTCHAR uni5081
ENCODING 20609
SWIDTH 1000 0
DWIDTH 15 0
BBX 14 14 0 -2
BITMAP
2288
2CBC
2888
4EB8
4888
4888
CEB8
4080
4FF8
4210
4120
40C0
4330
5C0C
ENDCHAR
STARTCHAR uni5082
ENCODING 20610
SWIDTH 1000 0
DWIDTH 15 0
BBX 14 14 0 -2
BITMAP
1078
1F80
2878
2840
6BFC
6A44
ABF0
2A44
2A3C
2AA0
34A0
34A4
2524
2A1C
ENDCHAR
STARTCHAR uni5083
ENCODING 20611
SWIDTH 1000 0
DWIDTH 15 0
BBX 14 14 0 -2
BITMAP
1080
1FFC
2080
27F8
6080
6FFC
A520
2250
2188
2FFC
2080
24A0
2890
3088
ENDCHAR
STARTCHAR uni5084
ENCODING 20612
SWIDTH 1000 0
DWIDTH 15 0
BBX 14 14 0 -2
BITMAP
1080
17F8
2140
2A28
6410
B80C
27F0
2410
27F0
2410
27F0
2410
27F0
2410
ENDCHAR
STARTCHAR uni5085
ENCODING 20613
SWIDTH 1000 0
DWIDTH 15 0
BBX 14 14 0 -2
BITMAP
1090
1FFC
2080
27F8
2488
67F8
A488
27F8
2488
2010
2FFC
2210
2110
2060
ENDCHAR
STARTCHAR uni5086
ENCODING 20614
SWIDTH 1000 0
DWIDTH 15 0
BBX 14 14 0 -2
BITMAP
1008
17FC
1440
25F8
2508
65F8
A508
25F8
2548
2440
2950
2A4C
3544
2080
ENDCHAR
STARTCHAR uni5087
ENCODING 20615
SWIDTH 1000 0
DWIDTH 15 0
BBX 14 14 0 -2
BITMAP
1220
1FFC
2220
2000
7FFC
6420
A7E0
2420
27E0
2420
24FC
3F20
2020
2020
ENDCHAR
STARTCHAR uni5088
ENCODING 20616
SWIDTH 1000 0
DWIDTH 15 0
BBX 14 14 0 -2
BITMAP
1008
17FC
2120
27F8
2528
6528
A7F8
2000
2080
2FFC
21A0
2290
2C8C
2080
ENDCHAR
STARTCHAR uni5089
ENCODING 20617
SWIDTH 1000 0
DWIDTH 15 0
BBX 14 14 0 -2
BITMAP
1000
17FC
2400
25F8
2400
67FC
A514
25C8
2714
2410
2BFC
2910
3090
2030
ENDCHAR
STARTCHAR uni508A
ENCODING 20618
SWIDTH 1000 0
DWIDTH 15 0
BBX 14 14 0 -2
BITMAP
13F0
1210
23F0
2000
67F8
A408
27F8
2408
27F8
2408
27F8
2110
220C
2C04
ENDCHAR
ENDFONT
